<svg width="1019" height="735" viewBox="0 0 1019 735" fill="none" xmlns="http://www.w3.org/2000/svg">
<g filter="url(#filter0_d_10_121)">
<g clip-path="url(#clip0_10_121)">
<rect x="14" y="79" width="963.2" height="592" fill="#FAFAFA"/>
<mask id="path-3-inside-1_10_121" fill="white">
<path d="M14 79H231V671H14V79Z"/>
</mask>
<path d="M14 79H231V671H14V79Z" fill="white"/>
<g clip-path="url(#clip1_10_121)">
<path d="M46.576 143.576C44.176 143.576 42.272 142.792 40.864 141.224C39.488 139.624 38.8 137.352 38.8 134.408V122.696H34.48V118.952H38.896L39.808 111.08H43.12V118.952H50.032V122.696H43.12V134.744C43.12 136.6 43.504 137.896 44.272 138.632C45.072 139.368 46.016 139.736 47.104 139.736C47.904 139.736 48.656 139.608 49.36 139.352C50.096 139.096 50.768 138.792 51.376 138.44L52.576 141.896C51.936 142.28 51.072 142.648 49.984 143C48.896 143.384 47.76 143.576 46.576 143.576ZM65.5326 143.576C63.4526 143.576 61.5646 143.048 59.8686 141.992C58.1726 140.936 56.8126 139.448 55.7886 137.528C54.7966 135.576 54.3006 133.288 54.3006 130.664C54.3006 128.168 54.7966 125.928 55.7886 123.944C56.8126 121.96 58.2046 120.392 59.9646 119.24C61.7566 118.056 63.8046 117.464 66.1086 117.464C67.5486 117.464 68.8446 117.72 69.9966 118.232C71.1806 118.712 72.2046 119.32 73.0686 120.056V118.04H77.0046V136.952C77.0046 138.168 77.2926 138.968 77.8686 139.352C78.4766 139.704 79.1326 139.88 79.8366 139.88L78.9246 143.24C75.8526 143.24 73.9966 141.992 73.3566 139.496C72.6206 140.52 71.6126 141.464 70.3326 142.328C69.0846 143.16 67.4846 143.576 65.5326 143.576ZM66.4926 139.736C67.7086 139.736 68.8606 139.448 69.9486 138.872C71.0366 138.264 71.9486 137.512 72.6846 136.616V123.224C71.8206 122.616 70.8606 122.136 69.8046 121.784C68.7806 121.4 67.6926 121.208 66.5406 121.208C65.0046 121.208 63.6446 121.608 62.4606 122.408C61.3086 123.176 60.3966 124.264 59.7246 125.672C59.0526 127.048 58.7166 128.664 58.7166 130.52C58.7166 132.312 59.0526 133.912 59.7246 135.32C60.3966 136.696 61.3246 137.784 62.5086 138.584C63.6926 139.352 65.0206 139.736 66.4926 139.736ZM95.2169 143.576C92.8489 143.576 90.7689 143.032 88.9769 141.944C87.2169 140.824 85.8569 139.288 84.8969 137.336C83.9369 135.352 83.4569 133.08 83.4569 130.52C83.4569 128.12 83.9369 125.928 84.8969 123.944C85.8889 121.96 87.2969 120.392 89.1209 119.24C90.9449 118.056 93.0889 117.464 95.5529 117.464C96.9609 117.464 98.1929 117.592 99.2489 117.848C100.337 118.104 101.377 118.472 102.369 118.952L101.073 122.6C100.177 122.152 99.3129 121.832 98.4809 121.64C97.6809 121.416 96.7849 121.304 95.7929 121.304C93.5529 121.304 91.6649 122.12 90.1289 123.752C88.6249 125.352 87.8729 127.576 87.8729 130.424C87.8729 132.152 88.1929 133.72 88.8329 135.128C89.4729 136.536 90.3529 137.656 91.4729 138.488C92.6249 139.32 93.9689 139.736 95.5049 139.736C96.7209 139.736 97.7609 139.608 98.6249 139.352C99.4889 139.064 100.417 138.664 101.409 138.152L102.753 141.8C101.761 142.344 100.641 142.776 99.3929 143.096C98.1769 143.416 96.7849 143.576 95.2169 143.576ZM117.821 143.576C115.453 143.576 113.325 143.032 111.437 141.944C109.549 140.824 108.061 139.288 106.973 137.336C105.917 135.352 105.389 133.08 105.389 130.52C105.389 127.832 105.933 125.512 107.021 123.56C108.109 121.608 109.597 120.104 111.485 119.048C113.373 117.992 115.485 117.464 117.821 117.464C120.157 117.464 122.253 117.992 124.109 119.048C125.997 120.104 127.485 121.608 128.573 123.56C129.693 125.48 130.253 127.768 130.253 130.424C130.253 133.08 129.709 135.4 128.621 137.384C127.533 139.336 126.045 140.856 124.157 141.944C122.301 143.032 120.189 143.576 117.821 143.576ZM117.821 139.736C120.349 139.736 122.317 138.888 123.725 137.192C125.133 135.464 125.837 133.24 125.837 130.52C125.837 128.856 125.485 127.336 124.781 125.96C124.077 124.552 123.117 123.432 121.901 122.6C120.717 121.736 119.357 121.304 117.821 121.304C115.293 121.304 113.325 122.136 111.917 123.8C110.509 125.464 109.805 127.672 109.805 130.424C109.805 132.088 110.157 133.64 110.861 135.08C111.565 136.488 112.509 137.624 113.693 138.488C114.909 139.32 116.285 139.736 117.821 139.736Z" fill="#18181B"/>
</g>
<rect x="42" y="179.8" width="140" height="17" rx="4" fill="#D9D9D9" fill-opacity="0.5"/>
<g opacity="0.7" clip-path="url(#clip2_10_121)">
<path d="M52 222.167C53.8409 222.167 55.3333 220.674 55.3333 218.833C55.3333 216.992 53.8409 215.5 52 215.5C50.159 215.5 48.6667 216.992 48.6667 218.833C48.6667 220.674 50.159 222.167 52 222.167Z" stroke="#18181B" stroke-width="1.25" stroke-linecap="round" stroke-linejoin="round"/>
<path d="M47 230.5V228.833C47 227.949 47.3512 227.101 47.9763 226.476C48.6014 225.851 49.4493 225.5 50.3333 225.5H53.6667C54.5507 225.5 55.3986 225.851 56.0237 226.476C56.6488 227.101 57 227.949 57 228.833V230.5" stroke="#18181B" stroke-width="1.25" stroke-linecap="round" stroke-linejoin="round"/>
</g>
<g opacity="0.7" clip-path="url(#clip3_10_121)">
<path d="M55.3333 256.333H48.6667C48.2064 256.333 47.8333 256.707 47.8333 257.167V268.833C47.8333 269.294 48.2064 269.667 48.6667 269.667H55.3333C55.7936 269.667 56.1667 269.294 56.1667 268.833V257.167C56.1667 256.707 55.7936 256.333 55.3333 256.333Z" stroke="#18181B" stroke-width="1.25" stroke-linecap="round" stroke-linejoin="round"/>
<path d="M51.1667 257.167H52.8333" stroke="#18181B" stroke-width="1.25" stroke-linecap="round" stroke-linejoin="round"/>
<path d="M52 267.167V267.175" stroke="#18181B" stroke-width="1.25" stroke-linecap="round" stroke-linejoin="round"/>
</g>
<g opacity="0.7" clip-path="url(#clip4_10_121)">
<path d="M50.3333 304.667C50.6049 304.944 50.929 305.164 51.2868 305.314C51.6445 305.465 52.0286 305.542 52.4167 305.542C52.8047 305.542 53.1888 305.465 53.5466 305.314C53.9043 305.164 54.2284 304.944 54.5 304.667L57.8333 301.333C58.3859 300.781 58.6963 300.031 58.6963 299.25C58.6963 298.469 58.3859 297.719 57.8333 297.167C57.2808 296.614 56.5314 296.304 55.75 296.304C54.9686 296.304 54.2192 296.614 53.6667 297.167L53.25 297.583" stroke="#18181B" stroke-width="1.25" stroke-linecap="round" stroke-linejoin="round"/>
<path d="M53.6667 301.333C53.3951 301.056 53.071 300.836 52.7132 300.686C52.3555 300.535 51.9714 300.458 51.5833 300.458C51.1953 300.458 50.8112 300.535 50.4534 300.686C50.0957 300.836 49.7716 301.056 49.5 301.333L46.1667 304.667C45.6141 305.219 45.3037 305.969 45.3037 306.75C45.3037 307.532 45.6141 308.281 46.1667 308.833C46.7192 309.386 47.4686 309.696 48.25 309.696C49.0314 309.696 49.7808 309.386 50.3333 308.833L50.75 308.417" stroke="#18181B" stroke-width="1.25" stroke-linecap="round" stroke-linejoin="round"/>
</g>
<path d="M75 223.5C75 221.291 76.7909 219.5 79 219.5H151C153.209 219.5 155 221.291 155 223.5V227.5C155 229.709 153.209 231.5 151 231.5H79C76.7909 231.5 75 229.709 75 227.5V223.5Z" fill="#D9D9D9" fill-opacity="0.4"/>
<path d="M75 259.5C75 257.291 76.7909 255.5 79 255.5H151C153.209 255.5 155 257.291 155 259.5V263.5C155 265.709 153.209 267.5 151 267.5H79C76.7909 267.5 75 265.709 75 263.5V259.5Z" fill="#D9D9D9" fill-opacity="0.4"/>
<path d="M75 302C75 299.791 76.7909 298 79 298H151C153.209 298 155 299.791 155 302V306C155 308.209 153.209 310 151 310H79C76.7909 310 75 308.209 75 306V302Z" fill="#D9D9D9" fill-opacity="0.4"/>
<path d="M75 389C75 386.791 76.7909 385 79 385H151C153.209 385 155 386.791 155 389V393C155 395.209 153.209 397 151 397H79C76.7909 397 75 395.209 75 393V389Z" fill="#D9D9D9" fill-opacity="0.4"/>
<path d="M75 430C75 427.791 76.7909 426 79 426H151C153.209 426 155 427.791 155 430V434C155 436.209 153.209 438 151 438H79C76.7909 438 75 436.209 75 434V430Z" fill="#D9D9D9" fill-opacity="0.4"/>
<path d="M75 518C75 515.791 76.7909 514 79 514H151C153.209 514 155 515.791 155 518V522C155 524.209 153.209 526 151 526H79C76.7909 526 75 524.209 75 522V518Z" fill="#D9D9D9" fill-opacity="0.4"/>
<path d="M75 557.5C75 555.291 76.7909 553.5 79 553.5H151C153.209 553.5 155 555.291 155 557.5V561.5C155 563.709 153.209 565.5 151 565.5H79C76.7909 565.5 75 563.709 75 561.5V557.5Z" fill="#D9D9D9" fill-opacity="0.4"/>
<rect x="42" y="347.8" width="140" height="17" rx="4" fill="#D9D9D9" fill-opacity="0.5"/>
<g opacity="0.7" clip-path="url(#clip5_10_121)">
<path d="M46.1667 398.5V385.167C46.1667 384.725 46.3423 384.301 46.6548 383.988C46.9674 383.676 47.3913 383.5 47.8333 383.5H56.1667C56.6087 383.5 57.0326 383.676 57.3452 383.988C57.6577 384.301 57.8333 384.725 57.8333 385.167V398.5L55.3333 396.833L53.6667 398.5L52 396.833L50.3333 398.5L48.6667 396.833L46.1667 398.5Z" stroke="#18181B" stroke-width="1.25" stroke-linecap="round" stroke-linejoin="round"/>
<path d="M53.6667 387.667H51.5833C51.2518 387.667 50.9339 387.798 50.6995 388.033C50.465 388.267 50.3333 388.585 50.3333 388.917C50.3333 389.248 50.465 389.566 50.6995 389.8C50.9339 390.035 51.2518 390.167 51.5833 390.167H52.4167C52.7482 390.167 53.0661 390.298 53.3006 390.533C53.535 390.767 53.6667 391.085 53.6667 391.417C53.6667 391.748 53.535 392.066 53.3006 392.3C53.0661 392.535 52.7482 392.667 52.4167 392.667H50.3333M52 392.667V393.917M52 386.417V387.667" stroke="#18181B" stroke-width="1.25" stroke-linecap="round" stroke-linejoin="round"/>
</g>
<g opacity="0.7" clip-path="url(#clip6_10_121)">
<path d="M53.6667 423.5V426.833C53.6667 427.054 53.7545 427.266 53.9107 427.423C54.067 427.579 54.279 427.667 54.5 427.667H57.8333" stroke="#18181B" stroke-width="1.25" stroke-linecap="round" stroke-linejoin="round"/>
<path d="M56.1667 438.5H47.8333C47.3913 438.5 46.9674 438.324 46.6548 438.012C46.3423 437.699 46.1667 437.275 46.1667 436.833V425.167C46.1667 424.725 46.3423 424.301 46.6548 423.988C46.9674 423.676 47.3913 423.5 47.8333 423.5H53.6667L57.8333 427.667V436.833C57.8333 437.275 57.6577 437.699 57.3452 438.012C57.0326 438.324 56.6087 438.5 56.1667 438.5Z" stroke="#18181B" stroke-width="1.25" stroke-linecap="round" stroke-linejoin="round"/>
<path d="M49.5 426.833H50.3333" stroke="#18181B" stroke-width="1.25" stroke-linecap="round" stroke-linejoin="round"/>
<path d="M49.5 431.833H54.5" stroke="#18181B" stroke-width="1.25" stroke-linecap="round" stroke-linejoin="round"/>
<path d="M52.8333 435.167H54.5" stroke="#18181B" stroke-width="1.25" stroke-linecap="round" stroke-linejoin="round"/>
</g>
<rect x="42" y="475.8" width="140" height="17" rx="4" fill="#D9D9D9" fill-opacity="0.5"/>
<g opacity="0.7" clip-path="url(#clip7_10_121)">
<path d="M47 519C47.9205 519 48.6667 518.254 48.6667 517.333C48.6667 516.413 47.9205 515.667 47 515.667C46.0795 515.667 45.3333 516.413 45.3333 517.333C45.3333 518.254 46.0795 519 47 519Z" stroke="#18181B" stroke-width="1.25" stroke-linecap="round" stroke-linejoin="round"/>
<path d="M47 512.333V515.667" stroke="#18181B" stroke-width="1.25" stroke-linecap="round" stroke-linejoin="round"/>
<path d="M47 519V525.667" stroke="#18181B" stroke-width="1.25" stroke-linecap="round" stroke-linejoin="round"/>
<path d="M52 524C52.9205 524 53.6667 523.254 53.6667 522.333C53.6667 521.413 52.9205 520.667 52 520.667C51.0795 520.667 50.3333 521.413 50.3333 522.333C50.3333 523.254 51.0795 524 52 524Z" stroke="#18181B" stroke-width="1.25" stroke-linecap="round" stroke-linejoin="round"/>
<path d="M52 512.333V520.667" stroke="#18181B" stroke-width="1.25" stroke-linecap="round" stroke-linejoin="round"/>
<path d="M52 524V525.667" stroke="#18181B" stroke-width="1.25" stroke-linecap="round" stroke-linejoin="round"/>
<path d="M57 516.5C57.9205 516.5 58.6667 515.754 58.6667 514.833C58.6667 513.913 57.9205 513.167 57 513.167C56.0795 513.167 55.3333 513.913 55.3333 514.833C55.3333 515.754 56.0795 516.5 57 516.5Z" stroke="#18181B" stroke-width="1.25" stroke-linecap="round" stroke-linejoin="round"/>
<path d="M57 512.333V513.167" stroke="#18181B" stroke-width="1.25" stroke-linecap="round" stroke-linejoin="round"/>
<path d="M57 516.5V525.667" stroke="#18181B" stroke-width="1.25" stroke-linecap="round" stroke-linejoin="round"/>
</g>
<g opacity="0.7" clip-path="url(#clip8_10_121)">
<path d="M50.3333 553.167C50.3333 552.725 50.5089 552.301 50.8215 551.988C51.1341 551.676 51.558 551.5 52 551.5C52.442 551.5 52.866 551.676 53.1785 551.988C53.4911 552.301 53.6667 552.725 53.6667 553.167C54.6237 553.619 55.4395 554.324 56.0267 555.204C56.6139 556.085 56.9504 557.109 57 558.167V560.667C57.0627 561.185 57.2462 561.681 57.5357 562.115C57.8252 562.549 58.2126 562.91 58.6667 563.167H45.3333C45.7875 562.91 46.1748 562.549 46.4643 562.115C46.7538 561.681 46.9373 561.185 47 560.667V558.167C47.0496 557.109 47.3861 556.085 47.9733 555.204C48.5605 554.324 49.3763 553.619 50.3333 553.167Z" stroke="#18181B" stroke-width="1.25" stroke-linecap="round" stroke-linejoin="round"/>
<path d="M49.5 563.167V564C49.5 564.663 49.7634 565.299 50.2322 565.768C50.7011 566.236 51.337 566.5 52 566.5C52.663 566.5 53.2989 566.236 53.7678 565.768C54.2366 565.299 54.5 564.663 54.5 564V563.167" stroke="#18181B" stroke-width="1.25" stroke-linecap="round" stroke-linejoin="round"/>
<path d="M59.5 554.606C58.9534 553.417 58.1596 552.358 57.1717 551.5" stroke="#18181B" stroke-width="1.25" stroke-linecap="round" stroke-linejoin="round"/>
<path d="M44.5 554.606C45.0461 553.417 45.8393 552.358 46.8267 551.5" stroke="#18181B" stroke-width="1.25" stroke-linecap="round" stroke-linejoin="round"/>
</g>
<path opacity="0.8" d="M48.959 623.8H43.1211V613.997H45.3291V622.009H48.959V623.8ZM53.4092 623.971C52.2425 623.971 51.3242 623.645 50.6543 622.993C49.9889 622.337 49.6562 621.448 49.6562 620.327C49.6562 619.17 50.0026 618.265 50.6953 617.613C51.388 616.957 52.3245 616.629 53.5049 616.629C54.667 616.629 55.5785 616.957 56.2393 617.613C56.9001 618.265 57.2305 619.129 57.2305 620.204C57.2305 621.366 56.8887 622.285 56.2051 622.959C55.526 623.633 54.5941 623.971 53.4092 623.971ZM53.4639 618.283C52.9535 618.283 52.557 618.459 52.2744 618.81C51.9919 619.16 51.8506 619.657 51.8506 620.3C51.8506 621.644 52.3929 622.316 53.4775 622.316C54.512 622.316 55.0293 621.626 55.0293 620.245C55.0293 618.937 54.5075 618.283 53.4639 618.283ZM65.4951 623C65.4951 624.299 65.1191 625.304 64.3672 626.015C63.6152 626.73 62.526 627.088 61.0996 627.088C60.1562 627.088 59.4089 626.953 58.8574 626.685V624.866C59.5775 625.285 60.3044 625.495 61.0381 625.495C61.7673 625.495 62.3324 625.301 62.7334 624.914C63.1344 624.531 63.335 624.009 63.335 623.349V622.795H63.3076C62.8154 623.579 62.0885 623.971 61.127 623.971C60.2337 623.971 59.5251 623.656 59.001 623.027C58.4769 622.398 58.2148 621.555 58.2148 620.498C58.2148 619.313 58.5065 618.372 59.0898 617.675C59.6732 616.978 60.4411 616.629 61.3936 616.629C62.2458 616.629 62.8838 616.957 63.3076 617.613H63.335V616.8H65.4951V623ZM63.3623 620.437V619.883C63.3623 619.441 63.2301 619.065 62.9658 618.755C62.7061 618.44 62.3665 618.283 61.9473 618.283C61.4688 618.283 61.0928 618.47 60.8193 618.844C60.5459 619.217 60.4092 619.744 60.4092 620.423C60.4092 621.006 60.5391 621.469 60.7988 621.811C61.0586 622.148 61.4141 622.316 61.8652 622.316C62.3118 622.316 62.6719 622.146 62.9453 621.804C63.2233 621.457 63.3623 621.002 63.3623 620.437ZM70.6357 623.971C69.4691 623.971 68.5508 623.645 67.8809 622.993C67.2155 622.337 66.8828 621.448 66.8828 620.327C66.8828 619.17 67.2292 618.265 67.9219 617.613C68.6146 616.957 69.5511 616.629 70.7314 616.629C71.8936 616.629 72.805 616.957 73.4658 617.613C74.1266 618.265 74.457 619.129 74.457 620.204C74.457 621.366 74.1152 622.285 73.4316 622.959C72.7526 623.633 71.8206 623.971 70.6357 623.971ZM70.6904 618.283C70.18 618.283 69.7835 618.459 69.501 618.81C69.2184 619.16 69.0771 619.657 69.0771 620.3C69.0771 621.644 69.6195 622.316 70.7041 622.316C71.7386 622.316 72.2559 621.626 72.2559 620.245C72.2559 618.937 71.734 618.283 70.6904 618.283ZM82.5098 623.8H80.3564V622.733H80.3223C79.7891 623.558 79.0758 623.971 78.1826 623.971C76.5602 623.971 75.749 622.989 75.749 621.024V616.8H77.9023V620.833C77.9023 621.822 78.2943 622.316 79.0781 622.316C79.4655 622.316 79.7754 622.182 80.0078 621.913C80.2402 621.64 80.3564 621.271 80.3564 620.806V616.8H82.5098V623.8ZM88.5664 623.718C88.2474 623.886 87.7666 623.971 87.124 623.971C85.6019 623.971 84.8408 623.18 84.8408 621.599V618.393H83.7061V616.8H84.8408V615.289L86.9941 614.674V616.8H88.5664V618.393H86.9941V621.223C86.9941 621.952 87.2835 622.316 87.8623 622.316C88.0902 622.316 88.3249 622.25 88.5664 622.118V623.718Z" fill="#18181B"/>
<g opacity="0.8" clip-path="url(#clip9_10_121)">
<path d="M106.537 614.667V613C106.537 612.558 106.361 612.134 106.049 611.822C105.736 611.509 105.312 611.333 104.87 611.333H99.0367C98.5946 611.333 98.1707 611.509 97.8582 611.822C97.5456 612.134 97.37 612.558 97.37 613V623C97.37 623.442 97.5456 623.866 97.8582 624.179C98.1707 624.491 98.5946 624.667 99.0367 624.667H104.87C105.312 624.667 105.736 624.491 106.049 624.179C106.361 623.866 106.537 623.442 106.537 623V621.333" stroke="#18181B" stroke-width="1.25" stroke-linecap="round" stroke-linejoin="round"/>
<path d="M100.703 618H112.37M112.37 618L109.87 615.5M112.37 618L109.87 620.5" stroke="#18181B" stroke-width="1.25" stroke-linecap="round" stroke-linejoin="round"/>
</g>
<path d="M230.2 79V671H231.8V79H230.2Z" fill="#D4D4D8" mask="url(#path-3-inside-1_10_121)"/>
</g>
</g>
<defs>
<filter id="filter0_d_10_121" x="4" y="69" width="983" height="612" filterUnits="userSpaceOnUse" color-interpolation-filters="sRGB">
<feFlood flood-opacity="0" result="BackgroundImageFix"/>
<feColorMatrix in="SourceAlpha" type="matrix" values="0 0 0 0 0 0 0 0 0 0 0 0 0 0 0 0 0 0 127 0" result="hardAlpha"/>
<feOffset/>
<feGaussianBlur stdDeviation="5"/>
<feComposite in2="hardAlpha" operator="out"/>
<feColorMatrix type="matrix" values="0 0 0 0 0 0 0 0 0 0 0 0 0 0 0 0 0 0 0.15 0"/>
<feBlend mode="normal" in2="BackgroundImageFix" result="effect1_dropShadow_10_121"/>
<feBlend mode="normal" in="SourceGraphic" in2="effect1_dropShadow_10_121" result="shape"/>
</filter>
<clipPath id="clip0_10_121">
<rect x="14" y="79" width="963" height="592" rx="12" fill="white"/>
</clipPath>
<clipPath id="clip1_10_121">
<rect width="97" height="33" fill="white" transform="translate(34 111)"/>
</clipPath>
<clipPath id="clip2_10_121">
<rect width="20" height="20" fill="white" transform="translate(42 213)"/>
</clipPath>
<clipPath id="clip3_10_121">
<rect width="20" height="20" fill="white" transform="translate(42 253)"/>
</clipPath>
<clipPath id="clip4_10_121">
<rect width="20" height="20" fill="white" transform="translate(42 293)"/>
</clipPath>
<clipPath id="clip5_10_121">
<rect width="20" height="20" fill="white" transform="translate(42 381)"/>
</clipPath>
<clipPath id="clip6_10_121">
<rect width="20" height="20" fill="white" transform="translate(42 421)"/>
</clipPath>
<clipPath id="clip7_10_121">
<rect width="20" height="20" fill="white" transform="translate(42 509)"/>
</clipPath>
<clipPath id="clip8_10_121">
<rect width="20" height="20" fill="white" transform="translate(42 549)"/>
</clipPath>
<clipPath id="clip9_10_121">
<rect width="20" height="20" fill="white" transform="translate(94.87 608)"/>
</clipPath>
</defs>
</svg>
