<svg width="852" height="615" viewBox="0 0 852 615" fill="none" xmlns="http://www.w3.org/2000/svg">
<rect width="852" height="615" fill="#F3F4F4"/>
<path d="M192.859 120.75H184.484V127.484H192.203V130.625H184.484V140H180.766V117.594H192.859V120.75ZM214.172 140H209.828L206.25 134C205.927 133.448 205.609 132.979 205.297 132.594C204.995 132.198 204.682 131.875 204.359 131.625C204.047 131.375 203.703 131.193 203.328 131.078C202.953 130.964 202.531 130.906 202.062 130.906H200.562V140H196.859V117.594H204.234C205.286 117.594 206.255 117.719 207.141 117.969C208.026 118.219 208.797 118.599 209.453 119.109C210.109 119.609 210.62 120.24 210.984 121C211.359 121.75 211.547 122.63 211.547 123.641C211.547 124.432 211.427 125.161 211.188 125.828C210.958 126.484 210.625 127.073 210.188 127.594C209.76 128.104 209.24 128.542 208.625 128.906C208.021 129.271 207.339 129.552 206.578 129.75V129.812C206.984 130.042 207.339 130.297 207.641 130.578C207.943 130.849 208.229 131.13 208.5 131.422C208.771 131.714 209.036 132.047 209.297 132.422C209.568 132.786 209.865 133.214 210.188 133.703L214.172 140ZM200.562 120.609V127.891H203.656C204.229 127.891 204.755 127.802 205.234 127.625C205.724 127.448 206.146 127.193 206.5 126.859C206.854 126.526 207.13 126.12 207.328 125.641C207.526 125.161 207.625 124.625 207.625 124.031C207.625 122.958 207.286 122.12 206.609 121.516C205.932 120.911 204.958 120.609 203.688 120.609H200.562ZM229.375 140H216.797V117.594H228.875V120.75H220.516V127.094H228.219V130.234H220.516V136.859H229.375V140ZM242.594 140.375C240.979 140.375 239.516 140.099 238.203 139.547C236.891 138.995 235.771 138.224 234.844 137.234C233.917 136.234 233.198 135.042 232.688 133.656C232.177 132.271 231.922 130.74 231.922 129.062C231.922 127.271 232.177 125.646 232.688 124.188C233.208 122.729 233.943 121.484 234.891 120.453C235.849 119.422 237.01 118.625 238.375 118.062C239.74 117.5 241.266 117.219 242.953 117.219C244.516 117.219 245.943 117.495 247.234 118.047C248.526 118.599 249.63 119.375 250.547 120.375C251.464 121.365 252.172 122.552 252.672 123.938C253.182 125.323 253.438 126.849 253.438 128.516C253.438 130.724 253.068 132.661 252.328 134.328C251.589 135.984 250.547 137.318 249.203 138.328L255.703 143.016H250.047L246.047 139.906C245.516 140.052 244.964 140.167 244.391 140.25C243.818 140.333 243.219 140.375 242.594 140.375ZM242.766 120.484C241.745 120.484 240.807 120.688 239.953 121.094C239.109 121.49 238.38 122.057 237.766 122.797C237.151 123.526 236.672 124.401 236.328 125.422C235.995 126.443 235.828 127.578 235.828 128.828C235.828 130.068 235.99 131.198 236.312 132.219C236.646 133.24 237.109 134.115 237.703 134.844C238.297 135.562 239.01 136.125 239.844 136.531C240.677 136.927 241.599 137.125 242.609 137.125C243.682 137.125 244.646 136.938 245.5 136.562C246.354 136.188 247.078 135.651 247.672 134.953C248.276 134.245 248.74 133.38 249.062 132.359C249.385 131.339 249.547 130.177 249.547 128.875C249.547 127.542 249.391 126.354 249.078 125.312C248.766 124.271 248.318 123.396 247.734 122.688C247.151 121.969 246.438 121.422 245.594 121.047C244.76 120.672 243.818 120.484 242.766 120.484ZM274.781 130.938C274.781 137.229 271.802 140.375 265.844 140.375C260.135 140.375 257.281 137.349 257.281 131.297V117.594H261V130.531C261 134.927 262.708 137.125 266.125 137.125C269.417 137.125 271.062 135.005 271.062 130.766V117.594H274.781V130.938ZM292.625 140H280.047V117.594H292.125V120.75H283.766V127.094H291.469V130.234H283.766V136.859H292.625V140ZM315.609 140H311.547L300.844 123.531C300.573 123.115 300.349 122.682 300.172 122.234H300.078C300.161 122.714 300.203 123.74 300.203 125.312V140H296.609V117.594H300.938L311.281 133.672C311.719 134.339 312 134.797 312.125 135.047H312.188C312.083 134.453 312.031 133.448 312.031 132.031V117.594H315.609V140ZM335.547 120.75H329.109V140H325.391V120.75H318.969V117.594H335.547V120.75ZM351.234 140H338.828V117.594H342.547V136.859H351.234V140ZM367.969 117.594L360.625 131.859V140H356.906V131.938L349.75 117.594H353.984L358.391 127.203C358.443 127.318 358.599 127.75 358.859 128.5H358.906C359 128.167 359.172 127.734 359.422 127.203L364.031 117.594H367.969ZM398.047 140H393.969L391.953 134.297H383.141L381.203 140H377.141L385.531 117.594H389.719L398.047 140ZM390.969 131.266L387.859 122.328C387.766 122.036 387.667 121.568 387.562 120.922H387.5C387.406 121.516 387.302 121.984 387.188 122.328L384.109 131.266H390.969ZM400.109 139.109V135.281C400.453 135.594 400.859 135.875 401.328 136.125C401.807 136.375 402.312 136.589 402.844 136.766C403.375 136.932 403.906 137.062 404.438 137.156C404.969 137.25 405.458 137.297 405.906 137.297C407.469 137.297 408.63 137.036 409.391 136.516C410.161 135.995 410.547 135.24 410.547 134.25C410.547 133.719 410.417 133.26 410.156 132.875C409.906 132.479 409.552 132.12 409.094 131.797C408.635 131.474 408.094 131.167 407.469 130.875C406.854 130.573 406.193 130.26 405.484 129.938C404.724 129.531 404.016 129.12 403.359 128.703C402.703 128.286 402.13 127.828 401.641 127.328C401.161 126.818 400.781 126.245 400.5 125.609C400.229 124.974 400.094 124.229 400.094 123.375C400.094 122.323 400.328 121.411 400.797 120.641C401.276 119.859 401.901 119.219 402.672 118.719C403.453 118.208 404.339 117.833 405.328 117.594C406.318 117.344 407.328 117.219 408.359 117.219C410.703 117.219 412.411 117.484 413.484 118.016V121.688C412.214 120.771 410.578 120.312 408.578 120.312C408.026 120.312 407.474 120.365 406.922 120.469C406.38 120.573 405.891 120.745 405.453 120.984C405.026 121.224 404.677 121.531 404.406 121.906C404.135 122.281 404 122.734 404 123.266C404 123.766 404.104 124.198 404.312 124.562C404.521 124.927 404.823 125.26 405.219 125.562C405.625 125.865 406.115 126.161 406.688 126.453C407.271 126.734 407.943 127.042 408.703 127.375C409.484 127.781 410.219 128.208 410.906 128.656C411.604 129.104 412.214 129.599 412.734 130.141C413.266 130.682 413.682 131.286 413.984 131.953C414.297 132.609 414.453 133.359 414.453 134.203C414.453 135.339 414.224 136.297 413.766 137.078C413.307 137.859 412.688 138.495 411.906 138.984C411.135 139.474 410.245 139.828 409.234 140.047C408.224 140.266 407.156 140.375 406.031 140.375C405.656 140.375 405.193 140.344 404.641 140.281C404.099 140.229 403.542 140.146 402.969 140.031C402.396 139.927 401.854 139.797 401.344 139.641C400.833 139.484 400.422 139.307 400.109 139.109ZM435.531 140H430.688L422.891 129.75C422.599 129.365 422.422 129.104 422.359 128.969H422.297V140H418.578V117.594H422.297V128.125H422.359C422.484 127.896 422.661 127.641 422.891 127.359L430.406 117.594H434.859L426.062 128.344L435.531 140ZM450.719 140H438.141V117.594H450.219V120.75H441.859V127.094H449.562V130.234H441.859V136.859H450.719V140ZM454.703 140V117.594H461.172C469.432 117.594 473.562 121.234 473.562 128.516C473.562 131.974 472.417 134.755 470.125 136.859C467.833 138.953 464.76 140 460.906 140H454.703ZM458.406 120.75V136.859H461.375C463.99 136.859 466.021 136.141 467.469 134.703C468.927 133.266 469.656 131.234 469.656 128.609C469.656 123.37 466.943 120.75 461.516 120.75H458.406ZM495.719 140.375C494.104 140.375 492.641 140.099 491.328 139.547C490.016 138.995 488.896 138.224 487.969 137.234C487.042 136.234 486.323 135.042 485.812 133.656C485.302 132.271 485.047 130.74 485.047 129.062C485.047 127.271 485.302 125.646 485.812 124.188C486.333 122.729 487.068 121.484 488.016 120.453C488.974 119.422 490.135 118.625 491.5 118.062C492.865 117.5 494.391 117.219 496.078 117.219C497.641 117.219 499.068 117.495 500.359 118.047C501.651 118.599 502.755 119.375 503.672 120.375C504.589 121.365 505.297 122.552 505.797 123.938C506.307 125.323 506.562 126.849 506.562 128.516C506.562 130.724 506.193 132.661 505.453 134.328C504.714 135.984 503.672 137.318 502.328 138.328L508.828 143.016H503.172L499.172 139.906C498.641 140.052 498.089 140.167 497.516 140.25C496.943 140.333 496.344 140.375 495.719 140.375ZM495.891 120.484C494.87 120.484 493.932 120.688 493.078 121.094C492.234 121.49 491.505 122.057 490.891 122.797C490.276 123.526 489.797 124.401 489.453 125.422C489.12 126.443 488.953 127.578 488.953 128.828C488.953 130.068 489.115 131.198 489.438 132.219C489.771 133.24 490.234 134.115 490.828 134.844C491.422 135.562 492.135 136.125 492.969 136.531C493.802 136.927 494.724 137.125 495.734 137.125C496.807 137.125 497.771 136.938 498.625 136.562C499.479 136.188 500.203 135.651 500.797 134.953C501.401 134.245 501.865 133.38 502.188 132.359C502.51 131.339 502.672 130.177 502.672 128.875C502.672 127.542 502.516 126.354 502.203 125.312C501.891 124.271 501.443 123.396 500.859 122.688C500.276 121.969 499.562 121.422 498.719 121.047C497.885 120.672 496.943 120.484 495.891 120.484ZM527.906 130.938C527.906 137.229 524.927 140.375 518.969 140.375C513.26 140.375 510.406 137.349 510.406 131.297V117.594H514.125V130.531C514.125 134.927 515.833 137.125 519.25 137.125C522.542 137.125 524.188 135.005 524.188 130.766V117.594H527.906V130.938ZM545.75 140H533.172V117.594H545.25V120.75H536.891V127.094H544.594V130.234H536.891V136.859H545.75V140ZM548.703 139.109V135.281C549.047 135.594 549.453 135.875 549.922 136.125C550.401 136.375 550.906 136.589 551.438 136.766C551.969 136.932 552.5 137.062 553.031 137.156C553.562 137.25 554.052 137.297 554.5 137.297C556.062 137.297 557.224 137.036 557.984 136.516C558.755 135.995 559.141 135.24 559.141 134.25C559.141 133.719 559.01 133.26 558.75 132.875C558.5 132.479 558.146 132.12 557.688 131.797C557.229 131.474 556.688 131.167 556.062 130.875C555.448 130.573 554.786 130.26 554.078 129.938C553.318 129.531 552.609 129.12 551.953 128.703C551.297 128.286 550.724 127.828 550.234 127.328C549.755 126.818 549.375 126.245 549.094 125.609C548.823 124.974 548.688 124.229 548.688 123.375C548.688 122.323 548.922 121.411 549.391 120.641C549.87 119.859 550.495 119.219 551.266 118.719C552.047 118.208 552.932 117.833 553.922 117.594C554.911 117.344 555.922 117.219 556.953 117.219C559.297 117.219 561.005 117.484 562.078 118.016V121.688C560.807 120.771 559.172 120.312 557.172 120.312C556.62 120.312 556.068 120.365 555.516 120.469C554.974 120.573 554.484 120.745 554.047 120.984C553.62 121.224 553.271 121.531 553 121.906C552.729 122.281 552.594 122.734 552.594 123.266C552.594 123.766 552.698 124.198 552.906 124.562C553.115 124.927 553.417 125.26 553.812 125.562C554.219 125.865 554.708 126.161 555.281 126.453C555.865 126.734 556.536 127.042 557.297 127.375C558.078 127.781 558.812 128.208 559.5 128.656C560.198 129.104 560.807 129.599 561.328 130.141C561.859 130.682 562.276 131.286 562.578 131.953C562.891 132.609 563.047 133.359 563.047 134.203C563.047 135.339 562.818 136.297 562.359 137.078C561.901 137.859 561.281 138.495 560.5 138.984C559.729 139.474 558.839 139.828 557.828 140.047C556.818 140.266 555.75 140.375 554.625 140.375C554.25 140.375 553.786 140.344 553.234 140.281C552.693 140.229 552.135 140.146 551.562 140.031C550.99 139.927 550.448 139.797 549.938 139.641C549.427 139.484 549.016 139.307 548.703 139.109ZM581.547 120.75H575.109V140H571.391V120.75H564.969V117.594H581.547V120.75ZM588.641 140H584.812V117.594H588.641V140ZM603.406 140.375C600.177 140.375 597.589 139.328 595.641 137.234C593.703 135.141 592.734 132.417 592.734 129.062C592.734 125.458 593.724 122.583 595.703 120.438C597.682 118.292 600.37 117.219 603.766 117.219C606.911 117.219 609.443 118.26 611.359 120.344C613.286 122.427 614.25 125.151 614.25 128.516C614.25 132.172 613.266 135.062 611.297 137.188C609.328 139.312 606.698 140.375 603.406 140.375ZM603.578 120.484C601.526 120.484 599.854 121.25 598.562 122.781C597.281 124.312 596.641 126.328 596.641 128.828C596.641 131.318 597.266 133.323 598.516 134.844C599.766 136.365 601.401 137.125 603.422 137.125C605.568 137.125 607.26 136.401 608.5 134.953C609.74 133.505 610.359 131.479 610.359 128.875C610.359 126.198 609.755 124.13 608.547 122.672C607.349 121.214 605.693 120.484 603.578 120.484ZM637.359 140H633.297L622.594 123.531C622.323 123.115 622.099 122.682 621.922 122.234H621.828C621.911 122.714 621.953 123.74 621.953 125.312V140H618.359V117.594H622.688L633.031 133.672C633.469 134.339 633.75 134.797 633.875 135.047H633.938C633.833 134.453 633.781 133.448 633.781 132.031V117.594H637.359V140ZM641.891 139.109V135.281C642.234 135.594 642.641 135.875 643.109 136.125C643.589 136.375 644.094 136.589 644.625 136.766C645.156 136.932 645.688 137.062 646.219 137.156C646.75 137.25 647.24 137.297 647.688 137.297C649.25 137.297 650.411 137.036 651.172 136.516C651.943 135.995 652.328 135.24 652.328 134.25C652.328 133.719 652.198 133.26 651.938 132.875C651.688 132.479 651.333 132.12 650.875 131.797C650.417 131.474 649.875 131.167 649.25 130.875C648.635 130.573 647.974 130.26 647.266 129.938C646.505 129.531 645.797 129.12 645.141 128.703C644.484 128.286 643.911 127.828 643.422 127.328C642.943 126.818 642.562 126.245 642.281 125.609C642.01 124.974 641.875 124.229 641.875 123.375C641.875 122.323 642.109 121.411 642.578 120.641C643.057 119.859 643.682 119.219 644.453 118.719C645.234 118.208 646.12 117.833 647.109 117.594C648.099 117.344 649.109 117.219 650.141 117.219C652.484 117.219 654.193 117.484 655.266 118.016V121.688C653.995 120.771 652.359 120.312 650.359 120.312C649.807 120.312 649.255 120.365 648.703 120.469C648.161 120.573 647.672 120.745 647.234 120.984C646.807 121.224 646.458 121.531 646.188 121.906C645.917 122.281 645.781 122.734 645.781 123.266C645.781 123.766 645.885 124.198 646.094 124.562C646.302 124.927 646.604 125.26 647 125.562C647.406 125.865 647.896 126.161 648.469 126.453C649.052 126.734 649.724 127.042 650.484 127.375C651.266 127.781 652 128.208 652.688 128.656C653.385 129.104 653.995 129.599 654.516 130.141C655.047 130.682 655.464 131.286 655.766 131.953C656.078 132.609 656.234 133.359 656.234 134.203C656.234 135.339 656.005 136.297 655.547 137.078C655.089 137.859 654.469 138.495 653.688 138.984C652.917 139.474 652.026 139.828 651.016 140.047C650.005 140.266 648.938 140.375 647.812 140.375C647.438 140.375 646.974 140.344 646.422 140.281C645.88 140.229 645.323 140.146 644.75 140.031C644.177 139.927 643.635 139.797 643.125 139.641C642.615 139.484 642.203 139.307 641.891 139.109Z" fill="#222222"/>
<g filter="url(#filter0_d_24_65)">
<rect x="118" y="214" width="616" height="114" rx="8" fill="white"/>
</g>
<rect x="130" y="266" width="507" height="10" rx="5" fill="#EAEAEA"/>
<rect x="130" y="288" width="134" height="10" rx="5" fill="#EAEAEA"/>
<path d="M703.781 237.594H695.25V234.922H703.781V237.594Z" fill="#333333"/>
<path d="M143.371 234.197L140.685 244H138.846L136.979 237.144C136.902 236.852 136.854 236.533 136.836 236.187H136.809C136.786 236.51 136.731 236.825 136.645 237.13L134.771 244H132.892L130.15 234.197H131.935L133.712 241.375C133.785 241.676 133.83 241.99 133.849 242.318H133.883C133.901 242.086 133.965 241.771 134.074 241.375L136.084 234.197H137.759L139.618 241.43C139.682 241.676 139.73 241.967 139.762 242.305H139.789C139.803 242.077 139.855 241.776 139.946 241.402L141.689 234.197H143.371ZM150.774 244H149.188V240.172C149.188 238.786 148.726 238.094 147.801 238.094C147.336 238.094 146.944 238.294 146.625 238.695C146.306 239.096 146.146 239.609 146.146 240.233V244H144.554V233.637H146.146V238.162H146.174C146.702 237.278 147.459 236.836 148.443 236.836C149.997 236.836 150.774 237.786 150.774 239.687V244ZM158.075 244H156.537V242.906H156.51C156.027 243.745 155.318 244.164 154.384 244.164C153.696 244.164 153.156 243.977 152.764 243.604C152.376 243.23 152.183 242.735 152.183 242.12C152.183 240.799 152.944 240.028 154.466 239.81L156.544 239.516C156.544 238.518 156.07 238.019 155.122 238.019C154.288 238.019 153.536 238.306 152.866 238.88V237.492C153.604 237.055 154.457 236.836 155.423 236.836C157.191 236.836 158.075 237.706 158.075 239.447V244ZM156.544 240.562L155.074 240.767C154.618 240.826 154.274 240.938 154.042 241.102C153.814 241.261 153.7 241.544 153.7 241.949C153.7 242.245 153.805 242.489 154.015 242.681C154.229 242.868 154.514 242.961 154.869 242.961C155.352 242.961 155.751 242.792 156.065 242.455C156.384 242.113 156.544 241.685 156.544 241.17V240.562ZM163.708 243.925C163.398 244.08 162.99 244.157 162.484 244.157C161.126 244.157 160.447 243.506 160.447 242.202V238.244H159.278V237H160.447V235.38L162.033 234.929V237H163.708V238.244H162.033V241.744C162.033 242.159 162.108 242.455 162.259 242.633C162.409 242.811 162.66 242.899 163.011 242.899C163.28 242.899 163.512 242.822 163.708 242.667V243.925ZM169.73 235.53C169.471 235.53 169.247 235.446 169.061 235.277C168.878 235.109 168.787 234.895 168.787 234.635C168.787 234.375 168.878 234.159 169.061 233.985C169.247 233.812 169.471 233.726 169.73 233.726C169.999 233.726 170.227 233.812 170.414 233.985C170.601 234.159 170.694 234.375 170.694 234.635C170.694 234.881 170.601 235.093 170.414 235.271C170.227 235.444 169.999 235.53 169.73 235.53ZM170.517 244H168.931V237H170.517V244ZM172.157 243.781V242.312C172.75 242.763 173.404 242.988 174.119 242.988C175.076 242.988 175.555 242.706 175.555 242.141C175.555 241.981 175.514 241.847 175.432 241.737C175.35 241.623 175.238 241.523 175.097 241.437C174.96 241.35 174.796 241.272 174.604 241.204C174.418 241.136 174.208 241.058 173.976 240.972C173.688 240.858 173.429 240.737 173.196 240.609C172.968 240.482 172.777 240.338 172.622 240.179C172.472 240.015 172.358 239.83 172.28 239.625C172.203 239.42 172.164 239.181 172.164 238.907C172.164 238.57 172.244 238.274 172.403 238.019C172.563 237.759 172.777 237.542 173.046 237.369C173.315 237.191 173.62 237.059 173.962 236.973C174.304 236.882 174.657 236.836 175.021 236.836C175.669 236.836 176.247 236.934 176.758 237.13V238.518C176.266 238.18 175.701 238.012 175.062 238.012C174.862 238.012 174.68 238.032 174.516 238.073C174.356 238.114 174.219 238.171 174.105 238.244C173.992 238.317 173.903 238.406 173.839 238.511C173.775 238.611 173.743 238.723 173.743 238.846C173.743 238.996 173.775 239.124 173.839 239.229C173.903 239.333 173.996 239.427 174.119 239.509C174.247 239.586 174.397 239.659 174.57 239.728C174.748 239.791 174.951 239.862 175.179 239.939C175.479 240.062 175.748 240.188 175.985 240.315C176.227 240.443 176.432 240.589 176.601 240.753C176.769 240.912 176.899 241.099 176.99 241.313C177.081 241.523 177.127 241.774 177.127 242.065C177.127 242.421 177.045 242.731 176.881 242.995C176.717 243.259 176.498 243.478 176.225 243.651C175.951 243.825 175.634 243.952 175.274 244.034C174.919 244.121 174.543 244.164 174.146 244.164C173.381 244.164 172.718 244.036 172.157 243.781ZM187.962 235.578H184.298V238.524H187.675V239.898H184.298V244H182.671V234.197H187.962V235.578ZM196.917 244H195.133L194.251 241.505H190.396L189.548 244H187.771L191.441 234.197H193.273L196.917 244ZM193.82 240.179L192.46 236.269C192.419 236.141 192.376 235.936 192.33 235.653H192.303C192.262 235.913 192.216 236.118 192.166 236.269L190.819 240.179H193.82ZM202.311 244.164C201.604 244.164 200.964 244.043 200.39 243.802C199.815 243.56 199.326 243.223 198.92 242.79C198.514 242.353 198.2 241.831 197.977 241.225C197.753 240.618 197.642 239.949 197.642 239.215C197.642 238.431 197.753 237.72 197.977 237.082C198.204 236.444 198.526 235.899 198.94 235.448C199.36 234.997 199.868 234.648 200.465 234.402C201.062 234.156 201.729 234.033 202.468 234.033C203.151 234.033 203.776 234.154 204.341 234.396C204.906 234.637 205.389 234.977 205.79 235.414C206.191 235.847 206.501 236.367 206.72 236.973C206.943 237.579 207.055 238.246 207.055 238.976C207.055 239.942 206.893 240.789 206.569 241.519C206.246 242.243 205.79 242.826 205.202 243.269L208.046 245.319H205.571L203.821 243.959C203.589 244.023 203.347 244.073 203.097 244.109C202.846 244.146 202.584 244.164 202.311 244.164ZM202.386 235.462C201.939 235.462 201.529 235.551 201.155 235.729C200.786 235.902 200.467 236.15 200.198 236.474C199.929 236.793 199.72 237.175 199.569 237.622C199.424 238.069 199.351 238.565 199.351 239.112C199.351 239.655 199.421 240.149 199.562 240.596C199.708 241.042 199.911 241.425 200.171 241.744C200.431 242.059 200.743 242.305 201.107 242.482C201.472 242.656 201.875 242.742 202.317 242.742C202.787 242.742 203.208 242.66 203.582 242.496C203.956 242.332 204.272 242.097 204.532 241.792C204.797 241.482 204.999 241.104 205.141 240.657C205.282 240.211 205.353 239.702 205.353 239.133C205.353 238.549 205.284 238.03 205.147 237.574C205.011 237.118 204.815 236.736 204.56 236.426C204.304 236.111 203.992 235.872 203.623 235.708C203.258 235.544 202.846 235.462 202.386 235.462ZM213.569 241.231C213.528 241.118 213.492 240.969 213.46 240.787C213.428 240.605 213.412 240.425 213.412 240.247C213.412 239.969 213.467 239.718 213.576 239.495C213.69 239.267 213.829 239.055 213.993 238.859C214.162 238.663 214.342 238.474 214.533 238.292C214.729 238.11 214.909 237.932 215.073 237.759C215.242 237.586 215.381 237.403 215.49 237.212C215.604 237.021 215.661 236.811 215.661 236.583C215.661 236.378 215.62 236.2 215.538 236.05C215.456 235.895 215.342 235.767 215.196 235.667C215.055 235.562 214.891 235.485 214.704 235.435C214.522 235.384 214.326 235.359 214.116 235.359C213.437 235.359 212.79 235.662 212.175 236.269V234.689C212.922 234.252 213.697 234.033 214.499 234.033C214.868 234.033 215.217 234.081 215.545 234.177C215.873 234.272 216.16 234.414 216.406 234.601C216.652 234.787 216.846 235.02 216.987 235.298C217.129 235.576 217.199 235.899 217.199 236.269C217.199 236.619 217.14 236.932 217.021 237.205C216.903 237.479 216.753 237.731 216.57 237.964C216.393 238.192 216.199 238.395 215.989 238.572C215.784 238.75 215.59 238.928 215.408 239.105C215.23 239.283 215.082 239.468 214.964 239.659C214.845 239.851 214.786 240.062 214.786 240.295C214.786 240.491 214.811 240.669 214.861 240.828C214.911 240.988 214.962 241.122 215.012 241.231H213.569ZM214.349 244.123C214.089 244.123 213.859 244.034 213.658 243.856C213.467 243.683 213.371 243.469 213.371 243.214C213.371 242.954 213.467 242.74 213.658 242.571C213.854 242.389 214.084 242.298 214.349 242.298C214.608 242.298 214.836 242.389 215.032 242.571C215.224 242.74 215.319 242.954 215.319 243.214C215.319 243.469 215.224 243.683 215.032 243.856C214.832 244.034 214.604 244.123 214.349 244.123Z" fill="#333333"/>
<g filter="url(#filter1_d_24_65)">
<rect x="118" y="345" width="616" height="49" rx="8" fill="white"/>
</g>
<path d="M710.621 368.02H706.764V371.877H705.152V368.02H701.295V366.408H705.152V362.541H706.764V366.408H710.621V368.02Z" fill="#333333"/>
<path d="M143.371 365.197L140.685 375H138.846L136.979 368.144C136.902 367.852 136.854 367.533 136.836 367.187H136.809C136.786 367.51 136.731 367.825 136.645 368.13L134.771 375H132.892L130.15 365.197H131.935L133.712 372.375C133.785 372.676 133.83 372.99 133.849 373.318H133.883C133.901 373.086 133.965 372.771 134.074 372.375L136.084 365.197H137.759L139.618 372.43C139.682 372.676 139.73 372.967 139.762 373.305H139.789C139.803 373.077 139.855 372.776 139.946 372.402L141.689 365.197H143.371ZM150.774 375H149.188V371.172C149.188 369.786 148.726 369.094 147.801 369.094C147.336 369.094 146.944 369.294 146.625 369.695C146.306 370.096 146.146 370.609 146.146 371.233V375H144.554V364.637H146.146V369.162H146.174C146.702 368.278 147.459 367.836 148.443 367.836C149.997 367.836 150.774 368.786 150.774 370.687V375ZM158.075 375H156.537V373.906H156.51C156.027 374.745 155.318 375.164 154.384 375.164C153.696 375.164 153.156 374.977 152.764 374.604C152.376 374.23 152.183 373.735 152.183 373.12C152.183 371.799 152.944 371.028 154.466 370.81L156.544 370.516C156.544 369.518 156.07 369.019 155.122 369.019C154.288 369.019 153.536 369.306 152.866 369.88V368.492C153.604 368.055 154.457 367.836 155.423 367.836C157.191 367.836 158.075 368.706 158.075 370.447V375ZM156.544 371.562L155.074 371.767C154.618 371.826 154.274 371.938 154.042 372.102C153.814 372.261 153.7 372.544 153.7 372.949C153.7 373.245 153.805 373.489 154.015 373.681C154.229 373.868 154.514 373.961 154.869 373.961C155.352 373.961 155.751 373.792 156.065 373.455C156.384 373.113 156.544 372.685 156.544 372.17V371.562ZM163.708 374.925C163.398 375.08 162.99 375.157 162.484 375.157C161.126 375.157 160.447 374.506 160.447 373.202V369.244H159.278V368H160.447V366.38L162.033 365.929V368H163.708V369.244H162.033V372.744C162.033 373.159 162.108 373.455 162.259 373.633C162.409 373.811 162.66 373.899 163.011 373.899C163.28 373.899 163.512 373.822 163.708 373.667V374.925ZM169.73 366.53C169.471 366.53 169.247 366.446 169.061 366.277C168.878 366.109 168.787 365.895 168.787 365.635C168.787 365.375 168.878 365.159 169.061 364.985C169.247 364.812 169.471 364.726 169.73 364.726C169.999 364.726 170.227 364.812 170.414 364.985C170.601 365.159 170.694 365.375 170.694 365.635C170.694 365.881 170.601 366.093 170.414 366.271C170.227 366.444 169.999 366.53 169.73 366.53ZM170.517 375H168.931V368H170.517V375ZM172.157 374.781V373.312C172.75 373.763 173.404 373.988 174.119 373.988C175.076 373.988 175.555 373.706 175.555 373.141C175.555 372.981 175.514 372.847 175.432 372.737C175.35 372.623 175.238 372.523 175.097 372.437C174.96 372.35 174.796 372.272 174.604 372.204C174.418 372.136 174.208 372.058 173.976 371.972C173.688 371.858 173.429 371.737 173.196 371.609C172.968 371.482 172.777 371.338 172.622 371.179C172.472 371.015 172.358 370.83 172.28 370.625C172.203 370.42 172.164 370.181 172.164 369.907C172.164 369.57 172.244 369.274 172.403 369.019C172.563 368.759 172.777 368.542 173.046 368.369C173.315 368.191 173.62 368.059 173.962 367.973C174.304 367.882 174.657 367.836 175.021 367.836C175.669 367.836 176.247 367.934 176.758 368.13V369.518C176.266 369.18 175.701 369.012 175.062 369.012C174.862 369.012 174.68 369.032 174.516 369.073C174.356 369.114 174.219 369.171 174.105 369.244C173.992 369.317 173.903 369.406 173.839 369.511C173.775 369.611 173.743 369.723 173.743 369.846C173.743 369.996 173.775 370.124 173.839 370.229C173.903 370.333 173.996 370.427 174.119 370.509C174.247 370.586 174.397 370.659 174.57 370.728C174.748 370.791 174.951 370.862 175.179 370.939C175.479 371.062 175.748 371.188 175.985 371.315C176.227 371.443 176.432 371.589 176.601 371.753C176.769 371.912 176.899 372.099 176.99 372.313C177.081 372.523 177.127 372.774 177.127 373.065C177.127 373.421 177.045 373.731 176.881 373.995C176.717 374.259 176.498 374.478 176.225 374.651C175.951 374.825 175.634 374.952 175.274 375.034C174.919 375.121 174.543 375.164 174.146 375.164C173.381 375.164 172.718 375.036 172.157 374.781ZM186.185 374.925C185.875 375.08 185.467 375.157 184.961 375.157C183.603 375.157 182.924 374.506 182.924 373.202V369.244H181.755V368H182.924V366.38L184.51 365.929V368H186.185V369.244H184.51V372.744C184.51 373.159 184.585 373.455 184.735 373.633C184.886 373.811 185.136 373.899 185.487 373.899C185.756 373.899 185.989 373.822 186.185 373.667V374.925ZM192.925 375H191.387V373.906H191.359C190.876 374.745 190.168 375.164 189.233 375.164C188.545 375.164 188.005 374.977 187.613 374.604C187.226 374.23 187.032 373.735 187.032 373.12C187.032 371.799 187.793 371.028 189.315 370.81L191.394 370.516C191.394 369.518 190.92 369.019 189.972 369.019C189.138 369.019 188.386 369.306 187.716 369.88V368.492C188.454 368.055 189.306 367.836 190.272 367.836C192.041 367.836 192.925 368.706 192.925 370.447V375ZM191.394 371.562L189.924 371.767C189.468 371.826 189.124 371.938 188.892 372.102C188.664 372.261 188.55 372.544 188.55 372.949C188.55 373.245 188.655 373.489 188.864 373.681C189.078 373.868 189.363 373.961 189.719 373.961C190.202 373.961 190.601 373.792 190.915 373.455C191.234 373.113 191.394 372.685 191.394 372.17V371.562ZM199.877 374.679C199.316 375.002 198.653 375.164 197.888 375.164C196.849 375.164 196.01 374.84 195.372 374.193C194.734 373.542 194.415 372.699 194.415 371.664C194.415 370.511 194.757 369.586 195.44 368.889C196.129 368.187 197.047 367.836 198.195 367.836C198.833 367.836 199.396 367.948 199.884 368.171V369.647C199.396 369.283 198.877 369.101 198.325 369.101C197.655 369.101 197.106 369.328 196.678 369.784C196.249 370.235 196.035 370.828 196.035 371.562C196.035 372.286 196.236 372.858 196.637 373.277C197.042 373.697 197.585 373.906 198.264 373.906C198.833 373.906 199.371 373.703 199.877 373.298V374.679ZM204.56 375.164C203.479 375.164 202.616 374.838 201.969 374.187C201.326 373.53 201.005 372.662 201.005 371.582C201.005 370.406 201.34 369.488 202.01 368.827C202.684 368.166 203.591 367.836 204.73 367.836C205.824 367.836 206.676 368.157 207.287 368.8C207.898 369.442 208.203 370.333 208.203 371.473C208.203 372.589 207.873 373.485 207.212 374.159C206.556 374.829 205.672 375.164 204.56 375.164ZM204.635 369.101C204.015 369.101 203.525 369.317 203.165 369.75C202.805 370.183 202.625 370.78 202.625 371.541C202.625 372.275 202.807 372.854 203.172 373.277C203.536 373.697 204.024 373.906 204.635 373.906C205.259 373.906 205.738 373.699 206.07 373.284C206.408 372.869 206.576 372.279 206.576 371.514C206.576 370.743 206.408 370.149 206.07 369.729C205.738 369.31 205.259 369.101 204.635 369.101ZM214.718 372.231C214.677 372.118 214.64 371.969 214.608 371.787C214.576 371.605 214.561 371.425 214.561 371.247C214.561 370.969 214.615 370.718 214.725 370.495C214.839 370.267 214.978 370.055 215.142 369.859C215.31 369.663 215.49 369.474 215.682 369.292C215.878 369.11 216.058 368.932 216.222 368.759C216.39 368.586 216.529 368.403 216.639 368.212C216.753 368.021 216.81 367.811 216.81 367.583C216.81 367.378 216.769 367.2 216.687 367.05C216.604 366.895 216.491 366.767 216.345 366.667C216.203 366.562 216.039 366.485 215.853 366.435C215.67 366.384 215.474 366.359 215.265 366.359C214.586 366.359 213.938 366.662 213.323 367.269V365.689C214.071 365.252 214.845 365.033 215.647 365.033C216.017 365.033 216.365 365.081 216.693 365.177C217.021 365.272 217.309 365.414 217.555 365.601C217.801 365.787 217.994 366.02 218.136 366.298C218.277 366.576 218.348 366.899 218.348 367.269C218.348 367.619 218.288 367.932 218.17 368.205C218.051 368.479 217.901 368.731 217.719 368.964C217.541 369.192 217.347 369.395 217.138 369.572C216.933 369.75 216.739 369.928 216.557 370.105C216.379 370.283 216.231 370.468 216.112 370.659C215.994 370.851 215.935 371.062 215.935 371.295C215.935 371.491 215.96 371.669 216.01 371.828C216.06 371.988 216.11 372.122 216.16 372.231H214.718ZM215.497 375.123C215.237 375.123 215.007 375.034 214.807 374.856C214.615 374.683 214.52 374.469 214.52 374.214C214.52 373.954 214.615 373.74 214.807 373.571C215.003 373.389 215.233 373.298 215.497 373.298C215.757 373.298 215.985 373.389 216.181 373.571C216.372 373.74 216.468 373.954 216.468 374.214C216.468 374.469 216.372 374.683 216.181 374.856C215.98 375.034 215.752 375.123 215.497 375.123Z" fill="#333333"/>
<g filter="url(#filter2_d_24_65)">
<rect x="118" y="420" width="616" height="49" rx="8" fill="white"/>
</g>
<path d="M710.621 443.02H706.764V446.877H705.152V443.02H701.295V441.408H705.152V437.541H706.764V441.408H710.621V443.02Z" fill="#333333"/>
<path d="M131.832 441.53C131.572 441.53 131.349 441.446 131.162 441.277C130.98 441.109 130.889 440.895 130.889 440.635C130.889 440.375 130.98 440.159 131.162 439.985C131.349 439.812 131.572 439.726 131.832 439.726C132.101 439.726 132.329 439.812 132.516 439.985C132.702 440.159 132.796 440.375 132.796 440.635C132.796 440.881 132.702 441.093 132.516 441.271C132.329 441.444 132.101 441.53 131.832 441.53ZM132.618 450H131.032V443H132.618V450ZM134.259 449.781V448.312C134.851 448.763 135.505 448.988 136.221 448.988C137.178 448.988 137.656 448.706 137.656 448.141C137.656 447.981 137.615 447.847 137.533 447.737C137.451 447.623 137.34 447.523 137.198 447.437C137.062 447.35 136.897 447.272 136.706 447.204C136.519 447.136 136.31 447.058 136.077 446.972C135.79 446.858 135.53 446.737 135.298 446.609C135.07 446.482 134.879 446.338 134.724 446.179C134.573 446.015 134.459 445.83 134.382 445.625C134.304 445.42 134.266 445.181 134.266 444.907C134.266 444.57 134.345 444.274 134.505 444.019C134.664 443.759 134.879 443.542 135.147 443.369C135.416 443.191 135.722 443.059 136.063 442.973C136.405 442.882 136.758 442.836 137.123 442.836C137.77 442.836 138.349 442.934 138.859 443.13V444.518C138.367 444.18 137.802 444.012 137.164 444.012C136.964 444.012 136.781 444.032 136.617 444.073C136.458 444.114 136.321 444.171 136.207 444.244C136.093 444.317 136.004 444.406 135.94 444.511C135.877 444.611 135.845 444.723 135.845 444.846C135.845 444.996 135.877 445.124 135.94 445.229C136.004 445.333 136.098 445.427 136.221 445.509C136.348 445.586 136.499 445.659 136.672 445.728C136.85 445.791 137.052 445.862 137.28 445.939C137.581 446.062 137.85 446.188 138.087 446.315C138.328 446.443 138.534 446.589 138.702 446.753C138.871 446.912 139.001 447.099 139.092 447.313C139.183 447.523 139.229 447.774 139.229 448.065C139.229 448.421 139.146 448.731 138.982 448.995C138.818 449.259 138.6 449.478 138.326 449.651C138.053 449.825 137.736 449.952 137.376 450.034C137.021 450.121 136.645 450.164 136.248 450.164C135.482 450.164 134.819 450.036 134.259 449.781ZM145.395 441.53C145.135 441.53 144.911 441.446 144.725 441.277C144.542 441.109 144.451 440.895 144.451 440.635C144.451 440.375 144.542 440.159 144.725 439.985C144.911 439.812 145.135 439.726 145.395 439.726C145.663 439.726 145.891 439.812 146.078 439.985C146.265 440.159 146.358 440.375 146.358 440.635C146.358 440.881 146.265 441.093 146.078 441.271C145.891 441.444 145.663 441.53 145.395 441.53ZM146.181 450H144.595V443H146.181V450ZM151.95 449.925C151.64 450.08 151.232 450.157 150.727 450.157C149.368 450.157 148.689 449.506 148.689 448.202V444.244H147.521V443H148.689V441.38L150.275 440.929V443H151.95V444.244H150.275V447.744C150.275 448.159 150.351 448.455 150.501 448.633C150.651 448.811 150.902 448.899 151.253 448.899C151.522 448.899 151.754 448.822 151.95 448.667V449.925ZM161.131 440.929C160.917 440.806 160.673 440.744 160.399 440.744C159.629 440.744 159.244 441.179 159.244 442.05V443H160.871V444.244H159.251V450H157.665V444.244H156.469V443H157.665V441.865C157.665 441.127 157.907 440.546 158.39 440.122C158.873 439.694 159.477 439.479 160.201 439.479C160.593 439.479 160.903 439.523 161.131 439.609V440.929ZM166.06 444.511C165.868 444.36 165.592 444.285 165.232 444.285C164.763 444.285 164.371 444.497 164.057 444.921C163.742 445.345 163.585 445.921 163.585 446.65V450H161.999V443H163.585V444.442H163.612C163.767 443.95 164.004 443.567 164.323 443.294C164.647 443.016 165.007 442.877 165.403 442.877C165.69 442.877 165.909 442.92 166.06 443.007V444.511ZM172.984 446.931H168.213C168.231 447.578 168.429 448.077 168.808 448.428C169.19 448.779 169.715 448.954 170.38 448.954C171.127 448.954 171.813 448.731 172.438 448.284V449.562C171.799 449.964 170.956 450.164 169.908 450.164C168.878 450.164 168.069 449.847 167.481 449.214C166.898 448.576 166.606 447.68 166.606 446.527C166.606 445.438 166.928 444.552 167.57 443.868C168.217 443.18 169.02 442.836 169.977 442.836C170.934 442.836 171.674 443.144 172.198 443.759C172.722 444.374 172.984 445.229 172.984 446.322V446.931ZM171.453 445.81C171.449 445.24 171.314 444.798 171.05 444.483C170.785 444.164 170.421 444.005 169.956 444.005C169.5 444.005 169.113 444.171 168.794 444.504C168.479 444.837 168.286 445.272 168.213 445.81H171.453ZM180.422 446.931H175.65C175.669 447.578 175.867 448.077 176.245 448.428C176.628 448.779 177.152 448.954 177.817 448.954C178.565 448.954 179.251 448.731 179.875 448.284V449.562C179.237 449.964 178.394 450.164 177.346 450.164C176.316 450.164 175.507 449.847 174.919 449.214C174.336 448.576 174.044 447.68 174.044 446.527C174.044 445.438 174.365 444.552 175.008 443.868C175.655 443.18 176.457 442.836 177.414 442.836C178.371 442.836 179.112 443.144 179.636 443.759C180.16 444.374 180.422 445.229 180.422 446.322V446.931ZM178.891 445.81C178.886 445.24 178.752 444.798 178.487 444.483C178.223 444.164 177.858 444.005 177.394 444.005C176.938 444.005 176.55 444.171 176.231 444.504C175.917 444.837 175.723 445.272 175.65 445.81H178.891ZM186.827 447.231C186.786 447.118 186.75 446.969 186.718 446.787C186.686 446.605 186.67 446.425 186.67 446.247C186.67 445.969 186.725 445.718 186.834 445.495C186.948 445.267 187.087 445.055 187.251 444.859C187.42 444.663 187.6 444.474 187.791 444.292C187.987 444.11 188.167 443.932 188.331 443.759C188.5 443.586 188.639 443.403 188.748 443.212C188.862 443.021 188.919 442.811 188.919 442.583C188.919 442.378 188.878 442.2 188.796 442.05C188.714 441.895 188.6 441.767 188.454 441.667C188.313 441.562 188.149 441.485 187.962 441.435C187.78 441.384 187.584 441.359 187.374 441.359C186.695 441.359 186.048 441.662 185.433 442.269V440.689C186.18 440.252 186.955 440.033 187.757 440.033C188.126 440.033 188.475 440.081 188.803 440.177C189.131 440.272 189.418 440.414 189.664 440.601C189.91 440.787 190.104 441.02 190.245 441.298C190.386 441.576 190.457 441.899 190.457 442.269C190.457 442.619 190.398 442.932 190.279 443.205C190.161 443.479 190.01 443.731 189.828 443.964C189.65 444.192 189.457 444.395 189.247 444.572C189.042 444.75 188.848 444.928 188.666 445.105C188.488 445.283 188.34 445.468 188.222 445.659C188.103 445.851 188.044 446.062 188.044 446.295C188.044 446.491 188.069 446.669 188.119 446.828C188.169 446.988 188.219 447.122 188.27 447.231H186.827ZM187.606 450.123C187.347 450.123 187.117 450.034 186.916 449.856C186.725 449.683 186.629 449.469 186.629 449.214C186.629 448.954 186.725 448.74 186.916 448.571C187.112 448.389 187.342 448.298 187.606 448.298C187.866 448.298 188.094 448.389 188.29 448.571C188.481 448.74 188.577 448.954 188.577 449.214C188.577 449.469 188.481 449.683 188.29 449.856C188.09 450.034 187.862 450.123 187.606 450.123Z" fill="#333333"/>
<defs>
<filter id="filter0_d_24_65" x="114" y="210" width="624" height="122" filterUnits="userSpaceOnUse" color-interpolation-filters="sRGB">
<feFlood flood-opacity="0" result="BackgroundImageFix"/>
<feColorMatrix in="SourceAlpha" type="matrix" values="0 0 0 0 0 0 0 0 0 0 0 0 0 0 0 0 0 0 127 0" result="hardAlpha"/>
<feOffset/>
<feGaussianBlur stdDeviation="2"/>
<feComposite in2="hardAlpha" operator="out"/>
<feColorMatrix type="matrix" values="0 0 0 0 0 0 0 0 0 0 0 0 0 0 0 0 0 0 0.25 0"/>
<feBlend mode="normal" in2="BackgroundImageFix" result="effect1_dropShadow_24_65"/>
<feBlend mode="normal" in="SourceGraphic" in2="effect1_dropShadow_24_65" result="shape"/>
</filter>
<filter id="filter1_d_24_65" x="114" y="341" width="624" height="57" filterUnits="userSpaceOnUse" color-interpolation-filters="sRGB">
<feFlood flood-opacity="0" result="BackgroundImageFix"/>
<feColorMatrix in="SourceAlpha" type="matrix" values="0 0 0 0 0 0 0 0 0 0 0 0 0 0 0 0 0 0 127 0" result="hardAlpha"/>
<feOffset/>
<feGaussianBlur stdDeviation="2"/>
<feComposite in2="hardAlpha" operator="out"/>
<feColorMatrix type="matrix" values="0 0 0 0 0 0 0 0 0 0 0 0 0 0 0 0 0 0 0.25 0"/>
<feBlend mode="normal" in2="BackgroundImageFix" result="effect1_dropShadow_24_65"/>
<feBlend mode="normal" in="SourceGraphic" in2="effect1_dropShadow_24_65" result="shape"/>
</filter>
<filter id="filter2_d_24_65" x="114" y="416" width="624" height="57" filterUnits="userSpaceOnUse" color-interpolation-filters="sRGB">
<feFlood flood-opacity="0" result="BackgroundImageFix"/>
<feColorMatrix in="SourceAlpha" type="matrix" values="0 0 0 0 0 0 0 0 0 0 0 0 0 0 0 0 0 0 127 0" result="hardAlpha"/>
<feOffset/>
<feGaussianBlur stdDeviation="2"/>
<feComposite in2="hardAlpha" operator="out"/>
<feColorMatrix type="matrix" values="0 0 0 0 0 0 0 0 0 0 0 0 0 0 0 0 0 0 0.25 0"/>
<feBlend mode="normal" in2="BackgroundImageFix" result="effect1_dropShadow_24_65"/>
<feBlend mode="normal" in="SourceGraphic" in2="effect1_dropShadow_24_65" result="shape"/>
</filter>
</defs>
</svg>
