<svg width="852" height="615" viewBox="0 0 852 615" fill="none" xmlns="http://www.w3.org/2000/svg">
<g filter="url(#filter0_d_22_20)">
<path d="M365.727 158.971V225.182H378.324V242.467H365.727V264H344.633V242.467H298.856V224.376C302.909 219.835 307.108 214.879 311.454 209.508C315.8 204.088 319.999 198.521 324.052 192.809C328.104 187.096 331.864 181.358 335.331 175.597C338.847 169.786 341.825 164.244 344.267 158.971H365.727ZM319.584 225.182H344.633V188.487C342.924 191.661 341.068 194.884 339.066 198.155C337.064 201.378 334.965 204.576 332.768 207.75C330.57 210.875 328.349 213.927 326.103 216.905C323.856 219.835 321.684 222.594 319.584 225.182ZM424.833 265.831C399.833 265.831 387.333 248.277 387.333 213.17C387.333 194.957 390.702 181.09 397.44 171.568C404.228 161.998 414.042 157.213 426.884 157.213C451.298 157.213 463.505 175.06 463.505 210.753C463.505 228.526 460.16 242.149 453.471 251.622C446.83 261.095 437.284 265.831 424.833 265.831ZM425.858 174.864C415.849 174.864 410.844 187.438 410.844 212.584C410.844 236.266 415.751 248.106 425.565 248.106C435.136 248.106 439.921 235.899 439.921 211.485C439.921 187.071 435.233 174.864 425.858 174.864ZM538.285 158.971V225.182H550.883V242.467H538.285V264H517.191V242.467H471.415V224.376C475.468 219.835 479.667 214.879 484.013 209.508C488.358 204.088 492.558 198.521 496.61 192.809C500.663 187.096 504.423 181.358 507.89 175.597C511.405 169.786 514.384 164.244 516.825 158.971H538.285ZM492.143 225.182H517.191V188.487C515.482 191.661 513.627 194.884 511.625 198.155C509.623 201.378 507.523 204.576 505.326 207.75C503.129 210.875 500.907 213.927 498.661 216.905C496.415 219.835 494.242 222.594 492.143 225.182Z" fill="white"/>
</g>
<g filter="url(#filter1_d_22_20)">
<rect x="376" y="379" width="100" height="39" rx="7" fill="white"/>
</g>
<rect x="404" y="395" width="44" height="7" rx="3.5" fill="#D9D9D9"/>
<rect x="333" y="308" width="185" height="12" rx="6" fill="#D9D9D9"/>
<defs>
<filter id="filter0_d_22_20" x="294.856" y="157.213" width="260.026" height="116.618" filterUnits="userSpaceOnUse" color-interpolation-filters="sRGB">
<feFlood flood-opacity="0" result="BackgroundImageFix"/>
<feColorMatrix in="SourceAlpha" type="matrix" values="0 0 0 0 0 0 0 0 0 0 0 0 0 0 0 0 0 0 127 0" result="hardAlpha"/>
<feOffset dy="4"/>
<feGaussianBlur stdDeviation="2"/>
<feComposite in2="hardAlpha" operator="out"/>
<feColorMatrix type="matrix" values="0 0 0 0 0 0 0 0 0 0 0 0 0 0 0 0 0 0 0.25 0"/>
<feBlend mode="normal" in2="BackgroundImageFix" result="effect1_dropShadow_22_20"/>
<feBlend mode="normal" in="SourceGraphic" in2="effect1_dropShadow_22_20" result="shape"/>
</filter>
<filter id="filter1_d_22_20" x="372" y="379" width="108" height="47" filterUnits="userSpaceOnUse" color-interpolation-filters="sRGB">
<feFlood flood-opacity="0" result="BackgroundImageFix"/>
<feColorMatrix in="SourceAlpha" type="matrix" values="0 0 0 0 0 0 0 0 0 0 0 0 0 0 0 0 0 0 127 0" result="hardAlpha"/>
<feOffset dy="4"/>
<feGaussianBlur stdDeviation="2"/>
<feComposite in2="hardAlpha" operator="out"/>
<feColorMatrix type="matrix" values="0 0 0 0 0 0 0 0 0 0 0 0 0 0 0 0 0 0 0.25 0"/>
<feBlend mode="normal" in2="BackgroundImageFix" result="effect1_dropShadow_22_20"/>
<feBlend mode="normal" in="SourceGraphic" in2="effect1_dropShadow_22_20" result="shape"/>
</filter>
</defs>
</svg>
