<svg width="874" height="615" viewBox="0 0 874 615" fill="none" xmlns="http://www.w3.org/2000/svg">
<path d="M265.609 172.141V167.141C266.516 167.901 267.5 168.474 268.562 168.859C269.625 169.234 270.698 169.422 271.781 169.422C272.417 169.422 272.969 169.365 273.438 169.25C273.917 169.135 274.312 168.979 274.625 168.781C274.948 168.573 275.188 168.333 275.344 168.062C275.5 167.781 275.578 167.479 275.578 167.156C275.578 166.719 275.453 166.328 275.203 165.984C274.953 165.641 274.609 165.323 274.172 165.031C273.745 164.74 273.234 164.458 272.641 164.188C272.047 163.917 271.406 163.641 270.719 163.359C268.969 162.63 267.661 161.74 266.797 160.688C265.943 159.635 265.516 158.365 265.516 156.875C265.516 155.708 265.75 154.708 266.219 153.875C266.688 153.031 267.323 152.339 268.125 151.797C268.938 151.255 269.875 150.859 270.938 150.609C272 150.349 273.125 150.219 274.312 150.219C275.479 150.219 276.51 150.292 277.406 150.438C278.312 150.573 279.146 150.786 279.906 151.078V155.75C279.531 155.49 279.12 155.26 278.672 155.062C278.234 154.865 277.781 154.703 277.312 154.578C276.844 154.443 276.375 154.344 275.906 154.281C275.448 154.219 275.01 154.188 274.594 154.188C274.021 154.188 273.5 154.245 273.031 154.359C272.562 154.464 272.167 154.615 271.844 154.812C271.521 155.01 271.271 155.25 271.094 155.531C270.917 155.802 270.828 156.109 270.828 156.453C270.828 156.828 270.927 157.167 271.125 157.469C271.323 157.76 271.604 158.042 271.969 158.312C272.333 158.573 272.776 158.833 273.297 159.094C273.818 159.344 274.406 159.604 275.062 159.875C275.958 160.25 276.76 160.651 277.469 161.078C278.188 161.495 278.802 161.969 279.312 162.5C279.823 163.031 280.214 163.641 280.484 164.328C280.755 165.005 280.891 165.797 280.891 166.703C280.891 167.953 280.651 169.005 280.172 169.859C279.703 170.703 279.062 171.391 278.25 171.922C277.438 172.443 276.49 172.818 275.406 173.047C274.333 173.276 273.198 173.391 272 173.391C270.771 173.391 269.599 173.286 268.484 173.078C267.38 172.87 266.422 172.557 265.609 172.141ZM299.297 173H294.375V170.562H294.297C293.078 172.448 291.448 173.391 289.406 173.391C285.698 173.391 283.844 171.146 283.844 166.656V157H288.766V166.219C288.766 168.479 289.661 169.609 291.453 169.609C292.339 169.609 293.047 169.302 293.578 168.688C294.109 168.062 294.375 167.219 294.375 166.156V157H299.297V173ZM308.469 171.141H308.406V173H303.469V149.312H308.406V159.406H308.469C309.688 157.542 311.422 156.609 313.672 156.609C315.734 156.609 317.323 157.318 318.438 158.734C319.552 160.151 320.109 162.089 320.109 164.547C320.109 167.214 319.458 169.354 318.156 170.969C316.854 172.583 315.115 173.391 312.938 173.391C310.969 173.391 309.479 172.641 308.469 171.141ZM308.328 164.391V166.031C308.328 167.062 308.625 167.917 309.219 168.594C309.812 169.271 310.573 169.609 311.5 169.609C312.625 169.609 313.495 169.177 314.109 168.312C314.734 167.438 315.047 166.203 315.047 164.609C315.047 163.286 314.76 162.255 314.188 161.516C313.625 160.766 312.818 160.391 311.766 160.391C310.776 160.391 309.953 160.76 309.297 161.5C308.651 162.24 308.328 163.203 308.328 164.391ZM322.266 172.578V168.578C323.078 169.068 323.885 169.432 324.688 169.672C325.5 169.911 326.266 170.031 326.984 170.031C327.859 170.031 328.547 169.911 329.047 169.672C329.557 169.432 329.812 169.068 329.812 168.578C329.812 168.266 329.698 168.005 329.469 167.797C329.24 167.589 328.943 167.406 328.578 167.25C328.224 167.094 327.833 166.953 327.406 166.828C326.979 166.703 326.568 166.562 326.172 166.406C325.536 166.167 324.974 165.911 324.484 165.641C324.005 165.359 323.599 165.036 323.266 164.672C322.943 164.307 322.693 163.885 322.516 163.406C322.349 162.927 322.266 162.359 322.266 161.703C322.266 160.807 322.458 160.036 322.844 159.391C323.24 158.745 323.76 158.219 324.406 157.812C325.062 157.396 325.807 157.094 326.641 156.906C327.484 156.708 328.359 156.609 329.266 156.609C329.974 156.609 330.693 156.667 331.422 156.781C332.151 156.885 332.87 157.042 333.578 157.25V161.062C332.953 160.698 332.281 160.427 331.562 160.25C330.854 160.062 330.156 159.969 329.469 159.969C329.146 159.969 328.839 160 328.547 160.062C328.266 160.115 328.016 160.198 327.797 160.312C327.578 160.417 327.406 160.557 327.281 160.734C327.156 160.901 327.094 161.094 327.094 161.312C327.094 161.604 327.188 161.854 327.375 162.062C327.562 162.271 327.807 162.453 328.109 162.609C328.411 162.755 328.745 162.891 329.109 163.016C329.484 163.13 329.854 163.25 330.219 163.375C330.875 163.604 331.469 163.854 332 164.125C332.531 164.396 332.984 164.714 333.359 165.078C333.745 165.443 334.036 165.87 334.234 166.359C334.443 166.849 334.547 167.432 334.547 168.109C334.547 169.057 334.339 169.87 333.922 170.547C333.516 171.214 332.969 171.76 332.281 172.188C331.604 172.604 330.818 172.906 329.922 173.094C329.036 173.292 328.115 173.391 327.156 173.391C325.396 173.391 323.766 173.12 322.266 172.578ZM349.531 172.422C348.417 173.068 346.807 173.391 344.703 173.391C342.245 173.391 340.255 172.646 338.734 171.156C337.214 169.667 336.453 167.745 336.453 165.391C336.453 162.672 337.266 160.531 338.891 158.969C340.526 157.396 342.708 156.609 345.438 156.609C347.323 156.609 348.688 156.859 349.531 157.359V161.547C348.5 160.776 347.349 160.391 346.078 160.391C344.661 160.391 343.536 160.807 342.703 161.641C341.88 162.464 341.469 163.604 341.469 165.062C341.469 166.479 341.865 167.594 342.656 168.406C343.448 169.208 344.536 169.609 345.922 169.609C347.151 169.609 348.354 169.224 349.531 168.453V172.422ZM363.219 161.453C362.625 161.13 361.932 160.969 361.141 160.969C360.068 160.969 359.229 161.365 358.625 162.156C358.021 162.938 357.719 164.005 357.719 165.359V173H352.781V157H357.719V159.969H357.781C358.562 157.802 359.969 156.719 362 156.719C362.521 156.719 362.927 156.781 363.219 156.906V161.453ZM368.156 154.469C367.323 154.469 366.641 154.224 366.109 153.734C365.578 153.234 365.312 152.625 365.312 151.906C365.312 151.167 365.578 150.562 366.109 150.094C366.641 149.625 367.323 149.391 368.156 149.391C369 149.391 369.682 149.625 370.203 150.094C370.734 150.562 371 151.167 371 151.906C371 152.656 370.734 153.271 370.203 153.75C369.682 154.229 369 154.469 368.156 154.469ZM370.594 173H365.656V157H370.594V173ZM379.75 171.141H379.688V173H374.75V149.312H379.688V159.406H379.75C380.969 157.542 382.703 156.609 384.953 156.609C387.016 156.609 388.604 157.318 389.719 158.734C390.833 160.151 391.391 162.089 391.391 164.547C391.391 167.214 390.74 169.354 389.438 170.969C388.135 172.583 386.396 173.391 384.219 173.391C382.25 173.391 380.76 172.641 379.75 171.141ZM379.609 164.391V166.031C379.609 167.062 379.906 167.917 380.5 168.594C381.094 169.271 381.854 169.609 382.781 169.609C383.906 169.609 384.776 169.177 385.391 168.312C386.016 167.438 386.328 166.203 386.328 164.609C386.328 163.286 386.042 162.255 385.469 161.516C384.906 160.766 384.099 160.391 383.047 160.391C382.057 160.391 381.234 160.76 380.578 161.5C379.932 162.24 379.609 163.203 379.609 164.391ZM408.969 166.406H398.531C398.698 168.729 400.161 169.891 402.922 169.891C404.682 169.891 406.229 169.474 407.562 168.641V172.203C406.083 172.995 404.161 173.391 401.797 173.391C399.214 173.391 397.208 172.677 395.781 171.25C394.354 169.812 393.641 167.812 393.641 165.25C393.641 162.594 394.411 160.49 395.953 158.938C397.495 157.385 399.391 156.609 401.641 156.609C403.974 156.609 405.776 157.302 407.047 158.688C408.328 160.073 408.969 161.953 408.969 164.328V166.406ZM404.391 163.375C404.391 161.083 403.464 159.938 401.609 159.938C400.818 159.938 400.13 160.266 399.547 160.922C398.974 161.578 398.625 162.396 398.5 163.375H404.391ZM430.422 172.812C429.693 173.198 428.594 173.391 427.125 173.391C423.646 173.391 421.906 171.583 421.906 167.969V160.641H419.312V157H421.906V153.547L426.828 152.141V157H430.422V160.641H426.828V167.109C426.828 168.776 427.49 169.609 428.812 169.609C429.333 169.609 429.87 169.458 430.422 169.156V172.812ZM440.719 173.391C438.052 173.391 435.953 172.646 434.422 171.156C432.901 169.656 432.141 167.625 432.141 165.062C432.141 162.417 432.932 160.349 434.516 158.859C436.099 157.359 438.24 156.609 440.938 156.609C443.594 156.609 445.677 157.359 447.188 158.859C448.698 160.349 449.453 162.323 449.453 164.781C449.453 167.438 448.672 169.536 447.109 171.078C445.557 172.62 443.427 173.391 440.719 173.391ZM440.844 160.391C439.677 160.391 438.771 160.792 438.125 161.594C437.479 162.396 437.156 163.531 437.156 165C437.156 168.073 438.396 169.609 440.875 169.609C443.24 169.609 444.422 168.031 444.422 164.875C444.422 161.885 443.229 160.391 440.844 160.391ZM482.141 173H477.047L467.812 158.922C467.271 158.099 466.896 157.479 466.688 157.062H466.625C466.708 157.854 466.75 159.062 466.75 160.688V173H461.984V150.594H467.422L476.312 164.234C476.719 164.849 477.094 165.458 477.438 166.062H477.5C477.417 165.542 477.375 164.516 477.375 162.984V150.594H482.141V173ZM501.156 166.406H490.719C490.885 168.729 492.349 169.891 495.109 169.891C496.87 169.891 498.417 169.474 499.75 168.641V172.203C498.271 172.995 496.349 173.391 493.984 173.391C491.401 173.391 489.396 172.677 487.969 171.25C486.542 169.812 485.828 167.812 485.828 165.25C485.828 162.594 486.599 160.49 488.141 158.938C489.682 157.385 491.578 156.609 493.828 156.609C496.161 156.609 497.964 157.302 499.234 158.688C500.516 160.073 501.156 161.953 501.156 164.328V166.406ZM496.578 163.375C496.578 161.083 495.651 159.938 493.797 159.938C493.005 159.938 492.318 160.266 491.734 160.922C491.161 161.578 490.812 162.396 490.688 163.375H496.578ZM527.266 157L522.656 173H517.469L515.109 163.625C514.953 163 514.865 162.318 514.844 161.578H514.75C514.677 162.391 514.573 163.052 514.438 163.562L511.906 173H506.781L502.266 157H507.297L509.5 167.438C509.604 167.927 509.682 168.521 509.734 169.219H509.828C509.88 168.49 509.974 167.875 510.109 167.375L512.859 157H517.562L520.031 167.438C520.094 167.698 520.167 168.302 520.25 169.25H520.359C520.411 168.646 520.495 168.042 520.609 167.438L522.688 157H527.266ZM528.578 172.578V168.578C529.391 169.068 530.198 169.432 531 169.672C531.812 169.911 532.578 170.031 533.297 170.031C534.172 170.031 534.859 169.911 535.359 169.672C535.87 169.432 536.125 169.068 536.125 168.578C536.125 168.266 536.01 168.005 535.781 167.797C535.552 167.589 535.255 167.406 534.891 167.25C534.536 167.094 534.146 166.953 533.719 166.828C533.292 166.703 532.88 166.562 532.484 166.406C531.849 166.167 531.286 165.911 530.797 165.641C530.318 165.359 529.911 165.036 529.578 164.672C529.255 164.307 529.005 163.885 528.828 163.406C528.661 162.927 528.578 162.359 528.578 161.703C528.578 160.807 528.771 160.036 529.156 159.391C529.552 158.745 530.073 158.219 530.719 157.812C531.375 157.396 532.12 157.094 532.953 156.906C533.797 156.708 534.672 156.609 535.578 156.609C536.286 156.609 537.005 156.667 537.734 156.781C538.464 156.885 539.182 157.042 539.891 157.25V161.062C539.266 160.698 538.594 160.427 537.875 160.25C537.167 160.062 536.469 159.969 535.781 159.969C535.458 159.969 535.151 160 534.859 160.062C534.578 160.115 534.328 160.198 534.109 160.312C533.891 160.417 533.719 160.557 533.594 160.734C533.469 160.901 533.406 161.094 533.406 161.312C533.406 161.604 533.5 161.854 533.688 162.062C533.875 162.271 534.12 162.453 534.422 162.609C534.724 162.755 535.057 162.891 535.422 163.016C535.797 163.13 536.167 163.25 536.531 163.375C537.188 163.604 537.781 163.854 538.312 164.125C538.844 164.396 539.297 164.714 539.672 165.078C540.057 165.443 540.349 165.87 540.547 166.359C540.755 166.849 540.859 167.432 540.859 168.109C540.859 169.057 540.651 169.87 540.234 170.547C539.828 171.214 539.281 171.76 538.594 172.188C537.917 172.604 537.13 172.906 536.234 173.094C535.349 173.292 534.427 173.391 533.469 173.391C531.708 173.391 530.078 173.12 528.578 172.578ZM548.656 173H543.719V149.312H548.656V173ZM567.188 166.406H556.75C556.917 168.729 558.38 169.891 561.141 169.891C562.901 169.891 564.448 169.474 565.781 168.641V172.203C564.302 172.995 562.38 173.391 560.016 173.391C557.432 173.391 555.427 172.677 554 171.25C552.573 169.812 551.859 167.812 551.859 165.25C551.859 162.594 552.63 160.49 554.172 158.938C555.714 157.385 557.609 156.609 559.859 156.609C562.193 156.609 563.995 157.302 565.266 158.688C566.547 160.073 567.188 161.953 567.188 164.328V166.406ZM562.609 163.375C562.609 161.083 561.682 159.938 559.828 159.938C559.036 159.938 558.349 160.266 557.766 160.922C557.193 161.578 556.844 162.396 556.719 163.375H562.609ZM579.797 172.812C579.068 173.198 577.969 173.391 576.5 173.391C573.021 173.391 571.281 171.583 571.281 167.969V160.641H568.688V157H571.281V153.547L576.203 152.141V157H579.797V160.641H576.203V167.109C576.203 168.776 576.865 169.609 578.188 169.609C578.708 169.609 579.245 169.458 579.797 169.156V172.812ZM592.266 172.812C591.536 173.198 590.438 173.391 588.969 173.391C585.49 173.391 583.75 171.583 583.75 167.969V160.641H581.156V157H583.75V153.547L588.672 152.141V157H592.266V160.641H588.672V167.109C588.672 168.776 589.333 169.609 590.656 169.609C591.177 169.609 591.714 169.458 592.266 169.156V172.812ZM609.312 166.406H598.875C599.042 168.729 600.505 169.891 603.266 169.891C605.026 169.891 606.573 169.474 607.906 168.641V172.203C606.427 172.995 604.505 173.391 602.141 173.391C599.557 173.391 597.552 172.677 596.125 171.25C594.698 169.812 593.984 167.812 593.984 165.25C593.984 162.594 594.755 160.49 596.297 158.938C597.839 157.385 599.734 156.609 601.984 156.609C604.318 156.609 606.12 157.302 607.391 158.688C608.672 160.073 609.312 161.953 609.312 164.328V166.406ZM604.734 163.375C604.734 161.083 603.807 159.938 601.953 159.938C601.161 159.938 600.474 160.266 599.891 160.922C599.318 161.578 598.969 162.396 598.844 163.375H604.734ZM622.688 161.453C622.094 161.13 621.401 160.969 620.609 160.969C619.536 160.969 618.698 161.365 618.094 162.156C617.49 162.938 617.188 164.005 617.188 165.359V173H612.25V157H617.188V159.969H617.25C618.031 157.802 619.438 156.719 621.469 156.719C621.99 156.719 622.396 156.781 622.688 156.906V161.453ZM328.484 212H323.812V209.703H323.75C322.677 211.495 321.089 212.391 318.984 212.391C317.432 212.391 316.208 211.953 315.312 211.078C314.427 210.193 313.984 209.016 313.984 207.547C313.984 204.443 315.823 202.651 319.5 202.172L323.844 201.594C323.844 199.844 322.896 198.969 321 198.969C319.094 198.969 317.281 199.536 315.562 200.672V196.953C316.25 196.599 317.188 196.286 318.375 196.016C319.573 195.745 320.661 195.609 321.641 195.609C326.203 195.609 328.484 197.885 328.484 202.438V212ZM323.844 205.5V204.422L320.938 204.797C319.333 205.005 318.531 205.729 318.531 206.969C318.531 207.531 318.724 207.995 319.109 208.359C319.505 208.714 320.036 208.891 320.703 208.891C321.63 208.891 322.385 208.573 322.969 207.938C323.552 207.292 323.844 206.479 323.844 205.5ZM347.844 212H342.922V203.109C342.922 200.63 342.036 199.391 340.266 199.391C339.411 199.391 338.708 199.719 338.156 200.375C337.604 201.031 337.328 201.865 337.328 202.875V212H332.391V196H337.328V198.531H337.391C338.568 196.583 340.281 195.609 342.531 195.609C346.073 195.609 347.844 197.807 347.844 202.203V212ZM367.422 212H362.484V209.797H362.422C361.297 211.526 359.646 212.391 357.469 212.391C355.469 212.391 353.859 211.688 352.641 210.281C351.422 208.865 350.812 206.891 350.812 204.359C350.812 201.714 351.484 199.594 352.828 198C354.172 196.406 355.932 195.609 358.109 195.609C360.172 195.609 361.609 196.349 362.422 197.828H362.484V188.312H367.422V212ZM362.578 204.219V203.016C362.578 201.974 362.276 201.109 361.672 200.422C361.068 199.734 360.281 199.391 359.312 199.391C358.219 199.391 357.365 199.823 356.75 200.688C356.135 201.542 355.828 202.719 355.828 204.219C355.828 205.625 356.125 206.708 356.719 207.469C357.312 208.229 358.135 208.609 359.188 208.609C360.188 208.609 361 208.208 361.625 207.406C362.26 206.604 362.578 205.542 362.578 204.219ZM379.375 211.578V207.578C380.188 208.068 380.995 208.432 381.797 208.672C382.609 208.911 383.375 209.031 384.094 209.031C384.969 209.031 385.656 208.911 386.156 208.672C386.667 208.432 386.922 208.068 386.922 207.578C386.922 207.266 386.807 207.005 386.578 206.797C386.349 206.589 386.052 206.406 385.688 206.25C385.333 206.094 384.943 205.953 384.516 205.828C384.089 205.703 383.677 205.562 383.281 205.406C382.646 205.167 382.083 204.911 381.594 204.641C381.115 204.359 380.708 204.036 380.375 203.672C380.052 203.307 379.802 202.885 379.625 202.406C379.458 201.927 379.375 201.359 379.375 200.703C379.375 199.807 379.568 199.036 379.953 198.391C380.349 197.745 380.87 197.219 381.516 196.812C382.172 196.396 382.917 196.094 383.75 195.906C384.594 195.708 385.469 195.609 386.375 195.609C387.083 195.609 387.802 195.667 388.531 195.781C389.26 195.885 389.979 196.042 390.688 196.25V200.062C390.062 199.698 389.391 199.427 388.672 199.25C387.964 199.062 387.266 198.969 386.578 198.969C386.255 198.969 385.948 199 385.656 199.062C385.375 199.115 385.125 199.198 384.906 199.312C384.688 199.417 384.516 199.557 384.391 199.734C384.266 199.901 384.203 200.094 384.203 200.312C384.203 200.604 384.297 200.854 384.484 201.062C384.672 201.271 384.917 201.453 385.219 201.609C385.521 201.755 385.854 201.891 386.219 202.016C386.594 202.13 386.964 202.25 387.328 202.375C387.984 202.604 388.578 202.854 389.109 203.125C389.641 203.396 390.094 203.714 390.469 204.078C390.854 204.443 391.146 204.87 391.344 205.359C391.552 205.849 391.656 206.432 391.656 207.109C391.656 208.057 391.448 208.87 391.031 209.547C390.625 210.214 390.078 210.76 389.391 211.188C388.714 211.604 387.927 211.906 387.031 212.094C386.146 212.292 385.224 212.391 384.266 212.391C382.505 212.391 380.875 212.12 379.375 211.578ZM404.188 211.812C403.458 212.198 402.359 212.391 400.891 212.391C397.411 212.391 395.672 210.583 395.672 206.969V199.641H393.078V196H395.672V192.547L400.594 191.141V196H404.188V199.641H400.594V206.109C400.594 207.776 401.255 208.609 402.578 208.609C403.099 208.609 403.635 208.458 404.188 208.156V211.812ZM420.297 212H415.625V209.703H415.562C414.49 211.495 412.901 212.391 410.797 212.391C409.245 212.391 408.021 211.953 407.125 211.078C406.24 210.193 405.797 209.016 405.797 207.547C405.797 204.443 407.635 202.651 411.312 202.172L415.656 201.594C415.656 199.844 414.708 198.969 412.812 198.969C410.906 198.969 409.094 199.536 407.375 200.672V196.953C408.062 196.599 409 196.286 410.188 196.016C411.385 195.745 412.474 195.609 413.453 195.609C418.016 195.609 420.297 197.885 420.297 202.438V212ZM415.656 205.5V204.422L412.75 204.797C411.146 205.005 410.344 205.729 410.344 206.969C410.344 207.531 410.536 207.995 410.922 208.359C411.318 208.714 411.849 208.891 412.516 208.891C413.443 208.891 414.198 208.573 414.781 207.938C415.365 207.292 415.656 206.479 415.656 205.5ZM439.438 196L432.938 213.281C431.375 217.438 429.021 219.516 425.875 219.516C424.677 219.516 423.693 219.38 422.922 219.109V215.172C423.578 215.557 424.292 215.75 425.062 215.75C426.333 215.75 427.219 215.151 427.719 213.953L428.562 211.969L422.062 196H427.531L430.516 205.734C430.703 206.339 430.849 207.052 430.953 207.875H431.016C431.109 207.271 431.281 206.568 431.531 205.766L434.547 196H439.438ZM465.469 212H460.547V209.562H460.469C459.25 211.448 457.62 212.391 455.578 212.391C451.87 212.391 450.016 210.146 450.016 205.656V196H454.938V205.219C454.938 207.479 455.833 208.609 457.625 208.609C458.51 208.609 459.219 208.302 459.75 207.688C460.281 207.062 460.547 206.219 460.547 205.156V196H465.469V212ZM474.641 210.141H474.578V219.359H469.641V196H474.578V198.406H474.641C475.859 196.542 477.573 195.609 479.781 195.609C481.854 195.609 483.453 196.323 484.578 197.75C485.714 199.167 486.281 201.099 486.281 203.547C486.281 206.214 485.62 208.354 484.297 209.969C482.984 211.583 481.234 212.391 479.047 212.391C477.12 212.391 475.651 211.641 474.641 210.141ZM474.5 203.578V204.859C474.5 205.964 474.792 206.865 475.375 207.562C475.958 208.26 476.724 208.609 477.672 208.609C478.797 208.609 479.667 208.177 480.281 207.312C480.906 206.438 481.219 205.203 481.219 203.609C481.219 200.797 480.125 199.391 477.938 199.391C476.927 199.391 476.099 199.776 475.453 200.547C474.818 201.307 474.5 202.318 474.5 203.578ZM505.141 212H500.203V209.797H500.141C499.016 211.526 497.365 212.391 495.188 212.391C493.188 212.391 491.578 211.688 490.359 210.281C489.141 208.865 488.531 206.891 488.531 204.359C488.531 201.714 489.203 199.594 490.547 198C491.891 196.406 493.651 195.609 495.828 195.609C497.891 195.609 499.328 196.349 500.141 197.828H500.203V188.312H505.141V212ZM500.297 204.219V203.016C500.297 201.974 499.995 201.109 499.391 200.422C498.786 199.734 498 199.391 497.031 199.391C495.938 199.391 495.083 199.823 494.469 200.688C493.854 201.542 493.547 202.719 493.547 204.219C493.547 205.625 493.844 206.708 494.438 207.469C495.031 208.229 495.854 208.609 496.906 208.609C497.906 208.609 498.719 208.208 499.344 207.406C499.979 206.604 500.297 205.542 500.297 204.219ZM522.609 212H517.938V209.703H517.875C516.802 211.495 515.214 212.391 513.109 212.391C511.557 212.391 510.333 211.953 509.438 211.078C508.552 210.193 508.109 209.016 508.109 207.547C508.109 204.443 509.948 202.651 513.625 202.172L517.969 201.594C517.969 199.844 517.021 198.969 515.125 198.969C513.219 198.969 511.406 199.536 509.688 200.672V196.953C510.375 196.599 511.312 196.286 512.5 196.016C513.698 195.745 514.786 195.609 515.766 195.609C520.328 195.609 522.609 197.885 522.609 202.438V212ZM517.969 205.5V204.422L515.062 204.797C513.458 205.005 512.656 205.729 512.656 206.969C512.656 207.531 512.849 207.995 513.234 208.359C513.63 208.714 514.161 208.891 514.828 208.891C515.755 208.891 516.51 208.573 517.094 207.938C517.677 207.292 517.969 206.479 517.969 205.5ZM536.188 211.812C535.458 212.198 534.359 212.391 532.891 212.391C529.411 212.391 527.672 210.583 527.672 206.969V199.641H525.078V196H527.672V192.547L532.594 191.141V196H536.188V199.641H532.594V206.109C532.594 207.776 533.255 208.609 534.578 208.609C535.099 208.609 535.635 208.458 536.188 208.156V211.812ZM553.234 205.406H542.797C542.964 207.729 544.427 208.891 547.188 208.891C548.948 208.891 550.495 208.474 551.828 207.641V211.203C550.349 211.995 548.427 212.391 546.062 212.391C543.479 212.391 541.474 211.677 540.047 210.25C538.62 208.812 537.906 206.812 537.906 204.25C537.906 201.594 538.677 199.49 540.219 197.938C541.76 196.385 543.656 195.609 545.906 195.609C548.24 195.609 550.042 196.302 551.312 197.688C552.594 199.073 553.234 200.953 553.234 203.328V205.406ZM548.656 202.375C548.656 200.083 547.729 198.938 545.875 198.938C545.083 198.938 544.396 199.266 543.812 199.922C543.24 200.578 542.891 201.396 542.766 202.375H548.656ZM571.828 212H566.891V209.797H566.828C565.703 211.526 564.052 212.391 561.875 212.391C559.875 212.391 558.266 211.688 557.047 210.281C555.828 208.865 555.219 206.891 555.219 204.359C555.219 201.714 555.891 199.594 557.234 198C558.578 196.406 560.339 195.609 562.516 195.609C564.578 195.609 566.016 196.349 566.828 197.828H566.891V188.312H571.828V212ZM566.984 204.219V203.016C566.984 201.974 566.682 201.109 566.078 200.422C565.474 199.734 564.688 199.391 563.719 199.391C562.625 199.391 561.771 199.823 561.156 200.688C560.542 201.542 560.234 202.719 560.234 204.219C560.234 205.625 560.531 206.708 561.125 207.469C561.719 208.229 562.542 208.609 563.594 208.609C564.594 208.609 565.406 208.208 566.031 207.406C566.667 206.604 566.984 205.542 566.984 204.219Z" fill="#222222"/>
<g filter="url(#filter0_d_24_142)">
<rect x="260" y="306" width="352" height="37" rx="18.5" fill="white"/>
</g>
<g filter="url(#filter1_d_24_142)">
<path d="M503 324.5C503 316.492 509.492 310 517.5 310H592.5C600.508 310 607 316.492 607 324.5C607 332.508 600.508 339 592.5 339H517.5C509.492 339 503 332.508 503 324.5Z" fill="#AAAAAA"/>
</g>
<rect x="286" y="239" width="315" height="9" rx="4.5" fill="#E4E4E4"/>
<rect x="349" y="266" width="174" height="9" rx="4.5" fill="#E4E4E4"/>
<rect x="536" y="321" width="38" height="7" rx="3.5" fill="#D4D4D4"/>
<defs>
<filter id="filter0_d_24_142" x="256" y="302" width="360" height="45" filterUnits="userSpaceOnUse" color-interpolation-filters="sRGB">
<feFlood flood-opacity="0" result="BackgroundImageFix"/>
<feColorMatrix in="SourceAlpha" type="matrix" values="0 0 0 0 0 0 0 0 0 0 0 0 0 0 0 0 0 0 127 0" result="hardAlpha"/>
<feOffset/>
<feGaussianBlur stdDeviation="2"/>
<feComposite in2="hardAlpha" operator="out"/>
<feColorMatrix type="matrix" values="0 0 0 0 0 0 0 0 0 0 0 0 0 0 0 0 0 0 0.25 0"/>
<feBlend mode="normal" in2="BackgroundImageFix" result="effect1_dropShadow_24_142"/>
<feBlend mode="normal" in="SourceGraphic" in2="effect1_dropShadow_24_142" result="shape"/>
</filter>
<filter id="filter1_d_24_142" x="503" y="310" width="104" height="29" filterUnits="userSpaceOnUse" color-interpolation-filters="sRGB">
<feFlood flood-opacity="0" result="BackgroundImageFix"/>
<feColorMatrix in="SourceAlpha" type="matrix" values="0 0 0 0 0 0 0 0 0 0 0 0 0 0 0 0 0 0 127 0" result="hardAlpha"/>
<feOffset/>
<feComposite in2="hardAlpha" operator="out"/>
<feColorMatrix type="matrix" values="0 0 0 0 0 0 0 0 0 0 0 0 0 0 0 0 0 0 0.25 0"/>
<feBlend mode="normal" in2="BackgroundImageFix" result="effect1_dropShadow_24_142"/>
<feBlend mode="normal" in="SourceGraphic" in2="effect1_dropShadow_24_142" result="shape"/>
</filter>
</defs>
</svg>
