<svg width="852" height="615" viewBox="0 0 852 615" fill="none" xmlns="http://www.w3.org/2000/svg">
<rect width="852" height="615" fill="#F3F4F6"/>
<path d="M109.102 120.455H120.125L130.738 140.5H131.193L141.806 120.455H152.829L135.852 150.545V167H126.079V150.545L109.102 120.455ZM163.923 167.682C160.392 167.682 157.339 166.932 154.764 165.432C152.203 163.917 150.226 161.811 148.832 159.114C147.438 156.402 146.741 153.258 146.741 149.682C146.741 146.076 147.438 142.924 148.832 140.227C150.226 137.515 152.203 135.409 154.764 133.909C157.339 132.394 160.392 131.636 163.923 131.636C167.453 131.636 170.498 132.394 173.059 133.909C175.635 135.409 177.62 137.515 179.014 140.227C180.407 142.924 181.104 146.076 181.104 149.682C181.104 153.258 180.407 156.402 179.014 159.114C177.62 161.811 175.635 163.917 173.059 165.432C170.498 166.932 167.453 167.682 163.923 167.682ZM163.968 160.182C165.574 160.182 166.915 159.727 167.991 158.818C169.067 157.894 169.877 156.636 170.423 155.045C170.983 153.455 171.264 151.644 171.264 149.614C171.264 147.583 170.983 145.773 170.423 144.182C169.877 142.591 169.067 141.333 167.991 140.409C166.915 139.485 165.574 139.023 163.968 139.023C162.347 139.023 160.983 139.485 159.877 140.409C158.786 141.333 157.96 142.591 157.4 144.182C156.854 145.773 156.582 147.583 156.582 149.614C156.582 151.644 156.854 153.455 157.4 155.045C157.96 156.636 158.786 157.894 159.877 158.818C160.983 159.727 162.347 160.182 163.968 160.182ZM207.226 152.136V132.091H216.908V167H207.613V160.659H207.249C206.461 162.705 205.15 164.348 203.317 165.591C201.499 166.833 199.279 167.455 196.658 167.455C194.325 167.455 192.272 166.924 190.499 165.864C188.726 164.803 187.34 163.295 186.34 161.341C185.355 159.386 184.855 157.045 184.84 154.318V132.091H194.522V152.591C194.537 154.652 195.09 156.28 196.181 157.477C197.272 158.674 198.734 159.273 200.567 159.273C201.734 159.273 202.825 159.008 203.84 158.477C204.855 157.932 205.673 157.129 206.294 156.068C206.931 155.008 207.241 153.697 207.226 152.136ZM222.092 167V132.091H231.479V138.182H231.842C232.479 136.015 233.547 134.379 235.047 133.273C236.547 132.152 238.274 131.591 240.229 131.591C240.714 131.591 241.236 131.621 241.797 131.682C242.358 131.742 242.85 131.826 243.274 131.932V140.523C242.82 140.386 242.191 140.265 241.388 140.159C240.585 140.053 239.85 140 239.183 140C237.759 140 236.486 140.311 235.365 140.932C234.259 141.538 233.38 142.386 232.729 143.477C232.092 144.568 231.774 145.826 231.774 147.25V167H222.092ZM438.843 142.045L429.979 142.591C429.828 141.833 429.502 141.152 429.002 140.545C428.502 139.924 427.843 139.432 427.025 139.068C426.222 138.689 425.26 138.5 424.138 138.5C422.638 138.5 421.373 138.818 420.343 139.455C419.313 140.076 418.797 140.909 418.797 141.955C418.797 142.788 419.131 143.492 419.797 144.068C420.464 144.644 421.608 145.106 423.229 145.455L429.547 146.727C432.941 147.424 435.472 148.545 437.138 150.091C438.805 151.636 439.638 153.667 439.638 156.182C439.638 158.47 438.964 160.477 437.616 162.205C436.282 163.932 434.449 165.28 432.116 166.25C429.797 167.205 427.123 167.682 424.093 167.682C419.472 167.682 415.79 166.72 413.047 164.795C410.32 162.856 408.722 160.22 408.252 156.886L417.775 156.386C418.063 157.795 418.76 158.871 419.866 159.614C420.972 160.341 422.388 160.705 424.116 160.705C425.813 160.705 427.176 160.379 428.206 159.727C429.252 159.061 429.782 158.205 429.797 157.159C429.782 156.28 429.411 155.561 428.684 155C427.956 154.424 426.835 153.985 425.32 153.682L419.275 152.477C415.866 151.795 413.328 150.614 411.661 148.932C410.01 147.25 409.184 145.106 409.184 142.5C409.184 140.258 409.79 138.326 411.002 136.705C412.229 135.083 413.949 133.833 416.161 132.955C418.388 132.076 420.994 131.636 423.979 131.636C428.388 131.636 431.858 132.568 434.388 134.432C436.934 136.295 438.419 138.833 438.843 142.045ZM459.084 167.682C455.493 167.682 452.402 166.955 449.811 165.5C447.235 164.03 445.251 161.955 443.857 159.273C442.463 156.576 441.766 153.386 441.766 149.705C441.766 146.114 442.463 142.962 443.857 140.25C445.251 137.538 447.213 135.424 449.743 133.909C452.289 132.394 455.273 131.636 458.698 131.636C461.001 131.636 463.145 132.008 465.129 132.75C467.129 133.477 468.872 134.576 470.357 136.045C471.857 137.515 473.023 139.364 473.857 141.591C474.69 143.803 475.107 146.394 475.107 149.364V152.023H445.629V146.023H465.993C465.993 144.629 465.69 143.394 465.084 142.318C464.478 141.242 463.637 140.402 462.561 139.795C461.501 139.174 460.266 138.864 458.857 138.864C457.387 138.864 456.084 139.205 454.948 139.886C453.826 140.553 452.948 141.455 452.311 142.591C451.675 143.712 451.349 144.962 451.334 146.341V152.045C451.334 153.773 451.652 155.265 452.289 156.523C452.94 157.78 453.857 158.75 455.039 159.432C456.22 160.114 457.622 160.455 459.243 160.455C460.319 160.455 461.304 160.303 462.198 160C463.092 159.697 463.857 159.242 464.493 158.636C465.129 158.03 465.614 157.288 465.948 156.409L474.902 157C474.448 159.152 473.516 161.03 472.107 162.636C470.713 164.227 468.91 165.47 466.698 166.364C464.501 167.242 461.963 167.682 459.084 167.682ZM494.638 167.682C491.062 167.682 487.986 166.924 485.41 165.409C482.85 163.879 480.88 161.758 479.501 159.045C478.138 156.333 477.456 153.212 477.456 149.682C477.456 146.106 478.145 142.97 479.524 140.273C480.918 137.561 482.895 135.447 485.456 133.932C488.016 132.402 491.062 131.636 494.592 131.636C497.638 131.636 500.304 132.189 502.592 133.295C504.88 134.402 506.691 135.955 508.024 137.955C509.357 139.955 510.092 142.303 510.229 145H501.092C500.835 143.258 500.153 141.856 499.047 140.795C497.956 139.72 496.524 139.182 494.751 139.182C493.251 139.182 491.941 139.591 490.819 140.409C489.713 141.212 488.85 142.386 488.229 143.932C487.607 145.477 487.297 147.348 487.297 149.545C487.297 151.773 487.6 153.667 488.206 155.227C488.827 156.788 489.698 157.977 490.819 158.795C491.941 159.614 493.251 160.023 494.751 160.023C495.857 160.023 496.85 159.795 497.729 159.341C498.622 158.886 499.357 158.227 499.933 157.364C500.524 156.485 500.91 155.432 501.092 154.205H510.229C510.077 156.871 509.35 159.22 508.047 161.25C506.759 163.265 504.979 164.841 502.706 165.977C500.433 167.114 497.744 167.682 494.638 167.682ZM532.436 132.091V139.364H511.413V132.091H532.436ZM516.186 123.727H525.867V156.273C525.867 157.167 526.004 157.864 526.276 158.364C526.549 158.848 526.928 159.189 527.413 159.386C527.913 159.583 528.489 159.682 529.14 159.682C529.595 159.682 530.049 159.644 530.504 159.568C530.958 159.477 531.307 159.409 531.549 159.364L533.072 166.568C532.587 166.72 531.905 166.894 531.026 167.091C530.148 167.303 529.08 167.432 527.822 167.477C525.489 167.568 523.443 167.258 521.686 166.545C519.943 165.833 518.587 164.727 517.617 163.227C516.648 161.727 516.17 159.833 516.186 157.545V123.727ZM536.182 167V132.091H545.864V167H536.182ZM541.046 127.591C539.607 127.591 538.372 127.114 537.341 126.159C536.326 125.189 535.819 124.03 535.819 122.682C535.819 121.348 536.326 120.205 537.341 119.25C538.372 118.28 539.607 117.795 541.046 117.795C542.485 117.795 543.713 118.28 544.728 119.25C545.758 120.205 546.273 121.348 546.273 122.682C546.273 124.03 545.758 125.189 544.728 126.159C543.713 127.114 542.485 127.591 541.046 127.591ZM566.833 167.682C563.302 167.682 560.249 166.932 557.674 165.432C555.113 163.917 553.136 161.811 551.742 159.114C550.348 156.402 549.651 153.258 549.651 149.682C549.651 146.076 550.348 142.924 551.742 140.227C553.136 137.515 555.113 135.409 557.674 133.909C560.249 132.394 563.302 131.636 566.833 131.636C570.363 131.636 573.408 132.394 575.969 133.909C578.545 135.409 580.53 137.515 581.924 140.227C583.317 142.924 584.014 146.076 584.014 149.682C584.014 153.258 583.317 156.402 581.924 159.114C580.53 161.811 578.545 163.917 575.969 165.432C573.408 166.932 570.363 167.682 566.833 167.682ZM566.878 160.182C568.484 160.182 569.825 159.727 570.901 158.818C571.977 157.894 572.787 156.636 573.333 155.045C573.893 153.455 574.174 151.644 574.174 149.614C574.174 147.583 573.893 145.773 573.333 144.182C572.787 142.591 571.977 141.333 570.901 140.409C569.825 139.485 568.484 139.023 566.878 139.023C565.257 139.023 563.893 139.485 562.787 140.409C561.696 141.333 560.871 142.591 560.31 144.182C559.764 145.773 559.492 147.583 559.492 149.614C559.492 151.644 559.764 153.455 560.31 155.045C560.871 156.636 561.696 157.894 562.787 158.818C563.893 159.727 565.257 160.182 566.878 160.182ZM597.432 146.818V167H587.75V132.091H596.977V138.25H597.386C598.159 136.22 599.454 134.614 601.273 133.432C603.091 132.235 605.295 131.636 607.886 131.636C610.311 131.636 612.424 132.167 614.227 133.227C616.03 134.288 617.432 135.803 618.432 137.773C619.432 139.727 619.932 142.061 619.932 144.773V167H610.25V146.5C610.265 144.364 609.72 142.697 608.614 141.5C607.507 140.288 605.985 139.682 604.045 139.682C602.742 139.682 601.591 139.962 600.591 140.523C599.606 141.083 598.833 141.902 598.273 142.977C597.727 144.038 597.447 145.318 597.432 146.818ZM655.823 132.091V139.364H634.8V132.091H655.823ZM639.573 123.727H649.255V156.273C649.255 157.167 649.391 157.864 649.664 158.364C649.937 158.848 650.315 159.189 650.8 159.386C651.3 159.583 651.876 159.682 652.528 159.682C652.982 159.682 653.437 159.644 653.891 159.568C654.346 159.477 654.694 159.409 654.937 159.364L656.459 166.568C655.975 166.72 655.293 166.894 654.414 167.091C653.535 167.303 652.467 167.432 651.209 167.477C648.876 167.568 646.831 167.258 645.073 166.545C643.331 165.833 641.975 164.727 641.005 163.227C640.035 161.727 639.558 159.833 639.573 157.545V123.727ZM659.57 167V132.091H669.252V167H659.57ZM664.434 127.591C662.994 127.591 661.759 127.114 660.729 126.159C659.714 125.189 659.206 124.03 659.206 122.682C659.206 121.348 659.714 120.205 660.729 119.25C661.759 118.28 662.994 117.795 664.434 117.795C665.873 117.795 667.1 118.28 668.115 119.25C669.146 120.205 669.661 121.348 669.661 122.682C669.661 124.03 669.146 125.189 668.115 126.159C667.1 127.114 665.873 127.591 664.434 127.591ZM693.016 132.091V139.364H671.993V132.091H693.016ZM676.766 123.727H686.447V156.273C686.447 157.167 686.584 157.864 686.856 158.364C687.129 158.848 687.508 159.189 687.993 159.386C688.493 159.583 689.069 159.682 689.72 159.682C690.175 159.682 690.629 159.644 691.084 159.568C691.538 159.477 691.887 159.409 692.129 159.364L693.652 166.568C693.167 166.72 692.485 166.894 691.606 167.091C690.728 167.303 689.659 167.432 688.402 167.477C686.069 167.568 684.023 167.258 682.266 166.545C680.523 165.833 679.167 164.727 678.197 163.227C677.228 161.727 676.75 159.833 676.766 157.545V123.727ZM707.194 120.455V167H697.512V120.455H707.194ZM728.299 167.682C724.708 167.682 721.617 166.955 719.026 165.5C716.45 164.03 714.466 161.955 713.072 159.273C711.678 156.576 710.981 153.386 710.981 149.705C710.981 146.114 711.678 142.962 713.072 140.25C714.466 137.538 716.428 135.424 718.958 133.909C721.504 132.394 724.488 131.636 727.913 131.636C730.216 131.636 732.36 132.008 734.344 132.75C736.344 133.477 738.087 134.576 739.572 136.045C741.072 137.515 742.238 139.364 743.072 141.591C743.905 143.803 744.322 146.394 744.322 149.364V152.023H714.844V146.023H735.208C735.208 144.629 734.905 143.394 734.299 142.318C733.693 141.242 732.852 140.402 731.776 139.795C730.716 139.174 729.481 138.864 728.072 138.864C726.602 138.864 725.299 139.205 724.163 139.886C723.041 140.553 722.163 141.455 721.526 142.591C720.89 143.712 720.564 144.962 720.549 146.341V152.045C720.549 153.773 720.867 155.265 721.504 156.523C722.155 157.78 723.072 158.75 724.254 159.432C725.435 160.114 726.837 160.455 728.458 160.455C729.534 160.455 730.519 160.303 731.413 160C732.307 159.697 733.072 159.242 733.708 158.636C734.344 158.03 734.829 157.288 735.163 156.409L744.117 157C743.663 159.152 742.731 161.03 741.322 162.636C739.928 164.227 738.125 165.47 735.913 166.364C733.716 167.242 731.178 167.682 728.299 167.682ZM300.956 253.818C297.82 253.818 295.13 253.386 292.888 252.523C290.66 251.674 288.888 250.515 287.57 249.045C286.251 247.576 285.395 245.924 285.001 244.091L293.956 242.886C294.229 243.583 294.66 244.235 295.251 244.841C295.842 245.447 296.623 245.932 297.592 246.295C298.577 246.674 299.774 246.864 301.183 246.864C303.289 246.864 305.024 246.348 306.388 245.318C307.767 244.303 308.456 242.598 308.456 240.205V233.818H308.047C307.623 234.788 306.986 235.705 306.138 236.568C305.289 237.432 304.198 238.136 302.865 238.682C301.532 239.227 299.941 239.5 298.092 239.5C295.471 239.5 293.085 238.894 290.933 237.682C288.797 236.455 287.092 234.583 285.82 232.068C284.562 229.538 283.933 226.341 283.933 222.477C283.933 218.523 284.577 215.22 285.865 212.568C287.153 209.917 288.865 207.932 291.001 206.614C293.153 205.295 295.509 204.636 298.07 204.636C300.024 204.636 301.66 204.97 302.979 205.636C304.297 206.288 305.357 207.106 306.16 208.091C306.979 209.061 307.607 210.015 308.047 210.955H308.41V205.091H318.024V240.341C318.024 243.311 317.297 245.795 315.842 247.795C314.388 249.795 312.373 251.295 309.797 252.295C307.236 253.311 304.289 253.818 300.956 253.818ZM301.16 232.227C302.721 232.227 304.039 231.841 305.115 231.068C306.206 230.28 307.039 229.159 307.615 227.705C308.206 226.235 308.501 224.477 308.501 222.432C308.501 220.386 308.213 218.614 307.638 217.114C307.062 215.598 306.229 214.424 305.138 213.591C304.047 212.758 302.721 212.341 301.16 212.341C299.57 212.341 298.229 212.773 297.138 213.636C296.047 214.485 295.221 215.667 294.66 217.182C294.1 218.697 293.82 220.447 293.82 222.432C293.82 224.447 294.1 226.189 294.66 227.659C295.236 229.114 296.062 230.242 297.138 231.045C298.229 231.833 299.57 232.227 301.16 232.227ZM338.941 240.682C335.411 240.682 332.358 239.932 329.782 238.432C327.222 236.917 325.244 234.811 323.85 232.114C322.457 229.402 321.76 226.258 321.76 222.682C321.76 219.076 322.457 215.924 323.85 213.227C325.244 210.515 327.222 208.409 329.782 206.909C332.358 205.394 335.411 204.636 338.941 204.636C342.472 204.636 345.517 205.394 348.078 206.909C350.653 208.409 352.638 210.515 354.032 213.227C355.426 215.924 356.123 219.076 356.123 222.682C356.123 226.258 355.426 229.402 354.032 232.114C352.638 234.811 350.653 236.917 348.078 238.432C345.517 239.932 342.472 240.682 338.941 240.682ZM338.987 233.182C340.593 233.182 341.934 232.727 343.01 231.818C344.085 230.894 344.896 229.636 345.441 228.045C346.002 226.455 346.282 224.644 346.282 222.614C346.282 220.583 346.002 218.773 345.441 217.182C344.896 215.591 344.085 214.333 343.01 213.409C341.934 212.485 340.593 212.023 338.987 212.023C337.366 212.023 336.002 212.485 334.896 213.409C333.805 214.333 332.979 215.591 332.419 217.182C331.873 218.773 331.6 220.583 331.6 222.614C331.6 224.644 331.873 226.455 332.419 228.045C332.979 229.636 333.805 230.894 334.896 231.818C336.002 232.727 337.366 233.182 338.987 233.182ZM375.768 240.682C372.177 240.682 369.086 239.955 366.495 238.5C363.919 237.03 361.934 234.955 360.54 232.273C359.147 229.576 358.45 226.386 358.45 222.705C358.45 219.114 359.147 215.962 360.54 213.25C361.934 210.538 363.897 208.424 366.427 206.909C368.972 205.394 371.957 204.636 375.381 204.636C377.684 204.636 379.828 205.008 381.813 205.75C383.813 206.477 385.556 207.576 387.04 209.045C388.54 210.515 389.707 212.364 390.54 214.591C391.374 216.803 391.79 219.394 391.79 222.364V225.023H362.313V219.023H382.677C382.677 217.629 382.374 216.394 381.768 215.318C381.162 214.242 380.321 213.402 379.245 212.795C378.184 212.174 376.95 211.864 375.54 211.864C374.071 211.864 372.768 212.205 371.631 212.886C370.51 213.553 369.631 214.455 368.995 215.591C368.359 216.712 368.033 217.962 368.018 219.341V225.045C368.018 226.773 368.336 228.265 368.972 229.523C369.624 230.78 370.54 231.75 371.722 232.432C372.904 233.114 374.306 233.455 375.927 233.455C377.003 233.455 377.987 233.303 378.881 233C379.775 232.697 380.54 232.242 381.177 231.636C381.813 231.03 382.298 230.288 382.631 229.409L391.586 230C391.131 232.152 390.2 234.03 388.79 235.636C387.397 237.227 385.593 238.47 383.381 239.364C381.184 240.242 378.647 240.682 375.768 240.682ZM424.594 215.045L415.73 215.591C415.579 214.833 415.253 214.152 414.753 213.545C414.253 212.924 413.594 212.432 412.776 212.068C411.973 211.689 411.011 211.5 409.89 211.5C408.39 211.5 407.124 211.818 406.094 212.455C405.064 213.076 404.549 213.909 404.549 214.955C404.549 215.788 404.882 216.492 405.549 217.068C406.215 217.644 407.359 218.106 408.98 218.455L415.299 219.727C418.693 220.424 421.223 221.545 422.89 223.091C424.556 224.636 425.39 226.667 425.39 229.182C425.39 231.47 424.715 233.477 423.367 235.205C422.033 236.932 420.2 238.28 417.867 239.25C415.549 240.205 412.874 240.682 409.844 240.682C405.223 240.682 401.541 239.72 398.799 237.795C396.071 235.856 394.473 233.22 394.003 229.886L403.526 229.386C403.814 230.795 404.511 231.871 405.617 232.614C406.723 233.341 408.14 233.705 409.867 233.705C411.564 233.705 412.927 233.379 413.958 232.727C415.003 232.061 415.533 231.205 415.549 230.159C415.533 229.28 415.162 228.561 414.435 228C413.708 227.424 412.587 226.985 411.071 226.682L405.026 225.477C401.617 224.795 399.079 223.614 397.412 221.932C395.761 220.25 394.935 218.106 394.935 215.5C394.935 213.258 395.541 211.326 396.753 209.705C397.98 208.083 399.7 206.833 401.912 205.955C404.14 205.076 406.746 204.636 409.73 204.636C414.14 204.636 417.609 205.568 420.14 207.432C422.685 209.295 424.17 211.833 424.594 215.045ZM450.86 219.818V240H441.179V193.455H450.588V211.25H450.997C451.785 209.189 453.057 207.576 454.815 206.409C456.573 205.227 458.777 204.636 461.429 204.636C463.853 204.636 465.967 205.167 467.77 206.227C469.588 207.273 470.997 208.78 471.997 210.75C473.012 212.705 473.512 215.045 473.497 217.773V240H463.815V219.5C463.83 217.348 463.285 215.674 462.179 214.477C461.088 213.28 459.557 212.682 457.588 212.682C456.27 212.682 455.103 212.962 454.088 213.523C453.088 214.083 452.3 214.902 451.724 215.977C451.163 217.038 450.876 218.318 450.86 219.818ZM494.465 240.682C490.874 240.682 487.783 239.955 485.193 238.5C482.617 237.03 480.632 234.955 479.238 232.273C477.844 229.576 477.147 226.386 477.147 222.705C477.147 219.114 477.844 215.962 479.238 213.25C480.632 210.538 482.594 208.424 485.124 206.909C487.67 205.394 490.655 204.636 494.079 204.636C496.382 204.636 498.526 205.008 500.511 205.75C502.511 206.477 504.253 207.576 505.738 209.045C507.238 210.515 508.405 212.364 509.238 214.591C510.071 216.803 510.488 219.394 510.488 222.364V225.023H481.011V219.023H501.374C501.374 217.629 501.071 216.394 500.465 215.318C499.859 214.242 499.018 213.402 497.943 212.795C496.882 212.174 495.647 211.864 494.238 211.864C492.768 211.864 491.465 212.205 490.329 212.886C489.208 213.553 488.329 214.455 487.693 215.591C487.056 216.712 486.73 217.962 486.715 219.341V225.045C486.715 226.773 487.033 228.265 487.67 229.523C488.321 230.78 489.238 231.75 490.42 232.432C491.602 233.114 493.003 233.455 494.624 233.455C495.7 233.455 496.685 233.303 497.579 233C498.473 232.697 499.238 232.242 499.874 231.636C500.511 231.03 500.996 230.288 501.329 229.409L510.283 230C509.829 232.152 508.897 234.03 507.488 235.636C506.094 237.227 504.291 238.47 502.079 239.364C499.882 240.242 497.344 240.682 494.465 240.682ZM514.246 240V205.091H523.633V211.182H523.996C524.633 209.015 525.701 207.379 527.201 206.273C528.701 205.152 530.428 204.591 532.383 204.591C532.867 204.591 533.39 204.621 533.951 204.682C534.511 204.742 535.004 204.826 535.428 204.932V213.523C534.973 213.386 534.345 213.265 533.542 213.159C532.739 213.053 532.004 213 531.337 213C529.913 213 528.64 213.311 527.519 213.932C526.413 214.538 525.534 215.386 524.883 216.477C524.246 217.568 523.928 218.826 523.928 220.25V240H514.246ZM552.158 240.682C548.567 240.682 545.476 239.955 542.885 238.5C540.309 237.03 538.324 234.955 536.93 232.273C535.537 229.576 534.84 226.386 534.84 222.705C534.84 219.114 535.537 215.962 536.93 213.25C538.324 210.538 540.287 208.424 542.817 206.909C545.362 205.394 548.347 204.636 551.771 204.636C554.074 204.636 556.218 205.008 558.203 205.75C560.203 206.477 561.946 207.576 563.43 209.045C564.93 210.515 566.097 212.364 566.93 214.591C567.764 216.803 568.18 219.394 568.18 222.364V225.023H538.703V219.023H559.067C559.067 217.629 558.764 216.394 558.158 215.318C557.552 214.242 556.711 213.402 555.635 212.795C554.574 212.174 553.34 211.864 551.93 211.864C550.461 211.864 549.158 212.205 548.021 212.886C546.9 213.553 546.021 214.455 545.385 215.591C544.749 216.712 544.423 217.962 544.408 219.341V225.045C544.408 226.773 544.726 228.265 545.362 229.523C546.014 230.78 546.93 231.75 548.112 232.432C549.294 233.114 550.696 233.455 552.317 233.455C553.393 233.455 554.377 233.303 555.271 233C556.165 232.697 556.93 232.242 557.567 231.636C558.203 231.03 558.688 230.288 559.021 229.409L567.976 230C567.521 232.152 566.59 234.03 565.18 235.636C563.787 237.227 561.983 238.47 559.771 239.364C557.574 240.242 555.037 240.682 552.158 240.682Z" fill="#949494"/>
<path d="M258.154 167V120.455H267.995V139.659H287.972V120.455H297.791V167H287.972V147.773H267.995V167H258.154ZM319.071 167.682C315.481 167.682 312.39 166.955 309.799 165.5C307.223 164.03 305.238 161.955 303.844 159.273C302.45 156.576 301.753 153.386 301.753 149.705C301.753 146.114 302.45 142.962 303.844 140.25C305.238 137.538 307.2 135.424 309.731 133.909C312.276 132.394 315.261 131.636 318.685 131.636C320.988 131.636 323.132 132.008 325.117 132.75C327.117 133.477 328.859 134.576 330.344 136.045C331.844 137.515 333.011 139.364 333.844 141.591C334.678 143.803 335.094 146.394 335.094 149.364V152.023H305.617V146.023H325.981C325.981 144.629 325.678 143.394 325.071 142.318C324.465 141.242 323.625 140.402 322.549 139.795C321.488 139.174 320.253 138.864 318.844 138.864C317.375 138.864 316.071 139.205 314.935 139.886C313.814 140.553 312.935 141.455 312.299 142.591C311.662 143.712 311.337 144.962 311.321 146.341V152.045C311.321 153.773 311.64 155.265 312.276 156.523C312.928 157.78 313.844 158.75 315.026 159.432C316.208 160.114 317.609 160.455 319.231 160.455C320.306 160.455 321.291 160.303 322.185 160C323.079 159.697 323.844 159.242 324.481 158.636C325.117 158.03 325.602 157.288 325.935 156.409L334.89 157C334.435 159.152 333.503 161.03 332.094 162.636C330.7 164.227 328.897 165.47 326.685 166.364C324.488 167.242 321.95 167.682 319.071 167.682ZM338.852 167V132.091H348.239V138.182H348.602C349.239 136.015 350.307 134.379 351.807 133.273C353.307 132.152 355.034 131.591 356.989 131.591C357.474 131.591 357.996 131.621 358.557 131.682C359.118 131.742 359.61 131.826 360.034 131.932V140.523C359.58 140.386 358.951 140.265 358.148 140.159C357.345 140.053 356.61 140 355.943 140C354.519 140 353.246 140.311 352.125 140.932C351.019 141.538 350.14 142.386 349.489 143.477C348.852 144.568 348.534 145.826 348.534 147.25V167H338.852ZM376.628 167.682C373.097 167.682 370.044 166.932 367.469 165.432C364.908 163.917 362.931 161.811 361.537 159.114C360.143 156.402 359.446 153.258 359.446 149.682C359.446 146.076 360.143 142.924 361.537 140.227C362.931 137.515 364.908 135.409 367.469 133.909C370.044 132.394 373.097 131.636 376.628 131.636C380.158 131.636 383.203 132.394 385.764 133.909C388.34 135.409 390.325 137.515 391.719 140.227C393.112 142.924 393.809 146.076 393.809 149.682C393.809 153.258 393.112 156.402 391.719 159.114C390.325 161.811 388.34 163.917 385.764 165.432C383.203 166.932 380.158 167.682 376.628 167.682ZM376.673 160.182C378.279 160.182 379.62 159.727 380.696 158.818C381.772 157.894 382.582 156.636 383.128 155.045C383.688 153.455 383.969 151.644 383.969 149.614C383.969 147.583 383.688 145.773 383.128 144.182C382.582 142.591 381.772 141.333 380.696 140.409C379.62 139.485 378.279 139.023 376.673 139.023C375.052 139.023 373.688 139.485 372.582 140.409C371.491 141.333 370.666 142.591 370.105 144.182C369.559 145.773 369.287 147.583 369.287 149.614C369.287 151.644 369.559 153.455 370.105 155.045C370.666 156.636 371.491 157.894 372.582 158.818C373.688 159.727 375.052 160.182 376.673 160.182Z" fill="#6C6C6C"/>
<rect x="242" y="284" width="331" height="15" rx="7.5" fill="#D9D9D9"/>
<rect x="313" y="317" width="189" height="15" rx="7.5" fill="#D9D9D9"/>
<rect x="255" y="384" width="141" height="47.2975" rx="8" fill="#D9D9D9"/>
<rect x="293.374" y="403.633" width="63.3608" height="8.03165" rx="4.01582" fill="white"/>
<rect x="456" y="384" width="141" height="47.2975" rx="8" fill="#D9D9D9"/>
<rect x="494.374" y="403.633" width="63.3608" height="8.03165" rx="4.01582" fill="white"/>
</svg>
