<svg width="399" height="288" viewBox="0 0 399 288" fill="none" xmlns="http://www.w3.org/2000/svg">
<g filter="url(#filter0_d_10_58)">
<g clip-path="url(#clip0_10_58)">
<g filter="url(#filter1_d_10_58)">
<rect x="7" y="58" width="384" height="64" rx="5" fill="white"/>
</g>
<rect width="384" height="64" transform="translate(7 58)" fill="white"/>
<g clip-path="url(#clip1_10_58)">
<path d="M29 88C33.9706 88 38 83.9706 38 79C38 74.0294 33.9706 70 29 70C24.0294 70 20 74.0294 20 79C20 83.9706 24.0294 88 29 88Z" stroke="#868383" stroke-width="1.5" stroke-linecap="round" stroke-linejoin="round"/>
<path d="M29 75V79" stroke="#868383" stroke-width="1.5" stroke-linecap="round" stroke-linejoin="round"/>
<path d="M29 83H29.01" stroke="#868383" stroke-width="1.5" stroke-linecap="round" stroke-linejoin="round"/>
</g>
<rect x="53" y="73" width="251" height="8" rx="3" fill="#D2CECE"/>
<rect x="53" y="94" width="112" height="8" rx="3" fill="#D2CECE"/>
<line x1="8" y1="59" x2="8" y2="125" stroke="#868383" stroke-width="2"/>
<g clip-path="url(#clip2_10_58)">
<path d="M372 88C376.971 88 381 83.9706 381 79C381 74.0294 376.971 70 372 70C367.029 70 363 74.0294 363 79C363 83.9706 367.029 88 372 88Z" stroke="#868383" stroke-width="1.5" stroke-linecap="round" stroke-linejoin="round"/>
<path d="M370 77L374 81M374 77L370 81" stroke="#868383" stroke-width="1.5" stroke-linecap="round" stroke-linejoin="round"/>
</g>
</g>
</g>
<defs>
<filter id="filter0_d_10_58" x="1" y="52" width="396" height="76" filterUnits="userSpaceOnUse" color-interpolation-filters="sRGB">
<feFlood flood-opacity="0" result="BackgroundImageFix"/>
<feColorMatrix in="SourceAlpha" type="matrix" values="0 0 0 0 0 0 0 0 0 0 0 0 0 0 0 0 0 0 127 0" result="hardAlpha"/>
<feOffset/>
<feGaussianBlur stdDeviation="3"/>
<feComposite in2="hardAlpha" operator="out"/>
<feColorMatrix type="matrix" values="0 0 0 0 0 0 0 0 0 0 0 0 0 0 0 0 0 0 0.15 0"/>
<feBlend mode="normal" in2="BackgroundImageFix" result="effect1_dropShadow_10_58"/>
<feBlend mode="normal" in="SourceGraphic" in2="effect1_dropShadow_10_58" result="shape"/>
</filter>
<filter id="filter1_d_10_58" x="-3" y="48" width="404" height="84" filterUnits="userSpaceOnUse" color-interpolation-filters="sRGB">
<feFlood flood-opacity="0" result="BackgroundImageFix"/>
<feColorMatrix in="SourceAlpha" type="matrix" values="0 0 0 0 0 0 0 0 0 0 0 0 0 0 0 0 0 0 127 0" result="hardAlpha"/>
<feOffset/>
<feGaussianBlur stdDeviation="5"/>
<feComposite in2="hardAlpha" operator="out"/>
<feColorMatrix type="matrix" values="0 0 0 0 0 0 0 0 0 0 0 0 0 0 0 0 0 0 0.15 0"/>
<feBlend mode="normal" in2="BackgroundImageFix" result="effect1_dropShadow_10_58"/>
<feBlend mode="normal" in="SourceGraphic" in2="effect1_dropShadow_10_58" result="shape"/>
</filter>
<clipPath id="clip0_10_58">
<rect x="7" y="58" width="384" height="64" rx="6" fill="white"/>
</clipPath>
<clipPath id="clip1_10_58">
<rect width="24" height="24" fill="white" transform="translate(17 67)"/>
</clipPath>
<clipPath id="clip2_10_58">
<rect width="24" height="24" fill="white" transform="translate(360 67)"/>
</clipPath>
</defs>
</svg>
