<svg width="852" height="615" viewBox="0 0 852 615" fill="none" xmlns="http://www.w3.org/2000/svg">
<rect width="852" height="615" fill="#F3F4F6"/>
<path d="M566.618 403.095L543.868 387.42C541.562 385.831 542.346 382.524 545.221 381.746L569.4 375.191C569.912 375.007 570.461 374.947 571.001 375.017C571.541 375.086 572.057 375.284 572.505 375.592C572.953 375.901 573.322 376.312 573.579 376.791C573.836 377.27 573.976 377.804 573.985 378.348L572.552 400.577C572.382 403.215 568.923 404.683 566.618 403.095Z" fill="#C2C2C2"/>
<path d="M559.402 406.964L545.999 380.784C545.693 380.185 545.558 379.513 545.61 378.842C545.661 378.172 545.897 377.528 546.292 376.983C546.686 376.438 547.224 376.012 547.845 375.753C548.466 375.493 549.147 375.41 549.813 375.513L574.651 379.342C575.223 379.43 575.766 379.653 576.235 379.991C576.704 380.33 577.086 380.775 577.349 381.289C577.612 381.804 577.75 382.374 577.75 382.952C577.749 383.53 577.612 384.099 577.349 384.614L565.906 406.965C565.599 407.563 565.133 408.064 564.559 408.414C563.985 408.763 563.326 408.948 562.654 408.948C561.982 408.948 561.323 408.763 560.749 408.413C560.175 408.063 559.709 407.562 559.402 406.964Z" fill="#C2C2C2"/>
<path d="M573.925 379.23L561.543 377.321L546.341 381.444L552.409 393.301L566.618 403.095C566.931 403.309 567.276 403.472 567.64 403.58L573.037 393.038L573.925 379.23Z" fill="#C2C2C2"/>
<path d="M636.642 382.29C636.642 381.83 636.778 381.381 637.034 380.998C637.289 380.616 637.653 380.318 638.078 380.142C638.503 379.966 638.971 379.92 639.423 380.01C639.874 380.1 640.289 380.321 640.614 380.646C640.939 380.971 641.161 381.385 641.251 381.836C641.341 382.287 641.295 382.754 641.118 383.179C640.942 383.604 640.644 383.967 640.261 384.222C639.879 384.478 639.429 384.614 638.969 384.614C638.353 384.608 637.765 384.361 637.33 383.926C636.895 383.492 636.648 382.904 636.642 382.29ZM637.03 385.75H640.909V398.663H637.03V385.75Z" fill="#C2C2C2"/>
<path d="M657.661 392.206C657.706 393.06 657.581 393.914 657.295 394.719C657.008 395.524 656.565 396.265 655.991 396.899C655.417 397.532 654.723 398.047 653.949 398.411C653.175 398.776 652.337 398.985 651.482 399.025C650.763 399.064 650.045 398.943 649.378 398.67C648.712 398.398 648.115 397.981 647.63 397.449V403.828H643.752V385.75H647.63V386.964C648.115 386.432 648.712 386.015 649.379 385.743C650.045 385.471 650.764 385.35 651.482 385.389C652.337 385.429 653.175 385.637 653.949 386.002C654.723 386.367 655.417 386.881 655.991 387.514C656.565 388.148 657.008 388.888 657.295 389.694C657.581 390.499 657.706 391.353 657.661 392.206ZM653.783 392.206C653.768 391.602 653.574 391.015 653.227 390.52C652.879 390.024 652.394 389.642 651.83 389.422C651.266 389.201 650.65 389.151 650.058 389.278C649.466 389.406 648.925 389.704 648.502 390.137C648.08 390.57 647.794 391.118 647.682 391.712C647.569 392.307 647.635 392.921 647.87 393.478C648.105 394.035 648.5 394.511 649.004 394.845C649.509 395.18 650.101 395.358 650.706 395.358C651.122 395.377 651.537 395.307 651.924 395.154C652.311 395.001 652.661 394.769 652.952 394.471C653.242 394.173 653.467 393.818 653.61 393.427C653.753 393.037 653.812 392.621 653.783 392.206Z" fill="#C2C2C2"/>
<path d="M669.63 394.787C669.63 397.757 667.045 399.023 664.252 399.023C663.125 399.125 661.992 398.886 661.001 398.338C660.01 397.79 659.207 396.958 658.694 395.948L662.055 394.038C662.192 394.505 662.484 394.91 662.884 395.187C663.284 395.464 663.767 395.595 664.252 395.558C665.183 395.558 665.647 395.273 665.647 394.758C665.647 393.337 659.288 394.086 659.288 389.618C659.288 386.803 661.666 385.383 664.36 385.383C665.371 385.351 666.372 385.591 667.258 386.077C668.145 386.563 668.885 387.277 669.401 388.146L666.093 389.928C665.948 389.589 665.706 389.3 665.398 389.097C665.09 388.895 664.729 388.787 664.36 388.788C663.688 388.788 663.275 389.041 663.275 389.511C663.271 390.993 669.63 390.012 669.63 394.787Z" fill="#C2C2C2"/>
<path d="M683.804 385.75V398.663H679.926V397.447C679.479 397.983 678.909 398.405 678.266 398.679C677.625 398.952 676.926 399.07 676.229 399.023C673.618 399.023 671.395 397.163 671.395 393.676V385.75H675.272V393.111C675.239 393.419 675.275 393.73 675.375 394.023C675.475 394.316 675.638 394.583 675.852 394.807C676.066 395.031 676.326 395.205 676.614 395.318C676.903 395.431 677.213 395.48 677.522 395.461C678.944 395.461 679.931 394.635 679.931 392.801V385.75H683.804Z" fill="#C2C2C2"/>
<path d="M706.032 390.733V398.662H702.154V391.07C702.154 389.779 701.533 388.952 700.292 388.952C698.999 388.952 698.276 389.857 698.276 391.38V398.662H694.397V391.07C694.397 389.779 693.777 388.952 692.535 388.952C691.243 388.952 690.519 389.857 690.519 391.38V398.662H686.641V385.75H690.525V386.933C690.927 386.406 691.455 385.989 692.06 385.718C692.665 385.447 693.329 385.332 693.99 385.384C694.653 385.352 695.315 385.491 695.909 385.79C696.502 386.089 697.008 386.536 697.377 387.088C697.807 386.51 698.376 386.051 699.032 385.753C699.687 385.455 700.409 385.328 701.127 385.384C704.094 385.389 706.032 387.506 706.032 390.733Z" fill="#C2C2C2"/>
<path d="M709.318 385.671C710.908 385.671 712.196 384.383 712.196 382.795C712.196 381.207 710.908 379.92 709.318 379.92C707.727 379.92 706.439 381.207 706.439 382.795C706.439 384.383 707.727 385.671 709.318 385.671Z" fill="#C2C2C2"/>
<path d="M583.695 379.811H587.574V398.663H583.695V379.811ZM589.771 392.207C589.767 390.853 590.165 389.528 590.914 388.401C591.664 387.273 592.732 386.393 593.983 385.872C595.234 385.351 596.612 385.212 597.941 385.474C599.271 385.735 600.493 386.385 601.453 387.341C602.413 388.297 603.067 389.515 603.333 390.843C603.599 392.17 603.465 393.547 602.947 394.798C602.43 396.049 601.552 397.118 600.425 397.871C599.299 398.623 597.974 399.025 596.619 399.025C595.719 399.035 594.826 398.865 593.992 398.526C593.158 398.187 592.4 397.686 591.763 397.051C591.125 396.416 590.621 395.661 590.279 394.829C589.937 393.997 589.764 393.106 589.771 392.207ZM599.596 392.207C599.581 391.623 599.394 391.056 599.058 390.578C598.722 390.1 598.253 389.731 597.708 389.518C597.163 389.305 596.568 389.257 595.996 389.38C595.425 389.504 594.902 389.792 594.494 390.211C594.086 390.629 593.81 391.158 593.702 391.732C593.593 392.306 593.656 392.899 593.883 393.438C594.11 393.976 594.492 394.435 594.979 394.759C595.466 395.082 596.038 395.254 596.622 395.254C597.023 395.266 597.422 395.194 597.793 395.044C598.164 394.894 598.5 394.669 598.78 394.382C599.06 394.096 599.278 393.755 599.419 393.38C599.56 393.006 599.622 392.606 599.601 392.207H599.596ZM618.934 385.747V398.014C618.934 402.353 615.547 404.186 612.109 404.186C610.899 404.277 609.687 404.033 608.606 403.482C607.525 402.931 606.617 402.093 605.981 401.061L609.29 399.149C609.557 399.688 609.982 400.133 610.509 400.424C611.036 400.715 611.639 400.838 612.238 400.777C612.62 400.829 613.009 400.795 613.377 400.677C613.744 400.558 614.08 400.36 614.36 400.094C614.64 399.829 614.856 399.505 614.994 399.145C615.132 398.785 615.187 398.398 615.155 398.014V396.826C614.7 397.381 614.122 397.822 613.467 398.113C612.811 398.405 612.096 398.539 611.38 398.505C609.673 398.451 608.055 397.737 606.866 396.513C605.678 395.288 605.014 393.65 605.014 391.945C605.014 390.24 605.678 388.602 606.866 387.377C608.055 386.153 609.673 385.439 611.38 385.386C612.096 385.351 612.811 385.485 613.467 385.777C614.122 386.068 614.7 386.509 615.155 387.064V385.747H618.934ZM615.16 391.944C615.185 391.321 615.024 390.704 614.695 390.173C614.367 389.642 613.887 389.221 613.317 388.964C612.748 388.708 612.114 388.627 611.498 388.733C610.883 388.839 610.313 389.127 609.862 389.559C609.411 389.991 609.099 390.548 608.968 391.158C608.837 391.769 608.891 392.404 609.124 392.983C609.357 393.562 609.758 394.059 610.276 394.408C610.793 394.758 611.404 394.945 612.029 394.945C612.436 394.974 612.845 394.917 613.229 394.778C613.613 394.639 613.964 394.422 614.259 394.14C614.554 393.857 614.787 393.517 614.942 393.139C615.097 392.762 615.171 392.356 615.16 391.948V391.944ZM621.13 392.198C621.126 390.844 621.524 389.519 622.274 388.392C623.024 387.264 624.092 386.384 625.342 385.863C626.593 385.342 627.971 385.204 629.301 385.465C630.63 385.727 631.853 386.376 632.812 387.332C633.772 388.288 634.427 389.506 634.693 390.834C634.959 392.161 634.824 393.538 634.307 394.789C633.789 396.04 632.911 397.109 631.785 397.862C630.658 398.615 629.333 399.016 627.978 399.016C627.079 399.026 626.186 398.856 625.353 398.518C624.52 398.18 623.763 397.679 623.125 397.045C622.488 396.411 621.983 395.657 621.641 394.826C621.298 393.995 621.125 393.105 621.13 392.207V392.198ZM630.955 392.198C630.94 391.614 630.753 391.047 630.418 390.568C630.082 390.089 629.612 389.72 629.067 389.507C628.522 389.294 627.926 389.246 627.354 389.369C626.782 389.492 626.259 389.781 625.851 390.2C625.443 390.618 625.167 391.148 625.058 391.722C624.95 392.297 625.013 392.89 625.24 393.429C625.468 393.967 625.849 394.427 626.337 394.75C626.824 395.073 627.397 395.245 627.982 395.245C628.381 395.256 628.778 395.184 629.148 395.034C629.518 394.884 629.854 394.66 630.133 394.374C630.412 394.089 630.629 393.749 630.771 393.376C630.912 393.003 630.975 392.605 630.955 392.207V392.198Z" fill="#C2C2C2"/>
<path fill-rule="evenodd" clip-rule="evenodd" d="M422.676 376.407C424.064 375.02 426.314 375.02 427.701 376.407C429.089 377.795 429.089 380.045 427.701 381.433L419.241 389.894C416.811 386.638 417.075 382.008 420.032 379.051L422.676 376.407Z" fill="#C2C2C2"/>
<path fill-rule="evenodd" clip-rule="evenodd" d="M434.771 395.497C436.159 396.884 436.159 399.134 434.771 400.522C433.384 401.91 431.133 401.91 429.746 400.522L421.285 392.061C424.54 389.632 429.17 389.896 432.127 392.853L434.771 395.497Z" fill="#C2C2C2"/>
<path fill-rule="evenodd" clip-rule="evenodd" d="M415.682 407.592C414.294 408.98 412.044 408.98 410.657 407.592C409.269 406.205 409.269 403.955 410.657 402.567L419.117 394.106C421.547 397.362 421.283 401.992 418.326 404.949L415.682 407.592Z" fill="#C2C2C2"/>
<path fill-rule="evenodd" clip-rule="evenodd" d="M403.586 388.503C402.198 387.115 402.198 384.865 403.586 383.477C404.974 382.09 407.224 382.09 408.612 383.477L417.073 391.938C413.817 394.367 409.187 394.104 406.23 391.147L403.586 388.503Z" fill="#C2C2C2"/>
<path fill-rule="evenodd" clip-rule="evenodd" d="M420.785 406.556C422.831 404.281 423.782 401.37 423.638 398.503L427.701 402.567C427.711 402.577 427.721 402.587 427.732 402.597V405.498C427.732 407.461 426.141 409.052 424.178 409.052C422.584 409.052 421.235 408.002 420.785 406.556Z" fill="#C2C2C2"/>
<path fill-rule="evenodd" clip-rule="evenodd" d="M404.623 393.606C406.898 395.652 409.809 396.603 412.676 396.459L408.612 400.523C408.602 400.533 408.592 400.543 408.582 400.553H405.681C403.718 400.553 402.127 398.962 402.127 396.999C402.127 395.405 403.177 394.056 404.623 393.606Z" fill="#C2C2C2"/>
<path fill-rule="evenodd" clip-rule="evenodd" d="M433.735 390.394C431.46 388.348 428.549 387.397 425.683 387.541L429.746 383.478C429.756 383.468 429.766 383.457 429.776 383.447H432.677C434.64 383.447 436.231 385.038 436.231 387.001C436.231 388.595 435.181 389.944 433.735 390.394Z" fill="#C2C2C2"/>
<path fill-rule="evenodd" clip-rule="evenodd" d="M417.573 377.444C415.527 379.719 414.576 382.63 414.72 385.497L410.656 381.433C410.646 381.423 410.636 381.413 410.626 381.403V378.502C410.626 376.539 412.217 374.948 414.18 374.948C415.774 374.948 417.123 375.998 417.573 377.444Z" fill="#C2C2C2"/>
<path fill-rule="evenodd" clip-rule="evenodd" d="M414.18 372.057C410.621 372.057 407.735 374.943 407.735 378.502V379.756C405.594 379.196 403.221 379.755 401.542 381.433C399.026 383.95 399.026 388.031 401.542 390.548L402.429 391.434C400.519 392.553 399.236 394.626 399.236 396.999C399.236 400.559 402.122 403.444 405.681 403.444H406.935C406.375 405.586 406.934 407.959 408.612 409.637C411.129 412.154 415.21 412.154 417.727 409.637L420.371 406.993C422.703 404.661 423.792 401.557 423.638 398.503L427.702 402.567C430.219 405.084 434.299 405.084 436.816 402.567C439.333 400.05 439.333 395.969 436.816 393.452L435.93 392.566C437.839 391.448 439.122 389.374 439.122 387.001C439.122 383.442 436.236 380.556 432.677 380.556H431.424C431.983 378.415 431.424 376.041 429.746 374.363C427.229 371.846 423.149 371.846 420.632 374.363L417.988 377.007C415.656 379.339 414.567 382.443 414.72 385.497L410.657 381.433C410.647 381.423 410.637 381.413 410.626 381.403V378.502C410.626 376.539 412.217 374.948 414.18 374.948C415.774 374.948 417.123 375.998 417.573 377.444C417.707 377.295 417.845 377.15 417.988 377.007L419.745 375.25C418.627 373.34 416.553 372.057 414.18 372.057ZM429.776 383.447C429.766 383.457 429.756 383.468 429.746 383.478L425.683 387.541C428.549 387.397 431.46 388.348 433.735 390.394C435.181 389.944 436.231 388.595 436.231 387.001C436.231 385.038 434.64 383.447 432.677 383.447H429.776ZM408.582 400.553C408.592 400.543 408.602 400.533 408.612 400.522L412.676 396.459C409.809 396.603 406.898 395.652 404.623 393.606C403.177 394.056 402.128 395.405 402.128 396.999C402.128 398.962 403.719 400.553 405.681 400.553H408.582ZM424.179 411.943C421.805 411.943 419.732 410.66 418.613 408.751L420.371 406.993C420.513 406.85 420.652 406.705 420.785 406.556C421.235 408.002 422.584 409.052 424.179 409.052C426.141 409.052 427.732 407.461 427.732 405.498V402.597C428.565 403.419 429.566 403.968 430.623 404.245V405.498C430.623 409.058 427.738 411.943 424.179 411.943ZM427.702 376.408C426.314 375.02 424.064 375.02 422.676 376.408L420.032 379.051C417.075 382.008 416.812 386.639 419.241 389.894L427.702 381.433C429.089 380.045 429.089 377.795 427.702 376.408ZM434.771 400.522C436.159 399.135 436.159 396.885 434.771 395.497L432.128 392.853C429.171 389.896 424.541 389.632 421.285 392.061L429.746 400.522C431.134 401.91 433.384 401.91 434.771 400.522ZM415.682 407.592C414.295 408.98 412.045 408.98 410.657 407.592C409.269 406.205 409.269 403.955 410.657 402.567L419.118 394.106C421.547 397.362 421.283 401.992 418.326 404.949L415.682 407.592ZM403.587 383.478C402.199 384.866 402.199 387.116 403.587 388.503L406.231 391.147C409.188 394.104 413.818 394.368 417.073 391.939L408.612 383.478C407.225 382.09 404.975 382.09 403.587 383.478Z" fill="#C2C2C2"/>
<path d="M351.533 385.09H354.693V394.911H360.122V397.572H351.533V385.09Z" fill="#C2C2C2"/>
<path d="M365.86 397.839C364.801 397.839 363.872 397.649 363.075 397.268C362.277 396.875 361.658 396.339 361.218 395.661C360.789 394.97 360.575 394.179 360.575 393.286C360.575 392.393 360.789 391.607 361.218 390.929C361.658 390.238 362.277 389.703 363.075 389.322C363.872 388.929 364.801 388.732 365.86 388.732C366.92 388.732 367.848 388.929 368.646 389.322C369.444 389.703 370.057 390.238 370.485 390.929C370.926 391.607 371.146 392.393 371.146 393.286C371.146 394.179 370.926 394.97 370.485 395.661C370.057 396.339 369.444 396.875 368.646 397.268C367.848 397.649 366.92 397.839 365.86 397.839ZM365.86 395.393C366.491 395.393 366.991 395.208 367.36 394.839C367.741 394.458 367.932 393.941 367.932 393.286C367.932 392.631 367.741 392.119 367.36 391.75C366.991 391.369 366.491 391.179 365.86 391.179C365.229 391.179 364.723 391.369 364.343 391.75C363.973 392.119 363.789 392.631 363.789 393.286C363.789 393.941 363.973 394.458 364.343 394.839C364.723 395.208 365.229 395.393 365.86 395.393Z" fill="#C2C2C2"/>
<path d="M377.049 401.679C376.478 401.679 375.901 401.625 375.317 401.518C374.746 401.411 374.252 401.268 373.835 401.089V398.911C374.776 399.315 375.847 399.518 377.049 399.518C377.918 399.518 378.543 399.339 378.924 398.982C379.317 398.625 379.514 398.101 379.514 397.411V396.893C379.168 397.191 378.74 397.423 378.228 397.589C377.728 397.756 377.192 397.839 376.621 397.839C375.716 397.839 374.919 397.649 374.228 397.268C373.538 396.887 372.996 396.351 372.603 395.661C372.222 394.97 372.032 394.179 372.032 393.286C372.032 392.381 372.222 391.584 372.603 390.893C372.984 390.203 373.52 389.673 374.21 389.304C374.901 388.923 375.692 388.732 376.585 388.732C377.811 388.732 378.823 389.107 379.621 389.857V389H382.656V396.982C382.656 398.47 382.198 399.625 381.281 400.446C380.377 401.268 378.966 401.679 377.049 401.679ZM377.407 395.411C377.895 395.411 378.329 395.286 378.71 395.036C379.091 394.786 379.359 394.453 379.514 394.036V392.536C379.347 392.119 379.073 391.792 378.692 391.554C378.311 391.304 377.883 391.179 377.407 391.179C376.764 391.179 376.246 391.369 375.853 391.75C375.46 392.119 375.264 392.625 375.264 393.268C375.264 393.923 375.46 394.447 375.853 394.839C376.246 395.22 376.764 395.411 377.407 395.411Z" fill="#C2C2C2"/>
<path d="M388.739 397.839C387.68 397.839 386.751 397.649 385.954 397.268C385.156 396.875 384.537 396.339 384.097 395.661C383.668 394.97 383.454 394.179 383.454 393.286C383.454 392.393 383.668 391.607 384.097 390.929C384.537 390.238 385.156 389.703 385.954 389.322C386.751 388.929 387.68 388.732 388.739 388.732C389.799 388.732 390.727 388.929 391.525 389.322C392.322 389.703 392.936 390.238 393.364 390.929C393.805 391.607 394.025 392.393 394.025 393.286C394.025 394.179 393.805 394.97 393.364 395.661C392.936 396.339 392.322 396.875 391.525 397.268C390.727 397.649 389.799 397.839 388.739 397.839ZM388.739 395.393C389.37 395.393 389.87 395.208 390.239 394.839C390.62 394.458 390.811 393.941 390.811 393.286C390.811 392.631 390.62 392.119 390.239 391.75C389.87 391.369 389.37 391.179 388.739 391.179C388.108 391.179 387.602 391.369 387.221 391.75C386.852 392.119 386.668 392.631 386.668 393.286C386.668 393.941 386.852 394.458 387.221 394.839C387.602 395.208 388.108 395.393 388.739 395.393Z" fill="#C2C2C2"/>
<path d="M444.432 385.09H447.593V397.572H444.432V385.09Z" fill="#C2C2C2"/>
<path d="M449.193 389H452.229V389.857C453.026 389.107 454.038 388.732 455.264 388.732C456.157 388.732 456.949 388.923 457.639 389.304C458.33 389.673 458.865 390.203 459.246 390.893C459.627 391.572 459.818 392.363 459.818 393.268C459.818 394.161 459.627 394.958 459.246 395.661C458.865 396.351 458.33 396.887 457.639 397.268C456.961 397.649 456.169 397.839 455.264 397.839C454.693 397.839 454.145 397.75 453.622 397.571C453.11 397.405 452.681 397.173 452.336 396.875V401.482H449.193V389ZM454.443 395.393C455.086 395.393 455.604 395.203 455.996 394.822C456.389 394.441 456.586 393.923 456.586 393.268C456.586 392.613 456.389 392.101 455.996 391.732C455.604 391.351 455.086 391.161 454.443 391.161C453.967 391.161 453.538 391.286 453.157 391.536C452.776 391.774 452.503 392.101 452.336 392.518V394.036C452.503 394.453 452.776 394.786 453.157 395.036C453.538 395.274 453.967 395.393 454.443 395.393Z" fill="#C2C2C2"/>
<path d="M464.503 397.839C463.813 397.839 463.093 397.768 462.343 397.625C461.593 397.494 460.997 397.304 460.557 397.054V394.75C461.045 395.036 461.628 395.274 462.307 395.464C462.997 395.643 463.628 395.732 464.2 395.732C464.616 395.732 464.92 395.702 465.11 395.643C465.301 395.583 465.396 395.464 465.396 395.286C465.396 395.143 465.331 395.03 465.2 394.947C465.081 394.851 464.854 394.756 464.521 394.661C464.2 394.554 463.825 394.441 463.396 394.322C462.67 394.107 462.099 393.887 461.682 393.661C461.265 393.435 460.956 393.149 460.753 392.804C460.551 392.459 460.45 392.024 460.45 391.5C460.45 390.572 460.813 389.881 461.539 389.429C462.277 388.965 463.283 388.732 464.557 388.732C465.176 388.732 465.825 388.798 466.503 388.929C467.194 389.06 467.711 389.232 468.057 389.447V391.715C467.7 391.476 467.223 391.28 466.628 391.125C466.045 390.97 465.497 390.893 464.985 390.893C464.581 390.893 464.265 390.935 464.039 391.018C463.813 391.09 463.7 391.22 463.7 391.411C463.7 391.59 463.813 391.726 464.039 391.822C464.265 391.917 464.67 392.036 465.253 392.179C465.634 392.274 465.795 392.316 465.735 392.304C466.497 392.506 467.086 392.732 467.503 392.982C467.92 393.232 468.211 393.53 468.378 393.875C468.557 394.208 468.646 394.637 468.646 395.161C468.646 395.982 468.289 396.637 467.575 397.125C466.872 397.601 465.848 397.839 464.503 397.839Z" fill="#C2C2C2"/>
<path d="M473.338 397.84C472.16 397.84 471.273 397.512 470.678 396.857C470.095 396.203 469.803 395.34 469.803 394.268V389H472.946V393.911C472.946 394.899 473.392 395.393 474.285 395.393C474.69 395.393 475.059 395.298 475.392 395.107C475.725 394.917 475.999 394.637 476.213 394.268V389H479.356V397.572H476.321V396.643C475.952 397.036 475.505 397.334 474.981 397.536C474.458 397.738 473.91 397.84 473.338 397.84Z" fill="#C2C2C2"/>
<path d="M480.965 389H483.876V389.929C484.233 389.548 484.644 389.256 485.108 389.054C485.572 388.84 486.066 388.732 486.59 388.732C487.233 388.732 487.745 388.828 488.126 389.018C488.519 389.209 488.834 389.494 489.072 389.875C489.429 389.518 489.864 389.238 490.376 389.036C490.888 388.834 491.406 388.732 491.929 388.732C493.06 388.732 493.864 389.024 494.34 389.607C494.816 390.179 495.054 391.006 495.054 392.089V397.571H492.054V392.536C492.054 392.06 491.965 391.715 491.786 391.5C491.608 391.286 491.31 391.179 490.894 391.179C490.358 391.179 489.923 391.369 489.59 391.75C489.602 391.953 489.608 392.262 489.608 392.679V397.571H486.608V392.411C486.608 391.97 486.531 391.655 486.376 391.465C486.221 391.274 485.947 391.179 485.555 391.179C484.947 391.179 484.424 391.518 483.983 392.197V397.571H480.965V389Z" fill="#C2C2C2"/>
<path fill-rule="evenodd" clip-rule="evenodd" d="M179.605 372.724C178.111 371.231 175.689 371.231 174.196 372.725L161.735 385.192L161.724 385.188L161.685 385.193C161.701 385.2 161.717 385.208 161.733 385.216C159.547 385.445 158.619 386.102 158.609 386.945C158.613 387.259 158.741 387.598 158.978 387.95L158.966 387.961C160.954 390.959 170.799 394.913 177.764 392.234C172.544 394.844 160.25 395.361 156.639 390.293C155.855 391.142 155.527 392.256 155.651 393.328C156.605 398.585 167.269 400.019 177.933 392.402L180.241 394.71C177.369 397.66 173.128 414.797 179.43 412.18C179.58 412.079 179.707 411.988 179.879 411.857L180.16 411.592C180.144 411.596 180.128 411.6 180.112 411.604L196.992 395.668C198.559 394.188 198.595 391.706 197.07 390.182L179.605 372.724ZM177.766 377.917L178.343 375.61L178.92 377.917L180.651 378.494L178.92 379.071L178.343 381.379L177.766 379.071L176.036 378.494L177.766 377.917ZM170.625 385.451L171.01 383.912L171.395 385.451L172.549 385.835L171.395 386.22L171.01 387.758L170.625 386.22L169.472 385.835L170.625 385.451ZM184.021 398.428L183.636 399.966L182.483 400.351L183.636 400.735L184.021 402.274L184.406 400.735L185.56 400.351L184.406 399.966L184.021 398.428Z" fill="#C2C2C2"/>
<path d="M207.898 381.275H204.316V397.439H214.232V394.271H207.898V381.275Z" fill="#C2C2C2"/>
<path d="M214.574 391.956C214.574 395.407 216.89 397.701 220.384 397.701C223.857 397.701 226.172 395.407 226.172 391.956C226.172 388.505 223.857 386.19 220.384 386.19C216.89 386.19 214.574 388.505 214.574 391.956ZM217.96 391.934C217.96 390.296 218.921 389.204 220.384 389.204C221.826 389.204 222.787 390.296 222.787 391.934C222.787 393.594 221.826 394.687 220.384 394.687C218.921 394.687 217.96 393.594 217.96 391.934Z" fill="#C2C2C2"/>
<path d="M226.714 391.782C226.714 395.08 228.854 397.308 231.89 397.308C233.354 397.308 234.62 396.784 235.254 395.932V397.439C235.254 398.946 234.315 399.951 232.655 399.951C231.169 399.951 230.143 399.252 230.077 398.007H226.67C226.976 400.999 229.291 403.009 232.458 403.009C236.193 403.009 238.552 400.584 238.552 396.74V386.518H235.516L235.341 387.632C234.73 386.736 233.441 386.146 231.956 386.146C228.898 386.146 226.714 388.44 226.714 391.782ZM230.121 391.694C230.121 390.122 231.169 389.073 232.502 389.073C234.053 389.073 235.188 390.1 235.188 391.694C235.188 393.289 234.074 394.381 232.524 394.381C231.191 394.381 230.121 393.289 230.121 391.694Z" fill="#C2C2C2"/>
<path d="M239.533 391.956C239.533 395.407 241.848 397.701 245.343 397.701C248.816 397.701 251.131 395.407 251.131 391.956C251.131 388.505 248.816 386.19 245.343 386.19C241.848 386.19 239.533 388.505 239.533 391.956ZM242.918 391.934C242.918 390.296 243.879 389.204 245.343 389.204C246.784 389.204 247.745 390.296 247.745 391.934C247.745 393.594 246.784 394.687 245.343 394.687C243.879 394.687 242.918 393.594 242.918 391.934Z" fill="#C2C2C2"/>
<path d="M254.031 384.814C255.079 384.814 255.931 383.962 255.931 382.892C255.931 381.822 255.079 380.992 254.031 380.992C252.961 380.992 252.109 381.822 252.109 382.892C252.109 383.962 252.961 384.814 254.031 384.814ZM252.327 397.439H255.713V386.518H252.327V397.439Z" fill="#C2C2C2"/>
<path d="M257.683 402.681H261.003V396.346C261.637 397.176 263.078 397.744 264.586 397.744C267.84 397.744 269.806 395.254 269.718 391.803C269.631 388.287 267.6 386.168 264.564 386.168C263.013 386.168 261.55 386.845 260.938 387.85L260.763 386.517H257.683V402.681ZM261.069 391.978C261.069 390.34 262.161 389.248 263.734 389.248C265.328 389.248 266.333 390.362 266.333 391.978C266.333 393.594 265.328 394.708 263.734 394.708C262.161 394.708 261.069 393.616 261.069 391.978Z" fill="#C2C2C2"/>
<path d="M270.077 393.987C270.164 396.194 271.912 397.722 274.664 397.722C277.307 397.722 279.142 396.325 279.142 394.075C279.142 392.459 278.18 391.388 276.389 390.951L274.445 390.471C273.746 390.296 273.31 390.121 273.31 389.554C273.31 388.986 273.768 388.614 274.445 388.614C275.21 388.614 275.712 389.117 275.69 389.859H278.727C278.639 387.588 276.914 386.168 274.511 386.168C272.086 386.168 270.274 387.61 270.274 389.794C270.274 391.257 271.082 392.459 273.244 393.026L275.166 393.529C275.734 393.682 275.974 393.944 275.974 394.315C275.974 394.861 275.472 395.211 274.62 395.211C273.637 395.211 273.113 394.752 273.113 393.987H270.077Z" fill="#C2C2C2"/>
<path d="M284.29 397.723C285.623 397.723 286.955 397.111 287.632 396.215L287.851 397.439H291.018V386.518H287.654V392.197C287.654 393.835 287.173 394.73 285.623 394.73C284.421 394.73 283.635 394.184 283.635 392.153V386.518H280.271V393.376C280.271 395.975 281.713 397.723 284.29 397.723Z" fill="#C2C2C2"/>
<path d="M296.352 397.439V391.476C296.352 389.641 297.335 389.117 298.296 389.117C299.366 389.117 300.065 389.772 300.065 391.126V397.439H303.385V391.476C303.385 389.619 304.346 389.095 305.307 389.095C306.377 389.095 307.098 389.75 307.098 391.126V397.439H310.375V390.296C310.375 387.806 309.064 386.146 306.246 386.146C304.674 386.146 303.385 386.911 302.817 388.09C302.162 386.911 301.026 386.146 299.213 386.146C298.012 386.146 296.898 386.692 296.243 387.566L296.112 386.518H292.966V397.439H296.352Z" fill="#C2C2C2"/>
<path fill-rule="evenodd" clip-rule="evenodd" d="M198.292 374.251C194.683 374.251 191.261 375.854 188.95 378.627L180.731 388.49L185.477 381.37L177.599 384.747C176.599 385.176 176.348 386.479 177.117 387.249L179.653 389.784L178.358 391.337L181.206 394.185L182.759 392.89L185.294 395.426C186.064 396.195 187.368 395.944 187.796 394.944L191.173 387.066L184.054 391.812L193.916 383.593C196.689 381.282 198.292 377.86 198.292 374.251ZM190.461 382.083C191.247 382.869 192.522 382.869 193.308 382.083C194.095 381.296 194.095 380.021 193.308 379.235C192.522 378.449 191.247 378.449 190.461 379.235C189.674 380.021 189.674 381.296 190.461 382.083Z" fill="#C2C2C2"/>
<path opacity="0.6" d="M156.548 390.161C158.433 396.621 169.897 396.284 177.761 392.235C172.495 394.867 160.037 395.369 156.548 390.161Z" fill="#C2C2C2"/>
<path opacity="0.6" d="M179.43 412.18C174.119 414.385 176.295 402.564 178.83 397.024C176.982 401.949 175.405 412.804 180.16 411.592L179.879 411.857C179.707 411.988 179.58 412.079 179.43 412.18Z" fill="#C2C2C2"/>
<g clip-path="url(#clip0_29_142)">
<path d="M578.565 279.274H582.56V301.063H589.133V304.695H578.565V279.274Z" fill="#C2C2C2"/>
<path d="M596.681 305.059C594.72 305.059 593.219 304.502 592.178 303.388C591.137 302.274 590.617 300.701 590.617 298.667V285.303C590.617 283.269 591.137 281.696 592.178 280.582C593.219 279.468 594.72 278.912 596.681 278.912C598.642 278.912 600.143 279.468 601.184 280.582C602.225 281.696 602.746 283.269 602.746 285.303V298.667C602.746 300.701 602.225 302.274 601.184 303.388C600.143 304.502 598.642 305.059 596.681 305.059ZM596.681 301.427C598.061 301.427 598.751 300.592 598.751 298.921V285.049C598.751 283.378 598.061 282.543 596.681 282.543C595.301 282.543 594.611 283.378 594.611 285.049V298.921C594.611 300.592 595.301 301.427 596.681 301.427Z" fill="#C2C2C2"/>
<path d="M611.112 305.059C609.176 305.059 607.699 304.514 606.682 303.424C605.665 302.311 605.157 300.725 605.157 298.667V285.303C605.157 283.245 605.665 281.672 606.682 280.582C607.699 279.468 609.176 278.912 611.112 278.912C613.049 278.912 614.526 279.468 615.543 280.582C616.56 281.672 617.068 283.245 617.068 285.303V287.482H613.291V285.049C613.291 283.378 612.601 282.543 611.221 282.543C609.841 282.543 609.151 283.378 609.151 285.049V298.958C609.151 300.604 609.841 301.427 611.221 301.427C612.601 301.427 613.291 300.604 613.291 298.958V293.982H611.294V290.351H617.068V298.667C617.068 300.725 616.56 302.311 615.543 303.424C614.526 304.514 613.049 305.059 611.112 305.059Z" fill="#C2C2C2"/>
<path d="M625.407 305.059C623.446 305.059 621.945 304.502 620.904 303.388C619.863 302.274 619.342 300.701 619.342 298.667V285.303C619.342 283.269 619.863 281.696 620.904 280.582C621.945 279.468 623.446 278.912 625.407 278.912C627.368 278.912 628.869 279.468 629.91 280.582C630.951 281.696 631.472 283.269 631.472 285.303V298.667C631.472 300.701 630.951 302.274 629.91 303.388C628.869 304.502 627.368 305.059 625.407 305.059ZM625.407 301.427C626.787 301.427 627.477 300.592 627.477 298.921V285.049C627.477 283.378 626.787 282.543 625.407 282.543C624.027 282.543 623.337 283.378 623.337 285.049V298.921C623.337 300.592 624.027 301.427 625.407 301.427Z" fill="#C2C2C2"/>
<path d="M634.181 279.274H638.175V304.695H634.181V279.274Z" fill="#C2C2C2"/>
<path d="M641.167 279.274H647.05C649.035 279.274 650.524 279.807 651.517 280.872C652.51 281.938 653.006 283.499 653.006 285.557V288.063C653.006 290.121 652.51 291.682 651.517 292.747C650.524 293.813 649.035 294.345 647.05 294.345H645.162V304.695H641.167V279.274ZM647.05 290.714C647.704 290.714 648.188 290.532 648.503 290.169C648.842 289.806 649.011 289.188 649.011 288.317V285.303C649.011 284.431 648.842 283.814 648.503 283.451C648.188 283.088 647.704 282.906 647.05 282.906H645.162V290.714H647.05Z" fill="#C2C2C2"/>
<path d="M660.51 305.059C658.574 305.059 657.109 304.514 656.116 303.424C655.124 302.311 654.627 300.725 654.627 298.667V297.214H658.404V298.958C658.404 300.604 659.094 301.427 660.474 301.427C661.152 301.427 661.66 301.233 661.999 300.846C662.362 300.434 662.544 299.781 662.544 298.885C662.544 297.82 662.302 296.888 661.818 296.089C661.334 295.266 660.438 294.285 659.13 293.147C657.484 291.695 656.334 290.387 655.68 289.225C655.027 288.039 654.7 286.707 654.7 285.23C654.7 283.221 655.208 281.672 656.225 280.582C657.242 279.468 658.719 278.912 660.656 278.912C662.568 278.912 664.009 279.468 664.977 280.582C665.97 281.672 666.466 283.245 666.466 285.303V286.356H662.689V285.049C662.689 284.177 662.52 283.548 662.181 283.16C661.842 282.749 661.346 282.543 660.692 282.543C659.36 282.543 658.695 283.354 658.695 284.976C658.695 285.896 658.937 286.756 659.421 287.555C659.929 288.354 660.837 289.322 662.145 290.46C663.815 291.912 664.965 293.232 665.595 294.418C666.224 295.605 666.539 296.997 666.539 298.594C666.539 300.677 666.018 302.274 664.977 303.388C663.96 304.502 662.471 305.059 660.51 305.059Z" fill="#C2C2C2"/>
<path d="M674.64 305.058C672.703 305.058 671.226 304.513 670.209 303.424C669.192 302.31 668.684 300.725 668.684 298.667V279.274H672.679V298.957C672.679 299.829 672.848 300.458 673.187 300.846C673.55 301.233 674.059 301.427 674.712 301.427C675.366 301.427 675.862 301.233 676.201 300.846C676.564 300.458 676.746 299.829 676.746 298.957V279.274H680.595V298.667C680.595 300.725 680.087 302.31 679.07 303.424C678.053 304.513 676.576 305.058 674.64 305.058Z" fill="#C2C2C2"/>
<path d="M683.44 279.274H689.142L691.684 297.468H691.756L694.299 279.274H700V304.695H696.223V285.448H696.151L693.245 304.695H689.904L686.999 285.448H686.927V304.695H683.44V279.274Z" fill="#C2C2C2"/>
<path d="M540 304.695C544.914 304.695 548.898 300.711 548.898 295.797C548.898 290.882 544.914 286.898 540 286.898V293.127C541.474 293.127 542.67 294.322 542.67 295.797C542.67 297.271 541.474 298.466 540 298.466V304.695Z" fill="#C2C2C2"/>
<path d="M569.661 289.865C568.141 289.383 566.521 289.123 564.841 289.123C556.036 289.123 548.898 296.261 548.898 305.066C548.898 305.95 548.97 306.817 549.109 307.661H559.014C558.661 306.869 558.464 305.99 558.464 305.066C558.464 301.544 561.319 298.689 564.841 298.689C566.766 298.689 568.492 299.542 569.661 300.89V289.865Z" fill="#C2C2C2"/>
<path d="M541.564 278C542.302 284.674 547.96 289.865 554.831 289.865C561.701 289.865 567.359 284.674 568.097 278H558.551C557.962 279.477 556.518 280.521 554.831 280.521C553.143 280.521 551.699 279.477 551.11 278H541.564Z" fill="#C2C2C2"/>
</g>
<g clip-path="url(#clip1_29_142)">
<path d="M350.879 301.182L350.879 282.394L360.273 287.613V296.015L367.788 300.243L375.303 296.015V287.613L384.697 282.394V301.182L367.788 310.576L350.879 301.182Z" fill="#C2C2C2"/>
<path d="M393.7 299.697V283.915H396.676V296.991H403.891V299.697H393.7Z" fill="#C2C2C2"/>
<path d="M410.316 300.013C409.204 300.013 408.204 299.787 407.317 299.336C406.431 298.885 405.732 298.231 405.221 297.375C404.71 296.518 404.454 295.488 404.454 294.286V293.925C404.454 292.723 404.71 291.693 405.221 290.837C405.732 289.98 406.431 289.326 407.317 288.875C408.204 288.424 409.204 288.199 410.316 288.199C411.428 288.199 412.428 288.424 413.314 288.875C414.201 289.326 414.9 289.98 415.411 290.837C415.922 291.693 416.178 292.723 416.178 293.925V294.286C416.178 295.488 415.922 296.518 415.411 297.375C414.9 298.231 414.201 298.885 413.314 299.336C412.428 299.787 411.428 300.013 410.316 300.013ZM410.316 297.487C411.188 297.487 411.909 297.209 412.48 296.653C413.052 296.082 413.337 295.27 413.337 294.218V293.993C413.337 292.941 413.052 292.137 412.48 291.581C411.924 291.009 411.203 290.724 410.316 290.724C409.444 290.724 408.723 291.009 408.152 291.581C407.58 292.137 407.295 292.941 407.295 293.993V294.218C407.295 295.27 407.58 296.082 408.152 296.653C408.723 297.209 409.444 297.487 410.316 297.487Z" fill="#C2C2C2"/>
<path d="M417.244 294.151V293.79C417.244 292.618 417.477 291.618 417.943 290.791C418.409 289.95 419.025 289.311 419.792 288.875C420.573 288.424 421.423 288.199 422.339 288.199C423.361 288.199 424.136 288.379 424.662 288.74C425.188 289.101 425.571 289.476 425.811 289.867H426.217V288.514H429.013V301.681C429.013 302.447 428.787 303.056 428.336 303.507C427.886 303.973 427.284 304.206 426.533 304.206H419.048V301.726H425.541C425.962 301.726 426.172 301.501 426.172 301.05V298.141H425.766C425.616 298.382 425.406 298.63 425.135 298.885C424.864 299.126 424.504 299.329 424.053 299.494C423.602 299.659 423.031 299.742 422.339 299.742C421.423 299.742 420.573 299.524 419.792 299.088C419.025 298.637 418.409 297.998 417.943 297.172C417.477 296.33 417.244 295.323 417.244 294.151ZM423.151 297.262C424.023 297.262 424.752 296.984 425.338 296.428C425.924 295.872 426.217 295.09 426.217 294.083V293.858C426.217 292.836 425.924 292.054 425.338 291.513C424.767 290.957 424.038 290.679 423.151 290.679C422.279 290.679 421.55 290.957 420.964 291.513C420.378 292.054 420.085 292.836 420.085 293.858V294.083C420.085 295.09 420.378 295.872 420.964 296.428C421.55 296.984 422.279 297.262 423.151 297.262Z" fill="#C2C2C2"/>
<path d="M436.469 300.013C435.356 300.013 434.357 299.787 433.47 299.336C432.583 298.885 431.884 298.231 431.373 297.375C430.862 296.518 430.607 295.488 430.607 294.286V293.925C430.607 292.723 430.862 291.693 431.373 290.837C431.884 289.98 432.583 289.326 433.47 288.875C434.357 288.424 435.356 288.199 436.469 288.199C437.581 288.199 438.58 288.424 439.467 288.875C440.354 289.326 441.053 289.98 441.564 290.837C442.075 291.693 442.331 292.723 442.331 293.925V294.286C442.331 295.488 442.075 296.518 441.564 297.375C441.053 298.231 440.354 298.885 439.467 299.336C438.58 299.787 437.581 300.013 436.469 300.013ZM436.469 297.487C437.34 297.487 438.062 297.209 438.633 296.653C439.204 296.082 439.49 295.27 439.49 294.218V293.993C439.49 292.941 439.204 292.137 438.633 291.581C438.077 291.009 437.356 290.724 436.469 290.724C435.597 290.724 434.876 291.009 434.304 291.581C433.733 292.137 433.448 292.941 433.448 293.993V294.218C433.448 295.27 433.733 296.082 434.304 296.653C434.876 297.209 435.597 297.487 436.469 297.487Z" fill="#C2C2C2"/>
<path d="M443.938 299.697V288.515H446.779V299.697H443.938ZM445.358 287.207C444.847 287.207 444.411 287.042 444.051 286.711C443.705 286.38 443.532 285.944 443.532 285.403C443.532 284.862 443.705 284.426 444.051 284.096C444.411 283.765 444.847 283.6 445.358 283.6C445.884 283.6 446.32 283.765 446.666 284.096C447.012 284.426 447.185 284.862 447.185 285.403C447.185 285.944 447.012 286.38 446.666 286.711C446.32 287.042 445.884 287.207 445.358 287.207Z" fill="#C2C2C2"/>
<path d="M448.912 304.206V288.514H451.708V289.867H452.114C452.369 289.431 452.767 289.048 453.309 288.717C453.85 288.372 454.624 288.199 455.631 288.199C456.533 288.199 457.367 288.424 458.133 288.875C458.9 289.311 459.516 289.957 459.982 290.814C460.448 291.671 460.681 292.708 460.681 293.925V294.286C460.681 295.503 460.448 296.541 459.982 297.397C459.516 298.254 458.9 298.908 458.133 299.359C457.367 299.795 456.533 300.013 455.631 300.013C454.954 300.013 454.383 299.93 453.917 299.765C453.466 299.614 453.098 299.419 452.813 299.178C452.542 298.923 452.324 298.667 452.159 298.412H451.753V304.206H448.912ZM454.774 297.533C455.661 297.533 456.39 297.254 456.961 296.698C457.547 296.127 457.84 295.301 457.84 294.218V293.993C457.84 292.911 457.547 292.092 456.961 291.535C456.375 290.964 455.646 290.679 454.774 290.679C453.902 290.679 453.173 290.964 452.587 291.535C452.001 292.092 451.708 292.911 451.708 293.993V294.218C451.708 295.301 452.001 296.127 452.587 296.698C453.173 297.254 453.902 297.533 454.774 297.533Z" fill="#C2C2C2"/>
<path d="M466.919 300.013C465.461 300.013 464.266 299.697 463.334 299.066C462.403 298.434 461.839 297.533 461.643 296.36L464.259 295.684C464.364 296.21 464.537 296.623 464.777 296.924C465.033 297.224 465.341 297.442 465.702 297.578C466.077 297.698 466.483 297.758 466.919 297.758C467.58 297.758 468.069 297.645 468.385 297.42C468.7 297.179 468.858 296.886 468.858 296.541C468.858 296.195 468.708 295.932 468.407 295.751C468.107 295.556 467.626 295.398 466.964 295.278L466.333 295.165C465.551 295.015 464.837 294.812 464.191 294.557C463.545 294.286 463.026 293.918 462.635 293.452C462.245 292.986 462.049 292.385 462.049 291.648C462.049 290.536 462.455 289.687 463.267 289.101C464.078 288.499 465.146 288.199 466.468 288.199C467.716 288.199 468.753 288.477 469.579 289.033C470.406 289.589 470.947 290.318 471.203 291.22L468.565 292.031C468.445 291.46 468.197 291.054 467.821 290.814C467.46 290.574 467.009 290.453 466.468 290.453C465.927 290.453 465.514 290.551 465.228 290.746C464.943 290.927 464.8 291.182 464.8 291.513C464.8 291.874 464.95 292.144 465.251 292.325C465.551 292.49 465.957 292.618 466.468 292.708L467.099 292.821C467.941 292.971 468.7 293.174 469.377 293.429C470.068 293.67 470.609 294.023 471 294.489C471.406 294.94 471.609 295.556 471.609 296.338C471.609 297.51 471.18 298.419 470.323 299.066C469.482 299.697 468.347 300.013 466.919 300.013Z" fill="#C2C2C2"/>
<path d="M477.344 299.877C476.473 299.877 475.706 299.682 475.045 299.291C474.399 298.885 473.895 298.329 473.534 297.623C473.174 296.916 472.993 296.104 472.993 295.188V288.514H475.834V294.962C475.834 295.804 476.037 296.435 476.443 296.856C476.863 297.277 477.457 297.487 478.224 297.487C479.095 297.487 479.772 297.202 480.253 296.631C480.734 296.044 480.974 295.233 480.974 294.196V288.514H483.815V299.697H481.019V298.231H480.614C480.433 298.607 480.095 298.975 479.599 299.336C479.103 299.697 478.351 299.877 477.344 299.877Z" fill="#C2C2C2"/>
<path d="M485.962 299.697V288.514H488.757V289.732H489.163C489.358 289.356 489.682 289.033 490.132 288.762C490.583 288.477 491.177 288.334 491.914 288.334C492.71 288.334 493.349 288.492 493.83 288.807C494.311 289.108 494.679 289.506 494.935 290.002H495.34C495.596 289.521 495.957 289.123 496.423 288.807C496.889 288.492 497.55 288.334 498.407 288.334C499.098 288.334 499.722 288.484 500.278 288.785C500.849 289.07 501.3 289.514 501.631 290.115C501.976 290.701 502.149 291.445 502.149 292.347V299.697H499.308V292.55C499.308 291.934 499.151 291.475 498.835 291.175C498.519 290.859 498.076 290.701 497.505 290.701C496.859 290.701 496.355 290.912 495.994 291.332C495.649 291.738 495.476 292.324 495.476 293.091V299.697H492.635V292.55C492.635 291.934 492.477 291.475 492.162 291.175C491.846 290.859 491.403 290.701 490.831 290.701C490.185 290.701 489.682 290.912 489.321 291.332C488.975 291.738 488.802 292.324 488.802 293.091V299.697H485.962Z" fill="#C2C2C2"/>
</g>
<g clip-path="url(#clip2_29_142)">
<path fill-rule="evenodd" clip-rule="evenodd" d="M171.495 285.348C170.176 284.469 168.626 284 167.04 284V276C170.212 276 173.313 276.938 175.951 278.696C178.588 280.455 180.644 282.953 181.858 285.877C183.072 288.801 183.39 292.018 182.771 295.121C182.152 298.225 180.625 301.076 178.381 303.314C176.138 305.551 173.28 307.075 170.169 307.693C167.057 308.31 163.832 307.993 160.901 306.782C157.971 305.571 155.466 303.52 153.703 300.889C151.941 298.258 151 295.164 151 292H159.02C159.02 293.582 159.49 295.129 160.371 296.445C161.253 297.76 162.505 298.786 163.971 299.391C165.436 299.997 167.049 300.155 168.604 299.846C170.16 299.538 171.589 298.776 172.71 297.657C173.832 296.538 174.596 295.113 174.905 293.561C175.215 292.009 175.056 290.4 174.449 288.939C173.842 287.477 172.814 286.227 171.495 285.348Z" fill="#C2C2C2"/>
<path fill-rule="evenodd" clip-rule="evenodd" d="M159.02 276C159.02 277.051 158.812 278.091 158.409 279.061C158.006 280.032 157.416 280.914 156.671 281.657C155.926 282.4 155.042 282.989 154.069 283.391C153.096 283.793 152.053 284 151 284L151 292C153.106 292 155.192 291.586 157.138 290.782C159.084 289.978 160.852 288.799 162.342 287.314C163.831 285.828 165.013 284.064 165.819 282.123C166.625 280.182 167.04 278.101 167.04 276L159.02 276Z" fill="#C2C2C2"/>
<path d="M251.744 287.562H247.853V299.892H251.744V287.562Z" fill="#C2C2C2"/>
<path d="M248.286 285.253C248.692 285.659 249.201 285.862 249.811 285.862C250.421 285.862 250.922 285.659 251.312 285.253C251.702 284.831 251.897 284.323 251.897 283.731C251.897 283.122 251.702 282.615 251.312 282.209C250.922 281.803 250.421 281.6 249.811 281.6C249.201 281.6 248.692 281.803 248.286 282.209C247.895 282.615 247.7 283.122 247.7 283.731C247.7 284.323 247.895 284.831 248.286 285.253Z" fill="#C2C2C2"/>
<path d="M192.026 299.892V281.98H196.019V296.391H203.98V299.892H192.026Z" fill="#C2C2C2"/>
<path fill-rule="evenodd" clip-rule="evenodd" d="M211.17 300.171C209.899 300.171 208.746 299.892 207.712 299.334C206.694 298.758 205.889 297.98 205.295 296.999C204.702 296.018 204.405 294.919 204.405 293.701C204.405 292.484 204.702 291.393 205.295 290.429C205.889 289.465 206.694 288.703 207.712 288.145C208.729 287.57 209.882 287.283 211.17 287.283C212.459 287.283 213.612 287.562 214.629 288.12C215.647 288.678 216.452 289.448 217.045 290.429C217.639 291.393 217.936 292.484 217.936 293.701C217.936 294.919 217.639 296.018 217.045 296.999C216.452 297.98 215.647 298.758 214.629 299.334C213.612 299.892 212.459 300.171 211.17 300.171ZM211.17 296.644C211.73 296.644 212.222 296.526 212.646 296.289C213.069 296.035 213.392 295.689 213.612 295.249C213.849 294.792 213.968 294.276 213.968 293.701C213.968 293.126 213.849 292.627 213.612 292.205C213.375 291.765 213.044 291.427 212.62 291.19C212.213 290.936 211.73 290.809 211.17 290.809C210.628 290.809 210.145 290.936 209.721 291.19C209.297 291.427 208.966 291.765 208.729 292.205C208.491 292.644 208.373 293.152 208.373 293.727C208.373 294.285 208.491 294.792 208.729 295.249C208.966 295.689 209.297 296.035 209.721 296.289C210.145 296.526 210.628 296.644 211.17 296.644Z" fill="#C2C2C2"/>
<path fill-rule="evenodd" clip-rule="evenodd" d="M221.017 304.712C222.052 305.186 223.247 305.422 224.603 305.422C225.926 305.422 227.104 305.16 228.138 304.636C229.173 304.112 229.987 303.384 230.58 302.454C231.173 301.524 231.471 300.425 231.471 299.156V287.562H227.655V288.39C227.371 288.152 227.049 287.952 226.689 287.79C226.027 287.469 225.273 287.308 224.425 287.308C223.289 287.308 222.28 287.579 221.399 288.12C220.517 288.644 219.822 289.372 219.313 290.302C218.805 291.215 218.55 292.247 218.55 293.397C218.55 294.53 218.805 295.562 219.313 296.492C219.822 297.422 220.517 298.158 221.399 298.699C222.28 299.241 223.289 299.511 224.425 299.511C225.256 299.511 226.011 299.351 226.689 299.029C227.017 298.873 227.314 298.69 227.579 298.479V299.257C227.579 300.12 227.299 300.788 226.74 301.262C226.197 301.735 225.443 301.972 224.476 301.972C223.696 301.972 223.026 301.837 222.467 301.566C221.924 301.296 221.433 300.898 220.992 300.374L218.601 302.759C219.195 303.604 220 304.255 221.017 304.712ZM226.562 295.706C226.172 295.942 225.705 296.061 225.163 296.061C224.62 296.061 224.145 295.942 223.739 295.706C223.349 295.469 223.043 295.147 222.823 294.742C222.603 294.319 222.492 293.871 222.492 293.397C222.492 292.89 222.603 292.433 222.823 292.027C223.043 291.621 223.357 291.3 223.764 291.063C224.171 290.826 224.637 290.708 225.163 290.708C225.705 290.708 226.172 290.826 226.562 291.063C226.969 291.3 227.274 291.621 227.477 292.027C227.698 292.433 227.808 292.89 227.808 293.397C227.808 293.904 227.698 294.361 227.477 294.767C227.274 295.156 226.969 295.469 226.562 295.706Z" fill="#C2C2C2"/>
<path fill-rule="evenodd" clip-rule="evenodd" d="M239.66 300.171C238.388 300.171 237.234 299.892 236.201 299.334C235.183 298.758 234.378 297.98 233.784 296.999C233.191 296.018 232.894 294.919 232.894 293.701C232.894 292.484 233.191 291.393 233.784 290.429C234.378 289.465 235.183 288.703 236.201 288.145C237.218 287.57 238.371 287.283 239.66 287.283C240.948 287.283 242.101 287.562 243.118 288.12C244.135 288.678 244.941 289.448 245.534 290.429C246.128 291.393 246.424 292.484 246.424 293.701C246.424 294.919 246.128 296.018 245.534 296.999C244.941 297.98 244.135 298.758 243.118 299.334C242.101 299.892 240.948 300.171 239.66 300.171ZM239.66 296.644C240.219 296.644 240.71 296.526 241.134 296.289C241.558 296.035 241.88 295.689 242.101 295.249C242.338 294.792 242.457 294.276 242.457 293.701C242.457 293.126 242.338 292.627 242.101 292.205C241.863 291.765 241.533 291.427 241.109 291.19C240.702 290.936 240.219 290.809 239.66 290.809C239.117 290.809 238.633 290.936 238.21 291.19C237.785 291.427 237.455 291.765 237.218 292.205C236.98 292.644 236.861 293.152 236.861 293.727C236.861 294.285 236.98 294.792 237.218 295.249C237.455 295.689 237.785 296.035 238.21 296.289C238.633 296.526 239.117 296.644 239.66 296.644Z" fill="#C2C2C2"/>
<path fill-rule="evenodd" clip-rule="evenodd" d="M261.097 300.145C260.267 300.145 259.503 299.985 258.808 299.663C258.442 299.494 258.112 299.292 257.817 299.058V305.093H253.976V287.562H257.867V288.413C258.15 288.183 258.463 287.983 258.808 287.816C259.503 287.477 260.267 287.308 261.097 287.308C262.267 287.308 263.302 287.587 264.2 288.145C265.116 288.703 265.828 289.465 266.336 290.429C266.862 291.393 267.125 292.492 267.125 293.727C267.125 294.961 266.862 296.061 266.336 297.025C265.828 297.989 265.116 298.75 264.2 299.308C263.302 299.866 262.267 300.145 261.097 300.145ZM260.386 296.644C260.944 296.644 261.428 296.517 261.835 296.264C262.259 296.01 262.589 295.663 262.827 295.224C263.064 294.784 263.183 294.285 263.183 293.727C263.183 293.152 263.064 292.644 262.827 292.205C262.589 291.765 262.259 291.427 261.835 291.19C261.428 290.936 260.953 290.809 260.41 290.809C259.868 290.809 259.385 290.936 258.961 291.19C258.554 291.427 258.232 291.765 257.995 292.205C257.757 292.644 257.639 293.152 257.639 293.727C257.639 294.285 257.749 294.784 257.969 295.224C258.207 295.663 258.537 296.01 258.961 296.264C259.385 296.517 259.859 296.644 260.386 296.644Z" fill="#C2C2C2"/>
<path d="M270.933 299.917C271.645 300.104 272.365 300.196 273.094 300.196C274.637 300.196 275.858 299.841 276.757 299.131C277.672 298.421 278.13 297.465 278.13 296.264C278.13 295.486 277.986 294.86 277.698 294.387C277.41 293.896 277.037 293.507 276.579 293.22C276.121 292.932 275.637 292.704 275.129 292.535C274.62 292.366 274.137 292.222 273.68 292.103C273.222 291.985 272.849 291.85 272.56 291.698C272.272 291.545 272.128 291.342 272.128 291.089C272.128 290.852 272.238 290.674 272.458 290.556C272.679 290.421 273.009 290.353 273.45 290.353C273.908 290.353 274.374 290.446 274.849 290.632C275.341 290.818 275.782 291.139 276.171 291.596L278.384 289.364C277.825 288.653 277.096 288.12 276.197 287.765C275.316 287.393 274.349 287.207 273.298 287.207C272.298 287.207 271.424 287.376 270.679 287.714C269.932 288.053 269.355 288.518 268.949 289.11C268.542 289.685 268.338 290.37 268.338 291.165C268.338 291.909 268.483 292.526 268.771 293.017C269.059 293.49 269.432 293.862 269.889 294.133C270.347 294.404 270.831 294.615 271.339 294.767C271.848 294.92 272.331 295.063 272.789 295.199C273.247 295.317 273.62 295.461 273.908 295.63C274.214 295.782 274.366 296.01 274.366 296.315C274.366 296.552 274.239 296.738 273.984 296.873C273.747 297.008 273.4 297.076 272.942 297.076C272.28 297.076 271.67 296.958 271.111 296.721C270.551 296.467 270.068 296.12 269.661 295.681L267.448 297.913C267.872 298.37 268.381 298.776 268.974 299.131C269.585 299.469 270.238 299.731 270.933 299.917Z" fill="#C2C2C2"/>
<path d="M285.226 300.171C284.09 300.171 283.082 299.943 282.2 299.486C281.335 299.012 280.657 298.37 280.166 297.558C279.673 296.729 279.428 295.782 279.428 294.716V287.562H283.319V294.666C283.319 295.088 283.386 295.452 283.523 295.756C283.675 296.061 283.896 296.298 284.183 296.467C284.472 296.636 284.819 296.721 285.226 296.721C285.803 296.721 286.261 296.543 286.6 296.188C286.939 295.816 287.108 295.308 287.108 294.666V287.562H291V294.691C291 295.773 290.754 296.729 290.262 297.558C289.77 298.37 289.092 299.012 288.227 299.486C287.363 299.943 286.362 300.171 285.226 300.171Z" fill="#C2C2C2"/>
<path d="M296.825 287.562H292.934V299.892H296.825V292.687C296.825 292.264 296.91 291.909 297.079 291.621C297.266 291.334 297.512 291.114 297.817 290.961C298.122 290.792 298.47 290.708 298.859 290.708C299.419 290.708 299.885 290.885 300.258 291.241C300.649 291.579 300.844 292.061 300.844 292.687V299.892H304.735V292.687C304.735 292.264 304.82 291.909 304.989 291.621C305.176 291.334 305.421 291.114 305.727 290.961C306.032 290.792 306.38 290.708 306.769 290.708C307.329 290.708 307.795 290.885 308.168 291.241C308.558 291.579 308.753 292.061 308.753 292.687V299.892H312.645V292.255C312.645 291.224 312.424 290.344 311.983 289.617C311.559 288.873 310.974 288.306 310.228 287.917C309.499 287.511 308.66 287.308 307.71 287.308C306.744 287.308 305.87 287.52 305.091 287.942C304.584 288.212 304.141 288.559 303.762 288.985C303.408 288.54 302.978 288.175 302.471 287.892C301.793 287.503 301.022 287.308 300.157 287.308C299.241 287.308 298.419 287.503 297.69 287.892C297.373 288.053 297.085 288.247 296.825 288.473V287.562Z" fill="#C2C2C2"/>
</g>
<path d="M285.456 180.98V175.909H309.348V180.98H300.442V205H294.363V180.98H285.456ZM309.304 205V183.182H315.17V186.989H315.398C315.795 185.634 316.463 184.612 317.4 183.92C318.338 183.22 319.417 182.869 320.639 182.869C320.942 182.869 321.269 182.888 321.619 182.926C321.97 182.964 322.277 183.016 322.542 183.082V188.452C322.258 188.366 321.865 188.291 321.363 188.224C320.862 188.158 320.402 188.125 319.986 188.125C319.096 188.125 318.3 188.319 317.599 188.707C316.908 189.086 316.359 189.616 315.952 190.298C315.554 190.98 315.355 191.766 315.355 192.656V205H309.304ZM338.062 195.71V183.182H344.114V205H338.304V201.037H338.077C337.584 202.315 336.765 203.343 335.619 204.119C334.483 204.896 333.096 205.284 331.457 205.284C329.999 205.284 328.716 204.953 327.608 204.29C326.5 203.627 325.634 202.685 325.009 201.463C324.393 200.241 324.08 198.778 324.071 197.074V183.182H330.122V195.994C330.132 197.282 330.477 198.3 331.159 199.048C331.841 199.796 332.755 200.17 333.901 200.17C334.63 200.17 335.312 200.005 335.946 199.673C336.58 199.332 337.092 198.83 337.48 198.168C337.878 197.505 338.072 196.686 338.062 195.71ZM365.507 189.403L359.967 189.744C359.873 189.271 359.669 188.845 359.357 188.466C359.044 188.078 358.632 187.77 358.121 187.543C357.619 187.306 357.018 187.188 356.317 187.188C355.379 187.188 354.589 187.386 353.945 187.784C353.301 188.172 352.979 188.693 352.979 189.347C352.979 189.867 353.187 190.308 353.604 190.668C354.02 191.027 354.735 191.316 355.749 191.534L359.698 192.33C361.819 192.765 363.4 193.466 364.442 194.432C365.484 195.398 366.004 196.667 366.004 198.239C366.004 199.669 365.583 200.923 364.74 202.003C363.907 203.082 362.761 203.925 361.303 204.531C359.854 205.128 358.182 205.426 356.288 205.426C353.4 205.426 351.099 204.825 349.385 203.622C347.681 202.41 346.681 200.762 346.388 198.679L352.34 198.366C352.52 199.247 352.955 199.92 353.646 200.384C354.338 200.838 355.223 201.065 356.303 201.065C357.363 201.065 358.216 200.862 358.86 200.455C359.513 200.038 359.844 199.503 359.854 198.849C359.844 198.3 359.612 197.85 359.158 197.5C358.703 197.14 358.003 196.866 357.056 196.676L353.277 195.923C351.146 195.497 349.56 194.759 348.519 193.707C347.486 192.656 346.97 191.316 346.97 189.688C346.97 188.286 347.349 187.079 348.107 186.065C348.874 185.052 349.949 184.271 351.331 183.722C352.723 183.172 354.352 182.898 356.217 182.898C358.973 182.898 361.142 183.48 362.723 184.645C364.314 185.81 365.242 187.396 365.507 189.403ZM379.82 183.182V187.727H366.681V183.182H379.82ZM369.664 177.955H375.715V198.295C375.715 198.854 375.8 199.29 375.97 199.602C376.141 199.905 376.378 200.118 376.681 200.241C376.993 200.365 377.353 200.426 377.76 200.426C378.044 200.426 378.328 200.402 378.612 200.355C378.897 200.298 379.114 200.256 379.266 200.227L380.218 204.73C379.915 204.825 379.488 204.934 378.939 205.057C378.39 205.189 377.722 205.27 376.936 205.298C375.478 205.355 374.2 205.161 373.101 204.716C372.012 204.271 371.165 203.58 370.559 202.642C369.952 201.705 369.654 200.521 369.664 199.091V177.955ZM391.87 205.426C389.626 205.426 387.694 204.972 386.075 204.062C384.465 203.144 383.225 201.847 382.353 200.17C381.482 198.485 381.047 196.491 381.047 194.19C381.047 191.946 381.482 189.976 382.353 188.281C383.225 186.586 384.451 185.265 386.032 184.318C387.623 183.371 389.489 182.898 391.629 182.898C393.068 182.898 394.408 183.13 395.649 183.594C396.899 184.048 397.988 184.735 398.916 185.653C399.853 186.572 400.583 187.727 401.103 189.119C401.624 190.502 401.885 192.121 401.885 193.977V195.639H383.461V191.889H396.189C396.189 191.018 395.999 190.246 395.62 189.574C395.242 188.902 394.716 188.376 394.044 187.997C393.381 187.609 392.609 187.415 391.728 187.415C390.81 187.415 389.995 187.628 389.285 188.054C388.584 188.471 388.035 189.034 387.637 189.744C387.24 190.445 387.036 191.226 387.027 192.088V195.653C387.027 196.733 387.226 197.666 387.623 198.452C388.03 199.238 388.603 199.844 389.342 200.27C390.081 200.696 390.957 200.909 391.97 200.909C392.642 200.909 393.258 200.814 393.816 200.625C394.375 200.436 394.853 200.152 395.251 199.773C395.649 199.394 395.952 198.93 396.16 198.381L401.757 198.75C401.473 200.095 400.89 201.269 400.01 202.273C399.138 203.267 398.012 204.044 396.629 204.602C395.256 205.152 393.67 205.426 391.87 205.426ZM412.273 205.355C410.616 205.355 409.115 204.929 407.77 204.077C406.435 203.215 405.375 201.951 404.589 200.284C403.812 198.608 403.424 196.553 403.424 194.119C403.424 191.619 403.826 189.541 404.631 187.884C405.436 186.217 406.506 184.972 407.841 184.148C409.186 183.314 410.659 182.898 412.259 182.898C413.481 182.898 414.499 183.106 415.313 183.523C416.137 183.93 416.8 184.441 417.302 185.057C417.813 185.663 418.201 186.259 418.466 186.847H418.651V175.909H424.688V205H418.722V201.506H418.466C418.182 202.112 417.78 202.713 417.259 203.31C416.748 203.897 416.08 204.384 415.256 204.773C414.442 205.161 413.448 205.355 412.273 205.355ZM414.191 200.54C415.166 200.54 415.99 200.275 416.663 199.744C417.344 199.205 417.865 198.452 418.225 197.486C418.594 196.52 418.779 195.388 418.779 194.091C418.779 192.794 418.599 191.667 418.239 190.71C417.879 189.754 417.359 189.015 416.677 188.494C415.995 187.973 415.166 187.713 414.191 187.713C413.197 187.713 412.359 187.983 411.677 188.523C410.995 189.062 410.479 189.811 410.128 190.767C409.778 191.723 409.603 192.831 409.603 194.091C409.603 195.36 409.778 196.482 410.128 197.457C410.488 198.423 411.004 199.181 411.677 199.73C412.359 200.27 413.197 200.54 414.191 200.54ZM435.835 205V175.909H441.886V186.847H442.07C442.336 186.259 442.719 185.663 443.221 185.057C443.732 184.441 444.395 183.93 445.21 183.523C446.034 183.106 447.056 182.898 448.278 182.898C449.869 182.898 451.337 183.314 452.681 184.148C454.026 184.972 455.101 186.217 455.906 187.884C456.711 189.541 457.113 191.619 457.113 194.119C457.113 196.553 456.72 198.608 455.934 200.284C455.158 201.951 454.097 203.215 452.752 204.077C451.417 204.929 449.921 205.355 448.264 205.355C447.089 205.355 446.09 205.161 445.266 204.773C444.452 204.384 443.784 203.897 443.264 203.31C442.743 202.713 442.345 202.112 442.07 201.506H441.801V205H435.835ZM441.758 194.091C441.758 195.388 441.938 196.52 442.298 197.486C442.658 198.452 443.178 199.205 443.86 199.744C444.542 200.275 445.371 200.54 446.346 200.54C447.331 200.54 448.164 200.27 448.846 199.73C449.528 199.181 450.044 198.423 450.394 197.457C450.754 196.482 450.934 195.36 450.934 194.091C450.934 192.831 450.759 191.723 450.409 190.767C450.058 189.811 449.542 189.062 448.86 188.523C448.178 187.983 447.34 187.713 446.346 187.713C445.361 187.713 444.528 187.973 443.846 188.494C443.174 189.015 442.658 189.754 442.298 190.71C441.938 191.667 441.758 192.794 441.758 194.091ZM462.583 213.182C461.816 213.182 461.097 213.12 460.424 212.997C459.761 212.884 459.212 212.737 458.777 212.557L460.14 208.04C460.85 208.258 461.49 208.376 462.058 208.395C462.635 208.414 463.133 208.281 463.549 207.997C463.975 207.713 464.321 207.23 464.586 206.548L464.941 205.625L457.115 183.182H463.478L467.995 199.205H468.223L472.782 183.182H479.188L470.708 207.358C470.301 208.532 469.747 209.555 469.046 210.426C468.355 211.307 467.479 211.984 466.419 212.457C465.358 212.94 464.08 213.182 462.583 213.182ZM500.942 175.909V205H494.792V181.747H494.621L487.959 185.923V180.469L495.161 175.909H500.942ZM517.663 205.639C515.219 205.63 513.117 205.028 511.356 203.835C509.604 202.642 508.254 200.914 507.308 198.651C506.37 196.387 505.906 193.665 505.915 190.483C505.915 187.311 506.384 184.607 507.322 182.372C508.269 180.137 509.618 178.437 511.37 177.273C513.131 176.098 515.229 175.511 517.663 175.511C520.096 175.511 522.189 176.098 523.941 177.273C525.702 178.447 527.057 180.152 528.004 182.386C528.951 184.612 529.419 187.311 529.41 190.483C529.41 193.674 528.936 196.402 527.989 198.665C527.052 200.928 525.707 202.656 523.955 203.849C522.203 205.043 520.106 205.639 517.663 205.639ZM517.663 200.54C519.329 200.54 520.66 199.702 521.654 198.026C522.648 196.349 523.141 193.835 523.131 190.483C523.131 188.277 522.904 186.439 522.45 184.972C522.004 183.504 521.37 182.401 520.546 181.662C519.732 180.923 518.771 180.554 517.663 180.554C516.005 180.554 514.68 181.383 513.685 183.04C512.691 184.697 512.189 187.178 512.18 190.483C512.18 192.718 512.402 194.583 512.847 196.08C513.302 197.566 513.941 198.684 514.765 199.432C515.589 200.17 516.555 200.54 517.663 200.54ZM543.602 205.639C541.159 205.63 539.056 205.028 537.295 203.835C535.543 202.642 534.194 200.914 533.247 198.651C532.309 196.387 531.845 193.665 531.855 190.483C531.855 187.311 532.323 184.607 533.261 182.372C534.208 180.137 535.557 178.437 537.309 177.273C539.07 176.098 541.168 175.511 543.602 175.511C546.035 175.511 548.128 176.098 549.88 177.273C551.641 178.447 552.996 180.152 553.943 182.386C554.89 184.612 555.358 187.311 555.349 190.483C555.349 193.674 554.875 196.402 553.928 198.665C552.991 200.928 551.646 202.656 549.894 203.849C548.142 205.043 546.045 205.639 543.602 205.639ZM543.602 200.54C545.268 200.54 546.599 199.702 547.593 198.026C548.587 196.349 549.08 193.835 549.07 190.483C549.07 188.277 548.843 186.439 548.389 184.972C547.944 183.504 547.309 182.401 546.485 181.662C545.671 180.923 544.71 180.554 543.602 180.554C541.945 180.554 540.619 181.383 539.624 183.04C538.63 184.697 538.128 187.178 538.119 190.483C538.119 192.718 538.341 194.583 538.786 196.08C539.241 197.566 539.88 198.684 540.704 199.432C541.528 200.17 542.494 200.54 543.602 200.54ZM566.828 200.568V180.455H571.913V200.568H566.828ZM559.313 193.054V187.969H579.427V193.054H559.313Z" fill="#333333"/>
<defs>
<clipPath id="clip0_29_142">
<rect width="160" height="30" fill="white" transform="translate(540 278)"/>
</clipPath>
<clipPath id="clip1_29_142">
<rect width="153" height="38" fill="white" transform="translate(350 273)"/>
</clipPath>
<clipPath id="clip2_29_142">
<rect width="162" height="32" fill="white" transform="translate(151 276)"/>
</clipPath>
</defs>
</svg>
