<svg width="768" height="539" viewBox="0 0 768 539" fill="none" xmlns="http://www.w3.org/2000/svg">
<g filter="url(#filter0_d_10_326)">
<g clip-path="url(#clip0_10_326)">
<rect width="736" height="282" transform="translate(16 63)" fill="#FAFAFA"/>
<g filter="url(#filter1_d_10_326)">
<mask id="path-2-inside-1_10_326" fill="white">
<path d="M16 63H752V382H16V63Z"/>
</mask>
<path d="M16 63H752V382H16V63Z" fill="#FAFAFA" shape-rendering="crispEdges"/>
<g clip-path="url(#clip1_10_326)">
<path d="M44.576 127.576C42.176 127.576 40.272 126.792 38.864 125.224C37.488 123.624 36.8 121.352 36.8 118.408V106.696H32.48V102.952H36.896L37.808 95.0801H41.12V102.952H48.032V106.696H41.12V118.744C41.12 120.6 41.504 121.896 42.272 122.632C43.072 123.368 44.016 123.736 45.104 123.736C45.904 123.736 46.656 123.608 47.36 123.352C48.096 123.096 48.768 122.792 49.376 122.44L50.576 125.896C49.936 126.28 49.072 126.648 47.984 127C46.896 127.384 45.76 127.576 44.576 127.576ZM63.5326 127.576C61.4526 127.576 59.5646 127.048 57.8686 125.992C56.1726 124.936 54.8126 123.448 53.7886 121.528C52.7966 119.576 52.3006 117.288 52.3006 114.664C52.3006 112.168 52.7966 109.928 53.7886 107.944C54.8126 105.96 56.2046 104.392 57.9646 103.24C59.7566 102.056 61.8046 101.464 64.1086 101.464C65.5486 101.464 66.8446 101.72 67.9966 102.232C69.1806 102.712 70.2046 103.32 71.0686 104.056V102.04H75.0046V120.952C75.0046 122.168 75.2926 122.968 75.8686 123.352C76.4766 123.704 77.1326 123.88 77.8366 123.88L76.9246 127.24C73.8526 127.24 71.9966 125.992 71.3566 123.496C70.6206 124.52 69.6126 125.464 68.3326 126.328C67.0846 127.16 65.4846 127.576 63.5326 127.576ZM64.4926 123.736C65.7086 123.736 66.8606 123.448 67.9486 122.872C69.0366 122.264 69.9486 121.512 70.6846 120.616V107.224C69.8206 106.616 68.8606 106.136 67.8046 105.784C66.7806 105.4 65.6926 105.208 64.5406 105.208C63.0046 105.208 61.6446 105.608 60.4606 106.408C59.3086 107.176 58.3966 108.264 57.7246 109.672C57.0526 111.048 56.7166 112.664 56.7166 114.52C56.7166 116.312 57.0526 117.912 57.7246 119.32C58.3966 120.696 59.3246 121.784 60.5086 122.584C61.6926 123.352 63.0206 123.736 64.4926 123.736ZM93.2169 127.576C90.8489 127.576 88.7689 127.032 86.9769 125.944C85.2169 124.824 83.8569 123.288 82.8969 121.336C81.9369 119.352 81.4569 117.08 81.4569 114.52C81.4569 112.12 81.9369 109.928 82.8969 107.944C83.8889 105.96 85.2969 104.392 87.1209 103.24C88.9449 102.056 91.0889 101.464 93.5529 101.464C94.9609 101.464 96.1929 101.592 97.2489 101.848C98.3369 102.104 99.3769 102.472 100.369 102.952L99.0729 106.6C98.1769 106.152 97.3129 105.832 96.4809 105.64C95.6809 105.416 94.7849 105.304 93.7929 105.304C91.5529 105.304 89.6649 106.12 88.1289 107.752C86.6249 109.352 85.8729 111.576 85.8729 114.424C85.8729 116.152 86.1929 117.72 86.8329 119.128C87.4729 120.536 88.3529 121.656 89.4729 122.488C90.6249 123.32 91.9689 123.736 93.5049 123.736C94.7209 123.736 95.7609 123.608 96.6249 123.352C97.4889 123.064 98.4169 122.664 99.4089 122.152L100.753 125.8C99.7609 126.344 98.6409 126.776 97.3929 127.096C96.1769 127.416 94.7849 127.576 93.2169 127.576ZM115.821 127.576C113.453 127.576 111.325 127.032 109.437 125.944C107.549 124.824 106.061 123.288 104.973 121.336C103.917 119.352 103.389 117.08 103.389 114.52C103.389 111.832 103.933 109.512 105.021 107.56C106.109 105.608 107.597 104.104 109.485 103.048C111.373 101.992 113.485 101.464 115.821 101.464C118.157 101.464 120.253 101.992 122.109 103.048C123.997 104.104 125.485 105.608 126.573 107.56C127.693 109.48 128.253 111.768 128.253 114.424C128.253 117.08 127.709 119.4 126.621 121.384C125.533 123.336 124.045 124.856 122.157 125.944C120.301 127.032 118.189 127.576 115.821 127.576ZM115.821 123.736C118.349 123.736 120.317 122.888 121.725 121.192C123.133 119.464 123.837 117.24 123.837 114.52C123.837 112.856 123.485 111.336 122.781 109.96C122.077 108.552 121.117 107.432 119.901 106.6C118.717 105.736 117.357 105.304 115.821 105.304C113.293 105.304 111.325 106.136 109.917 107.8C108.509 109.464 107.805 111.672 107.805 114.424C107.805 116.088 108.157 117.64 108.861 119.08C109.565 120.488 110.509 121.624 111.693 122.488C112.909 123.32 114.285 123.736 115.821 123.736Z" fill="black"/>
</g>
<g opacity="0.5">
<rect x="35" y="151" width="118" height="9" rx="3" fill="#D9D9D9"/>
<rect x="35" y="164" width="46" height="9" rx="3" fill="#D9D9D9"/>
</g>
<path d="M422.406 113H416.469V101.797H422.156V102.984H417.781V106.711H421.828V107.891H417.781V111.812H422.406V113ZM430.234 105L427.547 109.047L430.188 113H428.695L427.125 110.406C427.026 110.245 426.909 110.042 426.773 109.797H426.742C426.716 109.844 426.594 110.047 426.375 110.406L424.773 113H423.297L426.023 109.078L423.414 105H424.906L426.453 107.734C426.568 107.938 426.68 108.146 426.789 108.359H426.82L428.82 105H430.234ZM433.047 111.844H433.016V116.68H431.734V105H433.016V106.406H433.047C433.677 105.344 434.599 104.812 435.812 104.812C436.844 104.812 437.648 105.172 438.227 105.891C438.805 106.604 439.094 107.562 439.094 108.766C439.094 110.104 438.768 111.177 438.117 111.984C437.466 112.786 436.576 113.188 435.445 113.188C434.409 113.188 433.609 112.74 433.047 111.844ZM433.016 108.617V109.734C433.016 110.396 433.229 110.958 433.656 111.422C434.089 111.88 434.635 112.109 435.297 112.109C436.073 112.109 436.68 111.812 437.117 111.219C437.56 110.625 437.781 109.799 437.781 108.742C437.781 107.852 437.576 107.154 437.164 106.648C436.753 106.143 436.195 105.891 435.492 105.891C434.747 105.891 434.148 106.151 433.695 106.672C433.242 107.188 433.016 107.836 433.016 108.617ZM442.422 113H441.141V101.156H442.422V113ZM448.359 113.188C447.177 113.188 446.232 112.815 445.523 112.07C444.82 111.32 444.469 110.328 444.469 109.094C444.469 107.75 444.836 106.701 445.57 105.945C446.305 105.19 447.297 104.812 448.547 104.812C449.74 104.812 450.669 105.18 451.336 105.914C452.008 106.648 452.344 107.667 452.344 108.969C452.344 110.245 451.982 111.268 451.258 112.039C450.539 112.805 449.573 113.188 448.359 113.188ZM448.453 105.891C447.63 105.891 446.979 106.172 446.5 106.734C446.021 107.292 445.781 108.062 445.781 109.047C445.781 109.995 446.023 110.742 446.508 111.289C446.992 111.836 447.641 112.109 448.453 112.109C449.281 112.109 449.917 111.841 450.359 111.305C450.807 110.768 451.031 110.005 451.031 109.016C451.031 108.016 450.807 107.245 450.359 106.703C449.917 106.161 449.281 105.891 448.453 105.891ZM458.562 106.297C458.339 106.125 458.016 106.039 457.594 106.039C457.047 106.039 456.589 106.297 456.219 106.812C455.854 107.328 455.672 108.031 455.672 108.922V113H454.391V105H455.672V106.648H455.703C455.885 106.086 456.164 105.648 456.539 105.336C456.914 105.018 457.333 104.859 457.797 104.859C458.13 104.859 458.385 104.896 458.562 104.969V106.297ZM466.383 109.32H460.734C460.755 110.211 460.995 110.898 461.453 111.383C461.911 111.867 462.542 112.109 463.344 112.109C464.245 112.109 465.073 111.812 465.828 111.219V112.422C465.125 112.932 464.195 113.188 463.039 113.188C461.909 113.188 461.021 112.826 460.375 112.102C459.729 111.372 459.406 110.349 459.406 109.031C459.406 107.786 459.758 106.773 460.461 105.992C461.169 105.206 462.047 104.812 463.094 104.812C464.141 104.812 464.951 105.151 465.523 105.828C466.096 106.505 466.383 107.445 466.383 108.648V109.32ZM465.07 108.234C465.065 107.495 464.885 106.919 464.531 106.508C464.182 106.096 463.695 105.891 463.07 105.891C462.466 105.891 461.953 106.107 461.531 106.539C461.109 106.971 460.849 107.536 460.75 108.234H465.07Z" fill="black"/>
<rect x="415.2" y="136.4" width="85" height="12" rx="3" fill="#D9D9D9"/>
<rect x="415.2" y="166.4" width="85" height="12" rx="3" fill="#D9D9D9"/>
<rect x="415.2" y="198.4" width="85" height="12" rx="3" fill="#D9D9D9"/>
<rect x="415.2" y="231.4" width="85" height="12" rx="3" fill="#D9D9D9"/>
<path d="M231.945 113.547V112C232.122 112.156 232.333 112.297 232.578 112.422C232.828 112.547 233.089 112.654 233.359 112.742C233.635 112.826 233.911 112.891 234.188 112.938C234.464 112.984 234.719 113.008 234.953 113.008C235.76 113.008 236.362 112.859 236.758 112.562C237.159 112.26 237.359 111.828 237.359 111.266C237.359 110.964 237.292 110.701 237.156 110.477C237.026 110.253 236.844 110.049 236.609 109.867C236.375 109.68 236.096 109.503 235.773 109.336C235.456 109.164 235.112 108.984 234.742 108.797C234.352 108.599 233.987 108.398 233.648 108.195C233.31 107.992 233.016 107.768 232.766 107.523C232.516 107.279 232.318 107.003 232.172 106.695C232.031 106.383 231.961 106.018 231.961 105.602C231.961 105.091 232.073 104.648 232.297 104.273C232.521 103.893 232.815 103.581 233.18 103.336C233.544 103.091 233.958 102.909 234.422 102.789C234.891 102.669 235.367 102.609 235.852 102.609C236.956 102.609 237.76 102.742 238.266 103.008V104.484C237.604 104.026 236.755 103.797 235.719 103.797C235.432 103.797 235.146 103.828 234.859 103.891C234.573 103.948 234.318 104.044 234.094 104.18C233.87 104.315 233.688 104.49 233.547 104.703C233.406 104.917 233.336 105.177 233.336 105.484C233.336 105.771 233.388 106.018 233.492 106.227C233.602 106.435 233.76 106.625 233.969 106.797C234.177 106.969 234.43 107.135 234.727 107.297C235.029 107.458 235.375 107.635 235.766 107.828C236.167 108.026 236.547 108.234 236.906 108.453C237.266 108.672 237.581 108.914 237.852 109.18C238.122 109.445 238.336 109.74 238.492 110.062C238.654 110.385 238.734 110.755 238.734 111.172C238.734 111.724 238.625 112.193 238.406 112.578C238.193 112.958 237.901 113.268 237.531 113.508C237.167 113.747 236.745 113.919 236.266 114.023C235.786 114.133 235.281 114.188 234.75 114.188C234.573 114.188 234.354 114.172 234.094 114.141C233.833 114.115 233.568 114.073 233.297 114.016C233.026 113.964 232.768 113.898 232.523 113.82C232.284 113.737 232.091 113.646 231.945 113.547ZM247.227 110.32H241.578C241.599 111.211 241.839 111.898 242.297 112.383C242.755 112.867 243.385 113.109 244.188 113.109C245.089 113.109 245.917 112.812 246.672 112.219V113.422C245.969 113.932 245.039 114.188 243.883 114.188C242.753 114.188 241.865 113.826 241.219 113.102C240.573 112.372 240.25 111.349 240.25 110.031C240.25 108.786 240.602 107.773 241.305 106.992C242.013 106.206 242.891 105.812 243.938 105.812C244.984 105.812 245.794 106.151 246.367 106.828C246.94 107.505 247.227 108.445 247.227 109.648V110.32ZM245.914 109.234C245.909 108.495 245.729 107.919 245.375 107.508C245.026 107.096 244.539 106.891 243.914 106.891C243.31 106.891 242.797 107.107 242.375 107.539C241.953 107.971 241.693 108.536 241.594 109.234H245.914ZM253.344 107.297C253.12 107.125 252.797 107.039 252.375 107.039C251.828 107.039 251.37 107.297 251 107.812C250.635 108.328 250.453 109.031 250.453 109.922V114H249.172V106H250.453V107.648H250.484C250.667 107.086 250.945 106.648 251.32 106.336C251.695 106.018 252.115 105.859 252.578 105.859C252.911 105.859 253.167 105.896 253.344 105.969V107.297ZM261.023 106L257.836 114H256.578L253.547 106H254.953L256.984 111.812C257.135 112.24 257.229 112.612 257.266 112.93H257.297C257.349 112.529 257.432 112.167 257.547 111.844L259.672 106H261.023ZM263.062 103.969C262.833 103.969 262.638 103.891 262.477 103.734C262.315 103.578 262.234 103.38 262.234 103.141C262.234 102.901 262.315 102.703 262.477 102.547C262.638 102.385 262.833 102.305 263.062 102.305C263.297 102.305 263.495 102.385 263.656 102.547C263.823 102.703 263.906 102.901 263.906 103.141C263.906 103.37 263.823 103.565 263.656 103.727C263.495 103.888 263.297 103.969 263.062 103.969ZM263.688 114H262.406V106H263.688V114ZM271.734 113.633C271.12 114.003 270.391 114.188 269.547 114.188C268.406 114.188 267.484 113.818 266.781 113.078C266.083 112.333 265.734 111.37 265.734 110.188C265.734 108.87 266.112 107.812 266.867 107.016C267.622 106.214 268.63 105.812 269.891 105.812C270.594 105.812 271.214 105.943 271.75 106.203V107.516C271.156 107.099 270.521 106.891 269.844 106.891C269.026 106.891 268.354 107.185 267.828 107.773C267.307 108.357 267.047 109.125 267.047 110.078C267.047 111.016 267.292 111.755 267.781 112.297C268.276 112.839 268.938 113.109 269.766 113.109C270.464 113.109 271.12 112.878 271.734 112.414V113.633ZM280.102 110.32H274.453C274.474 111.211 274.714 111.898 275.172 112.383C275.63 112.867 276.26 113.109 277.062 113.109C277.964 113.109 278.792 112.812 279.547 112.219V113.422C278.844 113.932 277.914 114.188 276.758 114.188C275.628 114.188 274.74 113.826 274.094 113.102C273.448 112.372 273.125 111.349 273.125 110.031C273.125 108.786 273.477 107.773 274.18 106.992C274.888 106.206 275.766 105.812 276.812 105.812C277.859 105.812 278.669 106.151 279.242 106.828C279.815 107.505 280.102 108.445 280.102 109.648V110.32ZM278.789 109.234C278.784 108.495 278.604 107.919 278.25 107.508C277.901 107.096 277.414 106.891 276.789 106.891C276.185 106.891 275.672 107.107 275.25 107.539C274.828 107.971 274.568 108.536 274.469 109.234H278.789ZM281.562 113.711V112.336C282.26 112.852 283.029 113.109 283.867 113.109C284.992 113.109 285.555 112.734 285.555 111.984C285.555 111.771 285.505 111.591 285.406 111.445C285.312 111.294 285.182 111.161 285.016 111.047C284.854 110.932 284.661 110.831 284.438 110.742C284.219 110.648 283.982 110.552 283.727 110.453C283.372 110.312 283.06 110.172 282.789 110.031C282.523 109.885 282.299 109.724 282.117 109.547C281.94 109.365 281.805 109.159 281.711 108.93C281.622 108.701 281.578 108.432 281.578 108.125C281.578 107.75 281.664 107.419 281.836 107.133C282.008 106.841 282.237 106.599 282.523 106.406C282.81 106.208 283.135 106.06 283.5 105.961C283.87 105.862 284.25 105.812 284.641 105.812C285.333 105.812 285.953 105.932 286.5 106.172V107.469C285.911 107.083 285.234 106.891 284.469 106.891C284.229 106.891 284.013 106.919 283.82 106.977C283.628 107.029 283.461 107.104 283.32 107.203C283.185 107.302 283.078 107.422 283 107.562C282.927 107.698 282.891 107.849 282.891 108.016C282.891 108.224 282.927 108.398 283 108.539C283.078 108.68 283.19 108.805 283.336 108.914C283.482 109.023 283.659 109.122 283.867 109.211C284.076 109.299 284.312 109.396 284.578 109.5C284.932 109.635 285.25 109.776 285.531 109.922C285.812 110.062 286.052 110.224 286.25 110.406C286.448 110.583 286.599 110.789 286.703 111.023C286.812 111.258 286.867 111.536 286.867 111.859C286.867 112.255 286.779 112.599 286.602 112.891C286.43 113.182 286.198 113.424 285.906 113.617C285.615 113.81 285.279 113.953 284.898 114.047C284.518 114.141 284.12 114.188 283.703 114.188C282.88 114.188 282.167 114.029 281.562 113.711Z" fill="black"/>
<rect x="231.2" y="137.4" width="85" height="12" rx="3" fill="#D9D9D9"/>
<rect x="231.2" y="167.4" width="85" height="12" rx="3" fill="#D9D9D9"/>
<rect x="231.2" y="199.4" width="85" height="12" rx="3" fill="#D9D9D9"/>
<rect x="231.2" y="232.4" width="85" height="12" rx="3" fill="#D9D9D9"/>
<path d="M586.781 108.766V113H585.469V101.797H588.547C589.745 101.797 590.672 102.089 591.328 102.672C591.99 103.255 592.32 104.078 592.32 105.141C592.32 106.203 591.953 107.073 591.219 107.75C590.49 108.427 589.503 108.766 588.258 108.766H586.781ZM586.781 102.984V107.578H588.156C589.062 107.578 589.753 107.372 590.227 106.961C590.706 106.544 590.945 105.958 590.945 105.203C590.945 103.724 590.07 102.984 588.32 102.984H586.781ZM599.445 113H598.164V111.75H598.133C597.576 112.708 596.755 113.188 595.672 113.188C594.875 113.188 594.25 112.977 593.797 112.555C593.349 112.133 593.125 111.573 593.125 110.875C593.125 109.38 594.005 108.51 595.766 108.266L598.164 107.93C598.164 106.57 597.615 105.891 596.516 105.891C595.552 105.891 594.682 106.219 593.906 106.875V105.562C594.693 105.062 595.599 104.812 596.625 104.812C598.505 104.812 599.445 105.807 599.445 107.797V113ZM598.164 108.953L596.234 109.219C595.641 109.302 595.193 109.451 594.891 109.664C594.589 109.872 594.438 110.245 594.438 110.781C594.438 111.172 594.576 111.492 594.852 111.742C595.133 111.987 595.505 112.109 595.969 112.109C596.604 112.109 597.128 111.888 597.539 111.445C597.956 110.997 598.164 110.432 598.164 109.75V108.953ZM608.688 112.359C608.688 115.297 607.281 116.766 604.469 116.766C603.479 116.766 602.615 116.578 601.875 116.203V114.922C602.776 115.422 603.635 115.672 604.453 115.672C606.422 115.672 607.406 114.625 607.406 112.531V111.656H607.375C606.766 112.677 605.849 113.188 604.625 113.188C603.63 113.188 602.828 112.833 602.219 112.125C601.615 111.411 601.312 110.456 601.312 109.258C601.312 107.898 601.638 106.818 602.289 106.016C602.945 105.214 603.841 104.812 604.977 104.812C606.055 104.812 606.854 105.245 607.375 106.109H607.406V105H608.688V112.359ZM607.406 109.383V108.203C607.406 107.568 607.19 107.023 606.758 106.57C606.331 106.117 605.797 105.891 605.156 105.891C604.365 105.891 603.745 106.18 603.297 106.758C602.849 107.331 602.625 108.135 602.625 109.172C602.625 110.062 602.839 110.776 603.266 111.312C603.698 111.844 604.268 112.109 604.977 112.109C605.695 112.109 606.279 111.854 606.727 111.344C607.18 110.833 607.406 110.18 607.406 109.383ZM617.711 109.32H612.062C612.083 110.211 612.323 110.898 612.781 111.383C613.24 111.867 613.87 112.109 614.672 112.109C615.573 112.109 616.401 111.812 617.156 111.219V112.422C616.453 112.932 615.523 113.188 614.367 113.188C613.237 113.188 612.349 112.826 611.703 112.102C611.057 111.372 610.734 110.349 610.734 109.031C610.734 107.786 611.086 106.773 611.789 105.992C612.497 105.206 613.375 104.812 614.422 104.812C615.469 104.812 616.279 105.151 616.852 105.828C617.424 106.505 617.711 107.445 617.711 108.648V109.32ZM616.398 108.234C616.393 107.495 616.214 106.919 615.859 106.508C615.51 106.096 615.023 105.891 614.398 105.891C613.794 105.891 613.281 106.107 612.859 106.539C612.438 106.971 612.177 107.536 612.078 108.234H616.398ZM619.172 112.711V111.336C619.87 111.852 620.638 112.109 621.477 112.109C622.602 112.109 623.164 111.734 623.164 110.984C623.164 110.771 623.115 110.591 623.016 110.445C622.922 110.294 622.792 110.161 622.625 110.047C622.464 109.932 622.271 109.831 622.047 109.742C621.828 109.648 621.591 109.552 621.336 109.453C620.982 109.312 620.669 109.172 620.398 109.031C620.133 108.885 619.909 108.724 619.727 108.547C619.549 108.365 619.414 108.159 619.32 107.93C619.232 107.701 619.188 107.432 619.188 107.125C619.188 106.75 619.273 106.419 619.445 106.133C619.617 105.841 619.846 105.599 620.133 105.406C620.419 105.208 620.745 105.06 621.109 104.961C621.479 104.862 621.859 104.812 622.25 104.812C622.943 104.812 623.562 104.932 624.109 105.172V106.469C623.521 106.083 622.844 105.891 622.078 105.891C621.839 105.891 621.622 105.919 621.43 105.977C621.237 106.029 621.07 106.104 620.93 106.203C620.794 106.302 620.688 106.422 620.609 106.562C620.536 106.698 620.5 106.849 620.5 107.016C620.5 107.224 620.536 107.398 620.609 107.539C620.688 107.68 620.799 107.805 620.945 107.914C621.091 108.023 621.268 108.122 621.477 108.211C621.685 108.299 621.922 108.396 622.188 108.5C622.542 108.635 622.859 108.776 623.141 108.922C623.422 109.062 623.661 109.224 623.859 109.406C624.057 109.583 624.208 109.789 624.312 110.023C624.422 110.258 624.477 110.536 624.477 110.859C624.477 111.255 624.388 111.599 624.211 111.891C624.039 112.182 623.807 112.424 623.516 112.617C623.224 112.81 622.888 112.953 622.508 113.047C622.128 113.141 621.729 113.188 621.312 113.188C620.49 113.188 619.776 113.029 619.172 112.711Z" fill="black"/>
<rect x="584.2" y="136.4" width="85" height="12" rx="3" fill="#D9D9D9"/>
<rect x="584.2" y="166.4" width="85" height="12" rx="3" fill="#D9D9D9"/>
<rect x="584.2" y="198.4" width="85" height="12" rx="3" fill="#D9D9D9"/>
<rect x="584.2" y="231.4" width="85" height="12" rx="3" fill="#D9D9D9"/>
<g opacity="0.6">
<path d="M264.125 307.058C262.505 307.058 261.122 306.487 259.977 305.347C258.836 304.201 258.266 302.818 258.266 301.198C258.266 299.578 258.836 298.198 259.977 297.058C261.122 295.912 262.505 295.339 264.125 295.339C265.74 295.339 267.117 295.912 268.258 297.058C269.404 298.198 269.977 299.578 269.977 301.198C269.977 302.818 269.404 304.201 268.258 305.347C267.117 306.487 265.74 307.058 264.125 307.058ZM264.125 296.026C262.698 296.026 261.479 296.532 260.469 297.542C259.458 298.552 258.953 299.771 258.953 301.198C258.953 302.625 259.458 303.844 260.469 304.854C261.479 305.86 262.698 306.362 264.125 306.362C265.552 306.362 266.768 305.86 267.773 304.854C268.784 303.844 269.289 302.625 269.289 301.198C269.289 299.771 268.784 298.552 267.773 297.542C266.768 296.532 265.552 296.026 264.125 296.026ZM266.242 304.229C265.695 304.589 265.049 304.769 264.305 304.769C263.305 304.769 262.466 304.443 261.789 303.792C261.112 303.141 260.773 302.326 260.773 301.347C260.773 300.211 261.12 299.305 261.812 298.628C262.505 297.951 263.406 297.612 264.516 297.612C265.146 297.612 265.711 297.75 266.211 298.026V299.198C265.763 298.823 265.167 298.636 264.422 298.636C263.688 298.636 263.081 298.87 262.602 299.339C262.128 299.808 261.891 300.438 261.891 301.229C261.891 302 262.133 302.618 262.617 303.081C263.107 303.545 263.727 303.776 264.477 303.776C265.164 303.776 265.753 303.573 266.242 303.167V304.229ZM281.672 298.534C281.672 298.19 281.617 297.891 281.508 297.636C281.404 297.381 281.258 297.17 281.07 297.003C280.888 296.831 280.672 296.703 280.422 296.62C280.172 296.537 279.901 296.495 279.609 296.495C279.359 296.495 279.115 296.529 278.875 296.597C278.635 296.664 278.401 296.758 278.172 296.878C277.948 296.998 277.729 297.141 277.516 297.308C277.307 297.474 277.112 297.659 276.93 297.862V296.487C277.289 296.138 277.69 295.873 278.133 295.69C278.581 295.503 279.125 295.409 279.766 295.409C280.224 295.409 280.648 295.477 281.039 295.612C281.43 295.743 281.768 295.935 282.055 296.19C282.341 296.446 282.565 296.761 282.727 297.136C282.893 297.511 282.977 297.94 282.977 298.425C282.977 298.868 282.924 299.269 282.82 299.628C282.721 299.987 282.568 300.326 282.359 300.644C282.156 300.961 281.898 301.266 281.586 301.558C281.273 301.849 280.906 302.146 280.484 302.448C279.958 302.823 279.523 303.144 279.18 303.409C278.841 303.675 278.57 303.925 278.367 304.159C278.169 304.388 278.029 304.62 277.945 304.854C277.867 305.084 277.828 305.349 277.828 305.651H283.406V306.8H276.492V306.245C276.492 305.766 276.544 305.344 276.648 304.979C276.753 304.615 276.924 304.269 277.164 303.94C277.404 303.612 277.716 303.284 278.102 302.956C278.492 302.628 278.969 302.258 279.531 301.847C279.938 301.555 280.276 301.276 280.547 301.011C280.823 300.745 281.044 300.479 281.211 300.214C281.378 299.948 281.495 299.68 281.562 299.409C281.635 299.133 281.672 298.841 281.672 298.534ZM292.234 301.151C292.234 302.089 292.148 302.92 291.977 303.644C291.81 304.368 291.565 304.979 291.242 305.479C290.924 305.974 290.531 306.352 290.062 306.612C289.599 306.868 289.07 306.995 288.477 306.995C287.914 306.995 287.411 306.873 286.969 306.628C286.531 306.378 286.161 306.016 285.859 305.542C285.557 305.068 285.328 304.487 285.172 303.8C285.016 303.107 284.938 302.315 284.938 301.425C284.938 300.446 285.018 299.581 285.18 298.831C285.346 298.081 285.589 297.453 285.906 296.948C286.224 296.438 286.617 296.055 287.086 295.8C287.56 295.539 288.102 295.409 288.711 295.409C291.06 295.409 292.234 297.323 292.234 301.151ZM290.922 301.276C290.922 298.089 290.164 296.495 288.648 296.495C287.049 296.495 286.25 298.118 286.25 301.362C286.25 304.388 287.034 305.901 288.602 305.901C290.148 305.901 290.922 304.36 290.922 301.276ZM298.922 298.534C298.922 298.19 298.867 297.891 298.758 297.636C298.654 297.381 298.508 297.17 298.32 297.003C298.138 296.831 297.922 296.703 297.672 296.62C297.422 296.537 297.151 296.495 296.859 296.495C296.609 296.495 296.365 296.529 296.125 296.597C295.885 296.664 295.651 296.758 295.422 296.878C295.198 296.998 294.979 297.141 294.766 297.308C294.557 297.474 294.362 297.659 294.18 297.862V296.487C294.539 296.138 294.94 295.873 295.383 295.69C295.831 295.503 296.375 295.409 297.016 295.409C297.474 295.409 297.898 295.477 298.289 295.612C298.68 295.743 299.018 295.935 299.305 296.19C299.591 296.446 299.815 296.761 299.977 297.136C300.143 297.511 300.227 297.94 300.227 298.425C300.227 298.868 300.174 299.269 300.07 299.628C299.971 299.987 299.818 300.326 299.609 300.644C299.406 300.961 299.148 301.266 298.836 301.558C298.523 301.849 298.156 302.146 297.734 302.448C297.208 302.823 296.773 303.144 296.43 303.409C296.091 303.675 295.82 303.925 295.617 304.159C295.419 304.388 295.279 304.62 295.195 304.854C295.117 305.084 295.078 305.349 295.078 305.651H300.656V306.8H293.742V306.245C293.742 305.766 293.794 305.344 293.898 304.979C294.003 304.615 294.174 304.269 294.414 303.94C294.654 303.612 294.966 303.284 295.352 302.956C295.742 302.628 296.219 302.258 296.781 301.847C297.188 301.555 297.526 301.276 297.797 301.011C298.073 300.745 298.294 300.479 298.461 300.214C298.628 299.948 298.745 299.68 298.812 299.409C298.885 299.133 298.922 298.841 298.922 298.534ZM308.961 303.628C308.961 304.133 308.865 304.594 308.672 305.011C308.484 305.422 308.216 305.776 307.867 306.073C307.523 306.365 307.109 306.591 306.625 306.753C306.141 306.914 305.607 306.995 305.023 306.995C303.956 306.995 303.107 306.792 302.477 306.386V305.011C303.232 305.604 304.096 305.901 305.07 305.901C305.461 305.901 305.812 305.852 306.125 305.753C306.443 305.654 306.714 305.511 306.938 305.323C307.167 305.136 307.341 304.909 307.461 304.644C307.586 304.378 307.648 304.078 307.648 303.745C307.648 302.282 306.607 301.55 304.523 301.55H303.594V300.464H304.477C306.32 300.464 307.242 299.776 307.242 298.401C307.242 297.131 306.539 296.495 305.133 296.495C304.341 296.495 303.599 296.761 302.906 297.292V296.05C303.62 295.623 304.469 295.409 305.453 295.409C305.922 295.409 306.346 295.474 306.727 295.604C307.107 295.735 307.432 295.917 307.703 296.151C307.974 296.386 308.182 296.667 308.328 296.995C308.479 297.323 308.555 297.685 308.555 298.081C308.555 299.555 307.81 300.503 306.32 300.925V300.956C306.701 300.998 307.052 301.091 307.375 301.237C307.698 301.378 307.977 301.563 308.211 301.792C308.445 302.021 308.628 302.292 308.758 302.604C308.893 302.912 308.961 303.253 308.961 303.628ZM319.539 306.722C319.237 306.888 318.839 306.972 318.344 306.972C316.943 306.972 316.242 306.19 316.242 304.628V299.894H314.867V298.8H316.242V296.847L317.523 296.433V298.8H319.539V299.894H317.523V304.401C317.523 304.938 317.615 305.321 317.797 305.55C317.979 305.779 318.281 305.894 318.703 305.894C319.026 305.894 319.305 305.805 319.539 305.628V306.722ZM326.977 306.8H325.695V305.55H325.664C325.107 306.508 324.286 306.987 323.203 306.987C322.406 306.987 321.781 306.776 321.328 306.354C320.88 305.933 320.656 305.373 320.656 304.675C320.656 303.18 321.536 302.31 323.297 302.065L325.695 301.729C325.695 300.37 325.146 299.69 324.047 299.69C323.083 299.69 322.214 300.019 321.438 300.675V299.362C322.224 298.862 323.13 298.612 324.156 298.612C326.036 298.612 326.977 299.607 326.977 301.597V306.8ZM325.695 302.753L323.766 303.019C323.172 303.102 322.724 303.25 322.422 303.464C322.12 303.672 321.969 304.045 321.969 304.581C321.969 304.972 322.107 305.292 322.383 305.542C322.664 305.787 323.036 305.909 323.5 305.909C324.135 305.909 324.659 305.688 325.07 305.245C325.487 304.797 325.695 304.232 325.695 303.55V302.753ZM334.844 306.433C334.229 306.802 333.5 306.987 332.656 306.987C331.516 306.987 330.594 306.618 329.891 305.878C329.193 305.133 328.844 304.17 328.844 302.987C328.844 301.67 329.221 300.612 329.977 299.815C330.732 299.013 331.74 298.612 333 298.612C333.703 298.612 334.323 298.743 334.859 299.003V300.315C334.266 299.899 333.63 299.69 332.953 299.69C332.135 299.69 331.464 299.985 330.938 300.573C330.417 301.157 330.156 301.925 330.156 302.878C330.156 303.815 330.401 304.555 330.891 305.097C331.385 305.638 332.047 305.909 332.875 305.909C333.573 305.909 334.229 305.677 334.844 305.214V306.433ZM340.125 306.987C338.943 306.987 337.997 306.615 337.289 305.87C336.586 305.12 336.234 304.128 336.234 302.894C336.234 301.55 336.602 300.5 337.336 299.745C338.07 298.99 339.062 298.612 340.312 298.612C341.505 298.612 342.435 298.979 343.102 299.714C343.773 300.448 344.109 301.466 344.109 302.769C344.109 304.045 343.747 305.068 343.023 305.839C342.305 306.604 341.339 306.987 340.125 306.987ZM340.219 299.69C339.396 299.69 338.745 299.972 338.266 300.534C337.786 301.091 337.547 301.862 337.547 302.847C337.547 303.795 337.789 304.542 338.273 305.089C338.758 305.636 339.406 305.909 340.219 305.909C341.047 305.909 341.682 305.641 342.125 305.104C342.573 304.568 342.797 303.805 342.797 302.815C342.797 301.815 342.573 301.045 342.125 300.503C341.682 299.961 341.047 299.69 340.219 299.69ZM346.602 306.972C346.362 306.972 346.156 306.886 345.984 306.714C345.818 306.542 345.734 306.336 345.734 306.097C345.734 305.857 345.818 305.651 345.984 305.479C346.156 305.302 346.362 305.214 346.602 305.214C346.846 305.214 347.055 305.302 347.227 305.479C347.398 305.651 347.484 305.857 347.484 306.097C347.484 306.336 347.398 306.542 347.227 306.714C347.055 306.886 346.846 306.972 346.602 306.972Z" fill="black"/>
<rect x="353.77" y="299.2" width="126" height="10" rx="4" fill="#D9D9D9"/>
<g clip-path="url(#clip2_10_326)">
<path d="M345.37 355C341.07 356.4 341.07 352.5 339.37 352M351.37 357V353.5C351.37 352.5 351.47 352.1 350.87 351.5C353.67 351.2 356.37 350.1 356.37 345.5C356.369 344.305 355.903 343.157 355.07 342.3C355.46 341.262 355.425 340.112 354.97 339.1C354.97 339.1 353.87 338.8 351.47 340.4C349.437 339.871 347.303 339.871 345.27 340.4C342.87 338.8 341.77 339.1 341.77 339.1C341.315 340.112 341.28 341.262 341.67 342.3C340.837 343.157 340.371 344.305 340.37 345.5C340.37 350.1 343.07 351.2 345.87 351.5C345.27 352.1 345.27 352.7 345.37 353.5V357" stroke="black" stroke-width="1.5" stroke-linecap="round" stroke-linejoin="round"/>
</g>
<g clip-path="url(#clip3_10_326)">
<path d="M398.37 340.01C397.37 340.5 396.39 340.699 395.37 341C394.249 339.735 392.587 339.665 390.99 340.263C389.393 340.861 388.347 342.323 388.37 344V345C385.125 345.083 382.235 343.605 380.37 341C380.37 341 376.188 348.433 384.37 352C382.498 353.247 380.631 354.088 378.37 354C381.678 355.803 385.283 356.423 388.404 355.517C391.984 354.477 394.926 351.794 396.055 347.775C396.392 346.553 396.559 345.29 396.552 344.022C396.55 343.773 398.062 341.25 398.37 340.009V340.01Z" stroke="black" stroke-width="1.5" stroke-linecap="round" stroke-linejoin="round"/>
</g>
</g>
<path d="M16 63.8H752V62.2H16V63.8Z" fill="black" fill-opacity="0.2" mask="url(#path-2-inside-1_10_326)"/>
</g>
</g>
</g>
<defs>
<filter id="filter0_d_10_326" x="0" y="47" width="768" height="351" filterUnits="userSpaceOnUse" color-interpolation-filters="sRGB">
<feFlood flood-opacity="0" result="BackgroundImageFix"/>
<feColorMatrix in="SourceAlpha" type="matrix" values="0 0 0 0 0 0 0 0 0 0 0 0 0 0 0 0 0 0 127 0" result="hardAlpha"/>
<feOffset/>
<feGaussianBlur stdDeviation="8"/>
<feComposite in2="hardAlpha" operator="out"/>
<feColorMatrix type="matrix" values="0 0 0 0 0 0 0 0 0 0 0 0 0 0 0 0 0 0 0.1 0"/>
<feBlend mode="normal" in2="BackgroundImageFix" result="effect1_dropShadow_10_326"/>
<feBlend mode="normal" in="SourceGraphic" in2="effect1_dropShadow_10_326" result="shape"/>
</filter>
<filter id="filter1_d_10_326" x="6" y="20.7998" width="1087.2" height="371.2" filterUnits="userSpaceOnUse" color-interpolation-filters="sRGB">
<feFlood flood-opacity="0" result="BackgroundImageFix"/>
<feColorMatrix in="SourceAlpha" type="matrix" values="0 0 0 0 0 0 0 0 0 0 0 0 0 0 0 0 0 0 127 0" result="hardAlpha"/>
<feOffset/>
<feGaussianBlur stdDeviation="5"/>
<feComposite in2="hardAlpha" operator="out"/>
<feColorMatrix type="matrix" values="0 0 0 0 0 0 0 0 0 0 0 0 0 0 0 0 0 0 0.15 0"/>
<feBlend mode="normal" in2="BackgroundImageFix" result="effect1_dropShadow_10_326"/>
<feBlend mode="normal" in="SourceGraphic" in2="effect1_dropShadow_10_326" result="shape"/>
</filter>
<clipPath id="clip0_10_326">
<rect x="16" y="63" width="736" height="319" rx="16" fill="white"/>
</clipPath>
<clipPath id="clip1_10_326">
<rect width="97" height="33" fill="white" transform="translate(32 95)"/>
</clipPath>
<clipPath id="clip2_10_326">
<rect width="24" height="24" fill="white" transform="translate(336.37 336)"/>
</clipPath>
<clipPath id="clip3_10_326">
<rect width="24" height="24" fill="white" transform="translate(376.37 336)"/>
</clipPath>
</defs>
</svg>
