<svg width="1084" height="782" viewBox="0 0 1084 782" fill="none" xmlns="http://www.w3.org/2000/svg">
<g clip-path="url(#clip0_10_228)" filter="url(#filter0_d_10_228)">
<rect x="20.5" y="149.5" width="336" height="454" rx="11.5" fill="white"/>
<rect x="61" y="194" width="53" height="24" rx="4" fill="#D9D9D9"/>
<path d="M72.6477 260.66V264.474H70.0813V260.765C67.7024 260.753 65.4875 260.214 63.4368 259.148V254.279C64.1165 254.83 65.1301 255.339 66.4778 255.808C67.8254 256.277 69.0266 256.546 70.0813 256.617V250.218C67.3391 249.199 65.4641 248.097 64.4563 246.914C63.4602 245.718 62.9622 244.265 62.9622 242.554C62.9622 240.714 63.6125 239.15 64.9133 237.861C66.2141 236.56 67.9368 235.804 70.0813 235.593V232.324H72.6477V235.523C75.1204 235.64 76.9661 236.039 78.1848 236.718V241.464C76.5442 240.468 74.6985 239.859 72.6477 239.636V246.298C75.2141 247.224 77.054 248.285 78.1672 249.48C79.2805 250.664 79.8372 252.099 79.8372 253.787C79.8372 255.732 79.2161 257.302 77.9739 258.498C76.7317 259.681 74.9563 260.402 72.6477 260.66ZM70.0813 245.279V239.707C68.4524 240 67.6379 240.849 67.6379 242.255C67.6379 243.462 68.4524 244.47 70.0813 245.279ZM72.6477 251.22V256.546C74.3235 256.289 75.1614 255.451 75.1614 254.033C75.1614 252.884 74.3235 251.947 72.6477 251.22ZM91.72 261.24C85.72 261.24 82.72 257.027 82.72 248.601C82.72 244.23 83.5286 240.902 85.1458 238.617C86.7747 236.32 89.1301 235.171 92.2122 235.171C98.0715 235.171 101.001 239.455 101.001 248.021C101.001 252.287 100.198 255.556 98.593 257.83C96.9993 260.103 94.7083 261.24 91.72 261.24ZM91.9661 239.408C89.5637 239.408 88.3625 242.425 88.3625 248.46C88.3625 254.144 89.5403 256.986 91.8958 256.986C94.1926 256.986 95.3411 254.056 95.3411 248.197C95.3411 242.337 94.2161 239.408 91.9661 239.408Z" fill="black"/>
<rect x="61.1399" y="275.8" width="151" height="12" rx="4" fill="#D9D9D9" fill-opacity="0.6"/>
<rect x="60.8" y="537.8" width="255.46" height="41.6" rx="4" fill="#E7E5E5"/>
<rect x="148" y="554" width="72" height="12" rx="2" fill="white"/>
<g clip-path="url(#clip1_10_228)">
<path fill-rule="evenodd" clip-rule="evenodd" d="M63.25 349.6C63.25 344.215 67.615 339.85 73 339.85C78.385 339.85 82.75 344.215 82.75 349.6C82.75 354.985 78.385 359.35 73 359.35C67.615 359.35 63.25 354.985 63.25 349.6ZM76.61 347.786C76.67 347.706 76.7134 347.615 76.7377 347.518C76.762 347.421 76.7666 347.32 76.7514 347.221C76.7361 347.123 76.7012 347.028 76.6489 346.943C76.5965 346.858 76.5276 346.784 76.4463 346.726C76.3649 346.668 76.2728 346.626 76.1753 346.604C76.0778 346.582 75.9769 346.58 75.8785 346.598C75.7801 346.615 75.6862 346.652 75.6023 346.707C75.5184 346.761 75.4462 346.831 75.39 346.914L72.154 351.444L70.53 349.82C70.3878 349.688 70.1998 349.615 70.0055 349.619C69.8112 349.622 69.6258 349.701 69.4884 349.838C69.351 349.976 69.2723 350.161 69.2688 350.356C69.2654 350.55 69.3375 350.738 69.47 350.88L71.72 353.13C71.797 353.207 71.8898 353.266 71.992 353.304C72.0942 353.341 72.2033 353.356 72.3118 353.347C72.4202 353.338 72.5255 353.306 72.6201 353.252C72.7148 353.198 72.7967 353.125 72.86 353.036L76.61 347.786Z" fill="#989797"/>
</g>
<rect x="95" y="342.1" width="185" height="15" rx="4" fill="#D9D9D9" fill-opacity="0.6"/>
<g clip-path="url(#clip2_10_228)">
<path fill-rule="evenodd" clip-rule="evenodd" d="M63.25 390C63.25 384.615 67.615 380.25 73 380.25C78.385 380.25 82.75 384.615 82.75 390C82.75 395.385 78.385 399.75 73 399.75C67.615 399.75 63.25 395.385 63.25 390ZM76.61 388.186C76.67 388.106 76.7134 388.015 76.7377 387.918C76.762 387.821 76.7666 387.72 76.7514 387.621C76.7361 387.523 76.7012 387.428 76.6489 387.343C76.5965 387.258 76.5276 387.184 76.4463 387.126C76.3649 387.068 76.2728 387.026 76.1753 387.004C76.0778 386.982 75.9769 386.98 75.8785 386.997C75.7801 387.015 75.6862 387.052 75.6023 387.106C75.5184 387.161 75.4462 387.231 75.39 387.314L72.154 391.844L70.53 390.22C70.3878 390.088 70.1998 390.015 70.0055 390.019C69.8112 390.022 69.6258 390.101 69.4884 390.238C69.351 390.376 69.2723 390.561 69.2688 390.755C69.2654 390.95 69.3375 391.138 69.47 391.28L71.72 393.53C71.797 393.607 71.8898 393.666 71.992 393.704C72.0942 393.741 72.2033 393.756 72.3118 393.747C72.4202 393.738 72.5255 393.706 72.6201 393.652C72.7148 393.598 72.7967 393.525 72.86 393.436L76.61 388.186Z" fill="#989797"/>
</g>
<rect x="95" y="382.1" width="185" height="15" rx="4" fill="#D9D9D9" fill-opacity="0.6"/>
<g clip-path="url(#clip3_10_228)">
<path fill-rule="evenodd" clip-rule="evenodd" d="M63.25 429.6C63.25 424.215 67.615 419.85 73 419.85C78.385 419.85 82.75 424.215 82.75 429.6C82.75 434.985 78.385 439.35 73 439.35C67.615 439.35 63.25 434.985 63.25 429.6ZM76.61 427.786C76.67 427.706 76.7134 427.615 76.7377 427.518C76.762 427.421 76.7666 427.32 76.7514 427.221C76.7361 427.123 76.7012 427.028 76.6489 426.943C76.5965 426.858 76.5276 426.784 76.4463 426.726C76.3649 426.668 76.2728 426.626 76.1753 426.604C76.0778 426.582 75.9769 426.58 75.8785 426.598C75.7801 426.615 75.6862 426.652 75.6023 426.707C75.5184 426.761 75.4462 426.831 75.39 426.914L72.154 431.444L70.53 429.82C70.3878 429.688 70.1998 429.615 70.0055 429.619C69.8112 429.622 69.6258 429.701 69.4884 429.838C69.351 429.976 69.2723 430.161 69.2688 430.356C69.2654 430.55 69.3375 430.738 69.47 430.88L71.72 433.13C71.797 433.207 71.8898 433.266 71.992 433.304C72.0942 433.341 72.2033 433.356 72.3118 433.347C72.4202 433.338 72.5255 433.306 72.6201 433.252C72.7148 433.198 72.7967 433.125 72.86 433.036L76.61 427.786Z" fill="#989797"/>
</g>
<rect x="95" y="422.1" width="185" height="15" rx="4" fill="#D9D9D9" fill-opacity="0.6"/>
<g clip-path="url(#clip4_10_228)">
<path fill-rule="evenodd" clip-rule="evenodd" d="M63.25 469.6C63.25 464.215 67.615 459.85 73 459.85C78.385 459.85 82.75 464.215 82.75 469.6C82.75 474.985 78.385 479.35 73 479.35C67.615 479.35 63.25 474.985 63.25 469.6ZM76.61 467.786C76.67 467.706 76.7134 467.615 76.7377 467.518C76.762 467.421 76.7666 467.32 76.7514 467.221C76.7361 467.123 76.7012 467.028 76.6489 466.943C76.5965 466.858 76.5276 466.784 76.4463 466.726C76.3649 466.668 76.2728 466.626 76.1753 466.604C76.0778 466.582 75.9769 466.58 75.8785 466.598C75.7801 466.615 75.6862 466.652 75.6023 466.707C75.5184 466.761 75.4462 466.831 75.39 466.914L72.154 471.444L70.53 469.82C70.3878 469.688 70.1998 469.615 70.0055 469.619C69.8112 469.622 69.6258 469.701 69.4884 469.838C69.351 469.976 69.2723 470.161 69.2688 470.356C69.2654 470.55 69.3375 470.738 69.47 470.88L71.72 473.13C71.797 473.207 71.8898 473.266 71.992 473.304C72.0942 473.341 72.2033 473.356 72.3118 473.347C72.4202 473.338 72.5255 473.306 72.6201 473.252C72.7148 473.198 72.7967 473.125 72.86 473.036L76.61 467.786Z" fill="#989797"/>
</g>
<rect x="95" y="462.1" width="185" height="15" rx="4" fill="#D9D9D9" fill-opacity="0.6"/>
<rect x="20.5" y="149.5" width="336" height="454" rx="11.5" stroke="#D4D4D8"/>
<rect x="725.27" y="149.5" width="338.46" height="454" rx="11.5" fill="white"/>
<rect x="765.77" y="194" width="53" height="24" rx="4" fill="#D9D9D9"/>
<path d="M777.418 260.66V264.474H774.851V260.765C772.472 260.753 770.258 260.214 768.207 259.148V254.279C768.886 254.83 769.9 255.339 771.248 255.808C772.595 256.277 773.797 256.546 774.851 256.617V250.218C772.109 249.199 770.234 248.097 769.226 246.914C768.23 245.718 767.732 244.265 767.732 242.554C767.732 240.714 768.383 239.15 769.683 237.861C770.984 236.56 772.707 235.804 774.851 235.593V232.324H777.418V235.523C779.89 235.64 781.736 236.039 782.955 236.718V241.464C781.314 240.468 779.469 239.859 777.418 239.636V246.298C779.984 247.224 781.824 248.285 782.937 249.48C784.051 250.664 784.607 252.099 784.607 253.787C784.607 255.732 783.986 257.302 782.744 258.498C781.502 259.681 779.726 260.402 777.418 260.66ZM774.851 245.279V239.707C773.222 240 772.408 240.849 772.408 242.255C772.408 243.462 773.222 244.47 774.851 245.279ZM777.418 251.22V256.546C779.094 256.289 779.931 255.451 779.931 254.033C779.931 252.884 779.094 251.947 777.418 251.22ZM788.773 260.15V255.404C790.496 256.458 792.33 256.986 794.275 256.986C795.74 256.986 796.883 256.64 797.703 255.949C798.535 255.246 798.951 254.296 798.951 253.101C798.951 250.605 797.187 249.357 793.66 249.357C792.359 249.357 790.859 249.457 789.16 249.656L790.109 235.593H803.451V240.128H794.345L793.994 245.173C794.896 245.103 795.676 245.068 796.332 245.068C798.922 245.068 800.949 245.748 802.414 247.107C803.879 248.466 804.611 250.294 804.611 252.591C804.611 255.134 803.738 257.214 801.992 258.832C800.246 260.437 797.879 261.24 794.89 261.24C792.465 261.24 790.426 260.876 788.773 260.15ZM817.197 261.24C811.197 261.24 808.197 257.027 808.197 248.601C808.197 244.23 809.006 240.902 810.623 238.617C812.252 236.32 814.607 235.171 817.689 235.171C823.549 235.171 826.478 239.455 826.478 248.021C826.478 252.287 825.676 255.556 824.07 257.83C822.476 260.103 820.185 261.24 817.197 261.24ZM817.443 239.408C815.041 239.408 813.84 242.425 813.84 248.46C813.84 254.144 815.017 256.986 817.373 256.986C819.67 256.986 820.818 254.056 820.818 248.197C820.818 242.337 819.693 239.408 817.443 239.408Z" fill="black"/>
<rect x="765.91" y="275.8" width="151" height="12" rx="4" fill="#D9D9D9" fill-opacity="0.6"/>
<g clip-path="url(#clip5_10_228)">
<path fill-rule="evenodd" clip-rule="evenodd" d="M767.82 355.8C767.82 350.415 772.185 346.05 777.57 346.05C782.955 346.05 787.32 350.415 787.32 355.8C787.32 361.185 782.955 365.55 777.57 365.55C772.185 365.55 767.82 361.185 767.82 355.8ZM781.18 353.986C781.24 353.906 781.283 353.815 781.308 353.718C781.332 353.621 781.337 353.52 781.321 353.421C781.306 353.322 781.271 353.228 781.219 353.143C781.167 353.057 781.098 352.984 781.016 352.925C780.935 352.867 780.843 352.826 780.745 352.804C780.648 352.782 780.547 352.78 780.449 352.797C780.35 352.815 780.256 352.852 780.172 352.906C780.088 352.961 780.016 353.031 779.96 353.114L776.724 357.644L775.1 356.02C774.958 355.887 774.77 355.815 774.576 355.819C774.381 355.822 774.196 355.901 774.058 356.038C773.921 356.176 773.842 356.361 773.839 356.555C773.835 356.75 773.908 356.938 774.04 357.08L776.29 359.33C776.367 359.407 776.46 359.466 776.562 359.503C776.664 359.541 776.773 359.556 776.882 359.547C776.99 359.538 777.096 359.505 777.19 359.452C777.285 359.398 777.367 359.324 777.43 359.236L781.18 353.986Z" fill="#989797" fill-opacity="0.7"/>
</g>
<rect x="799.57" y="348.3" width="185" height="15" rx="4" fill="#D9D9D9" fill-opacity="0.6"/>
<g clip-path="url(#clip6_10_228)">
<path fill-rule="evenodd" clip-rule="evenodd" d="M767.82 395.8C767.82 390.415 772.185 386.05 777.57 386.05C782.955 386.05 787.32 390.415 787.32 395.8C787.32 401.185 782.955 405.55 777.57 405.55C772.185 405.55 767.82 401.185 767.82 395.8ZM781.18 393.986C781.24 393.906 781.283 393.815 781.308 393.718C781.332 393.621 781.337 393.52 781.321 393.421C781.306 393.322 781.271 393.228 781.219 393.143C781.167 393.057 781.098 392.984 781.016 392.925C780.935 392.867 780.843 392.826 780.745 392.804C780.648 392.782 780.547 392.78 780.449 392.797C780.35 392.815 780.256 392.852 780.172 392.906C780.088 392.961 780.016 393.031 779.96 393.114L776.724 397.644L775.1 396.02C774.958 395.887 774.77 395.815 774.576 395.819C774.381 395.822 774.196 395.901 774.058 396.038C773.921 396.176 773.842 396.361 773.839 396.555C773.835 396.75 773.908 396.938 774.04 397.08L776.29 399.33C776.367 399.407 776.46 399.466 776.562 399.503C776.664 399.541 776.773 399.556 776.882 399.547C776.99 399.538 777.096 399.505 777.19 399.452C777.285 399.398 777.367 399.324 777.43 399.236L781.18 393.986Z" fill="#989797" fill-opacity="0.7"/>
</g>
<rect x="799.57" y="388.3" width="185" height="15" rx="4" fill="#D9D9D9" fill-opacity="0.6"/>
<g clip-path="url(#clip7_10_228)">
<path fill-rule="evenodd" clip-rule="evenodd" d="M767.82 435.8C767.82 430.415 772.185 426.05 777.57 426.05C782.955 426.05 787.32 430.415 787.32 435.8C787.32 441.185 782.955 445.55 777.57 445.55C772.185 445.55 767.82 441.185 767.82 435.8ZM781.18 433.986C781.24 433.906 781.283 433.815 781.308 433.718C781.332 433.621 781.337 433.52 781.321 433.421C781.306 433.322 781.271 433.228 781.219 433.143C781.167 433.057 781.098 432.984 781.016 432.925C780.935 432.867 780.843 432.826 780.745 432.804C780.648 432.782 780.547 432.78 780.449 432.797C780.35 432.815 780.256 432.852 780.172 432.906C780.088 432.961 780.016 433.031 779.96 433.114L776.724 437.644L775.1 436.02C774.958 435.887 774.77 435.815 774.576 435.819C774.381 435.822 774.196 435.901 774.058 436.038C773.921 436.176 773.842 436.361 773.839 436.555C773.835 436.75 773.908 436.938 774.04 437.08L776.29 439.33C776.367 439.407 776.46 439.466 776.562 439.503C776.664 439.541 776.773 439.556 776.882 439.547C776.99 439.538 777.096 439.505 777.19 439.452C777.285 439.398 777.367 439.324 777.43 439.236L781.18 433.986Z" fill="#989797" fill-opacity="0.7"/>
</g>
<rect x="799.57" y="428.3" width="185" height="15" rx="4" fill="#D9D9D9" fill-opacity="0.6"/>
<g clip-path="url(#clip8_10_228)">
<path fill-rule="evenodd" clip-rule="evenodd" d="M767.82 475.8C767.82 470.415 772.185 466.05 777.57 466.05C782.955 466.05 787.32 470.415 787.32 475.8C787.32 481.185 782.955 485.55 777.57 485.55C772.185 485.55 767.82 481.185 767.82 475.8ZM781.18 473.986C781.24 473.906 781.283 473.815 781.308 473.718C781.332 473.621 781.337 473.52 781.321 473.421C781.306 473.322 781.271 473.228 781.219 473.143C781.167 473.057 781.098 472.984 781.016 472.925C780.935 472.867 780.843 472.826 780.745 472.804C780.648 472.782 780.547 472.78 780.449 472.797C780.35 472.815 780.256 472.852 780.172 472.906C780.088 472.961 780.016 473.031 779.96 473.114L776.724 477.644L775.1 476.02C774.958 475.887 774.77 475.815 774.576 475.819C774.381 475.822 774.196 475.901 774.058 476.038C773.921 476.176 773.842 476.361 773.839 476.555C773.835 476.75 773.908 476.938 774.04 477.08L776.29 479.33C776.367 479.407 776.46 479.466 776.562 479.503C776.664 479.541 776.773 479.556 776.882 479.547C776.99 479.538 777.096 479.505 777.19 479.452C777.285 479.398 777.367 479.324 777.43 479.236L781.18 473.986Z" fill="#989797" fill-opacity="0.7"/>
</g>
<rect x="799.57" y="468.3" width="185" height="15" rx="4" fill="#D9D9D9" fill-opacity="0.6"/>
<rect x="765.57" y="537.4" width="257" height="41.6" rx="4" fill="#E7E5E5"/>
<path d="M859.24 554C859.24 552.895 860.135 552 861.24 552H929.24C930.345 552 931.24 552.895 931.24 554V562C931.24 563.105 930.345 564 929.24 564H861.24C860.135 564 859.24 563.105 859.24 562V554Z" fill="white"/>
<rect x="725.27" y="149.5" width="338.46" height="454" rx="11.5" stroke="#D4D4D8"/>
<rect x="371.5" y="152.5" width="338.46" height="454" rx="11.5" fill="white"/>
<rect x="412" y="197" width="53" height="24" rx="4" fill="#D9D9D9"/>
<path d="M423.648 263.66V267.474H421.081V263.765C418.702 263.753 416.488 263.214 414.437 262.148V257.279C415.116 257.83 416.13 258.339 417.478 258.808C418.825 259.277 420.027 259.546 421.081 259.617V253.218C418.339 252.199 416.464 251.097 415.456 249.914C414.46 248.718 413.962 247.265 413.962 245.554C413.962 243.714 414.613 242.15 415.913 240.861C417.214 239.56 418.937 238.804 421.081 238.593V235.324H423.648V238.523C426.12 238.64 427.966 239.039 429.185 239.718V244.464C427.544 243.468 425.698 242.859 423.648 242.636V249.298C426.214 250.224 428.054 251.285 429.167 252.48C430.281 253.664 430.837 255.099 430.837 256.787C430.837 258.732 430.216 260.302 428.974 261.498C427.732 262.681 425.956 263.402 423.648 263.66ZM421.081 248.279V242.707C419.452 243 418.638 243.849 418.638 245.255C418.638 246.462 419.452 247.47 421.081 248.279ZM423.648 254.22V259.546C425.323 259.289 426.161 258.451 426.161 257.033C426.161 255.884 425.323 254.947 423.648 254.22ZM447.132 238.031V263.8H441.595V244.289C441.29 244.558 440.927 244.816 440.505 245.062C440.095 245.296 439.656 245.513 439.187 245.712C438.718 245.9 438.232 246.064 437.728 246.205C437.224 246.333 436.726 246.427 436.234 246.486V241.81C437.675 241.388 439.034 240.849 440.312 240.193C441.589 239.537 442.743 238.816 443.775 238.031H447.132ZM463.427 264.24C457.427 264.24 454.427 260.027 454.427 251.601C454.427 247.23 455.236 243.902 456.853 241.617C458.482 239.32 460.837 238.171 463.919 238.171C469.779 238.171 472.708 242.455 472.708 251.021C472.708 255.287 471.906 258.556 470.3 260.83C468.706 263.103 466.415 264.24 463.427 264.24ZM463.673 242.408C461.271 242.408 460.07 245.425 460.07 251.46C460.07 257.144 461.247 259.986 463.603 259.986C465.9 259.986 467.048 257.056 467.048 251.197C467.048 245.337 465.923 242.408 463.673 242.408ZM484.134 264.24C478.134 264.24 475.134 260.027 475.134 251.601C475.134 247.23 475.943 243.902 477.56 241.617C479.189 239.32 481.544 238.171 484.626 238.171C490.486 238.171 493.415 242.455 493.415 251.021C493.415 255.287 492.613 258.556 491.007 260.83C489.413 263.103 487.122 264.24 484.134 264.24ZM484.38 242.408C481.978 242.408 480.777 245.425 480.777 251.46C480.777 257.144 481.954 259.986 484.31 259.986C486.607 259.986 487.755 257.056 487.755 251.197C487.755 245.337 486.63 242.408 484.38 242.408Z" fill="black"/>
<rect x="412.14" y="278.8" width="151" height="12" rx="4" fill="#D9D9D9" fill-opacity="0.6"/>
<g clip-path="url(#clip9_10_228)">
<path fill-rule="evenodd" clip-rule="evenodd" d="M414.05 358.8C414.05 353.415 418.415 349.05 423.8 349.05C429.185 349.05 433.55 353.415 433.55 358.8C433.55 364.185 429.185 368.55 423.8 368.55C418.415 368.55 414.05 364.185 414.05 358.8ZM427.41 356.986C427.47 356.906 427.513 356.815 427.538 356.718C427.562 356.621 427.567 356.52 427.551 356.421C427.536 356.322 427.501 356.228 427.449 356.143C427.397 356.057 427.328 355.984 427.246 355.925C427.165 355.867 427.073 355.826 426.975 355.804C426.878 355.782 426.777 355.78 426.679 355.797C426.58 355.815 426.486 355.852 426.402 355.906C426.318 355.961 426.246 356.031 426.19 356.114L422.954 360.644L421.33 359.02C421.188 358.887 421 358.815 420.806 358.819C420.611 358.822 420.426 358.901 420.288 359.038C420.151 359.176 420.072 359.361 420.069 359.555C420.065 359.75 420.138 359.938 420.27 360.08L422.52 362.33C422.597 362.407 422.69 362.466 422.792 362.503C422.894 362.541 423.003 362.556 423.112 362.547C423.22 362.538 423.326 362.505 423.42 362.452C423.515 362.398 423.597 362.324 423.66 362.236L427.41 356.986Z" fill="#989797"/>
</g>
<rect x="445.8" y="351.3" width="185" height="15" rx="4" fill="#D9D9D9" fill-opacity="0.6"/>
<g clip-path="url(#clip10_10_228)">
<path fill-rule="evenodd" clip-rule="evenodd" d="M414.05 398.8C414.05 393.415 418.415 389.05 423.8 389.05C429.185 389.05 433.55 393.415 433.55 398.8C433.55 404.185 429.185 408.55 423.8 408.55C418.415 408.55 414.05 404.185 414.05 398.8ZM427.41 396.986C427.47 396.906 427.513 396.815 427.538 396.718C427.562 396.621 427.567 396.52 427.551 396.421C427.536 396.322 427.501 396.228 427.449 396.143C427.397 396.057 427.328 395.984 427.246 395.925C427.165 395.867 427.073 395.826 426.975 395.804C426.878 395.782 426.777 395.78 426.679 395.797C426.58 395.815 426.486 395.852 426.402 395.906C426.318 395.961 426.246 396.031 426.19 396.114L422.954 400.644L421.33 399.02C421.188 398.887 421 398.815 420.806 398.819C420.611 398.822 420.426 398.901 420.288 399.038C420.151 399.176 420.072 399.361 420.069 399.555C420.065 399.75 420.138 399.938 420.27 400.08L422.52 402.33C422.597 402.407 422.69 402.466 422.792 402.503C422.894 402.541 423.003 402.556 423.112 402.547C423.22 402.538 423.326 402.505 423.42 402.452C423.515 402.398 423.597 402.324 423.66 402.236L427.41 396.986Z" fill="#989797"/>
</g>
<rect x="445.8" y="391.3" width="185" height="15" rx="4" fill="#D9D9D9" fill-opacity="0.6"/>
<g clip-path="url(#clip11_10_228)">
<path fill-rule="evenodd" clip-rule="evenodd" d="M414.05 438.8C414.05 433.415 418.415 429.05 423.8 429.05C429.185 429.05 433.55 433.415 433.55 438.8C433.55 444.185 429.185 448.55 423.8 448.55C418.415 448.55 414.05 444.185 414.05 438.8ZM427.41 436.986C427.47 436.906 427.513 436.815 427.538 436.718C427.562 436.621 427.567 436.52 427.551 436.421C427.536 436.322 427.501 436.228 427.449 436.143C427.397 436.057 427.328 435.984 427.246 435.925C427.165 435.867 427.073 435.826 426.975 435.804C426.878 435.782 426.777 435.78 426.679 435.797C426.58 435.815 426.486 435.852 426.402 435.906C426.318 435.961 426.246 436.031 426.19 436.114L422.954 440.644L421.33 439.02C421.188 438.887 421 438.815 420.806 438.819C420.611 438.822 420.426 438.901 420.288 439.038C420.151 439.176 420.072 439.361 420.069 439.555C420.065 439.75 420.138 439.938 420.27 440.08L422.52 442.33C422.597 442.407 422.69 442.466 422.792 442.503C422.894 442.541 423.003 442.556 423.112 442.547C423.22 442.538 423.326 442.505 423.42 442.452C423.515 442.398 423.597 442.324 423.66 442.236L427.41 436.986Z" fill="#989797"/>
</g>
<rect x="445.8" y="431.3" width="185" height="15" rx="4" fill="#D9D9D9" fill-opacity="0.6"/>
<g clip-path="url(#clip12_10_228)">
<path fill-rule="evenodd" clip-rule="evenodd" d="M414.05 478.8C414.05 473.415 418.415 469.05 423.8 469.05C429.185 469.05 433.55 473.415 433.55 478.8C433.55 484.185 429.185 488.55 423.8 488.55C418.415 488.55 414.05 484.185 414.05 478.8ZM427.41 476.986C427.47 476.906 427.513 476.815 427.538 476.718C427.562 476.621 427.567 476.52 427.551 476.421C427.536 476.322 427.501 476.228 427.449 476.143C427.397 476.057 427.328 475.984 427.246 475.925C427.165 475.867 427.073 475.826 426.975 475.804C426.878 475.782 426.777 475.78 426.679 475.797C426.58 475.815 426.486 475.852 426.402 475.906C426.318 475.961 426.246 476.031 426.19 476.114L422.954 480.644L421.33 479.02C421.188 478.887 421 478.815 420.806 478.819C420.611 478.822 420.426 478.901 420.288 479.038C420.151 479.176 420.072 479.361 420.069 479.555C420.065 479.75 420.138 479.938 420.27 480.08L422.52 482.33C422.597 482.407 422.69 482.466 422.792 482.503C422.894 482.541 423.003 482.556 423.112 482.547C423.22 482.538 423.326 482.505 423.42 482.452C423.515 482.398 423.597 482.324 423.66 482.236L427.41 476.986Z" fill="#989797"/>
</g>
<rect x="445.8" y="471.3" width="185" height="15" rx="4" fill="#D9D9D9" fill-opacity="0.6"/>
<rect x="411.8" y="540.4" width="255.46" height="41.6" rx="4" fill="#E7E5E5"/>
<path d="M502 557C502 555.895 502.895 555 504 555H572C573.105 555 574 555.895 574 557V565C574 566.105 573.105 567 572 567H504C502.895 567 502 566.105 502 565V557Z" fill="white"/>
<rect x="371.5" y="152.5" width="338.46" height="454" rx="11.5" stroke="#D4D4D8"/>
</g>
<defs>
<filter id="filter0_d_10_228" x="10" y="139" width="1064" height="478" filterUnits="userSpaceOnUse" color-interpolation-filters="sRGB">
<feFlood flood-opacity="0" result="BackgroundImageFix"/>
<feColorMatrix in="SourceAlpha" type="matrix" values="0 0 0 0 0 0 0 0 0 0 0 0 0 0 0 0 0 0 127 0" result="hardAlpha"/>
<feOffset/>
<feGaussianBlur stdDeviation="5"/>
<feComposite in2="hardAlpha" operator="out"/>
<feColorMatrix type="matrix" values="0 0 0 0 0 0 0 0 0 0 0 0 0 0 0 0 0 0 0.15 0"/>
<feBlend mode="normal" in2="BackgroundImageFix" result="effect1_dropShadow_10_228"/>
<feBlend mode="normal" in="SourceGraphic" in2="effect1_dropShadow_10_228" result="shape"/>
</filter>
<clipPath id="clip0_10_228">
<rect width="1044" height="458" fill="white" transform="translate(20 149)"/>
</clipPath>
<clipPath id="clip1_10_228">
<rect width="24" height="24" fill="white" transform="translate(61 337.6)"/>
</clipPath>
<clipPath id="clip2_10_228">
<rect width="24" height="24" fill="white" transform="translate(61 377.6)"/>
</clipPath>
<clipPath id="clip3_10_228">
<rect width="24" height="24" fill="white" transform="translate(61 417.6)"/>
</clipPath>
<clipPath id="clip4_10_228">
<rect width="24" height="24" fill="white" transform="translate(61 457.6)"/>
</clipPath>
<clipPath id="clip5_10_228">
<rect width="24" height="24" fill="white" transform="translate(765.57 343.8)"/>
</clipPath>
<clipPath id="clip6_10_228">
<rect width="24" height="24" fill="white" transform="translate(765.57 383.8)"/>
</clipPath>
<clipPath id="clip7_10_228">
<rect width="24" height="24" fill="white" transform="translate(765.57 423.8)"/>
</clipPath>
<clipPath id="clip8_10_228">
<rect width="24" height="24" fill="white" transform="translate(765.57 463.8)"/>
</clipPath>
<clipPath id="clip9_10_228">
<rect width="24" height="24" fill="white" transform="translate(411.8 346.8)"/>
</clipPath>
<clipPath id="clip10_10_228">
<rect width="24" height="24" fill="white" transform="translate(411.8 386.8)"/>
</clipPath>
<clipPath id="clip11_10_228">
<rect width="24" height="24" fill="white" transform="translate(411.8 426.8)"/>
</clipPath>
<clipPath id="clip12_10_228">
<rect width="24" height="24" fill="white" transform="translate(411.8 466.8)"/>
</clipPath>
</defs>
</svg>
