<svg width="852" height="615" viewBox="0 0 852 615" fill="none" xmlns="http://www.w3.org/2000/svg">
<g filter="url(#filter0_d_24_229)">
<rect x="83" y="148" width="686" height="310" rx="14" fill="white"/>
</g>
<path d="M648.29 267.543C643.145 267.543 638.96 271.729 638.96 276.873C638.96 282.017 643.145 286.203 648.29 286.203C653.434 286.203 657.62 282.017 657.62 276.873C657.62 271.729 653.434 267.543 648.29 267.543ZM648.29 284.036C644.341 284.036 641.126 280.823 641.126 276.873C641.126 272.923 644.34 269.71 648.29 269.71C652.239 269.71 655.453 272.923 655.453 276.873C655.453 280.823 652.24 284.036 648.29 284.036Z" fill="#AAAAAA"/>
<path d="M661.773 255H551.225C547.241 255 544 258.241 544 262.225V331.736C544 335.772 547.284 339.056 551.32 339.056H661.442C665.609 339.056 669 335.665 669 331.497V315.371L668.999 262.225C668.999 258.241 665.758 255 661.773 255ZM666.832 320.044V331.496C666.832 334.469 664.414 336.887 661.441 336.887H551.319C548.477 336.887 546.166 334.575 546.166 331.734V316.625L586.595 290.711L607.526 304.03L622.155 293.853L666.832 316.697L666.832 320.044ZM666.832 314.261L621.987 291.332L607.474 301.428L586.593 288.139L546.168 314.051V262.223C546.168 259.434 548.437 257.165 551.226 257.165H661.775C664.564 257.165 666.833 259.434 666.833 262.223L666.832 314.261Z" fill="#AAAAAA"/>
<rect x="139" y="274" width="229" height="11" rx="5.5" fill="#EAEAEA"/>
<rect x="139" y="297" width="175" height="11" rx="5.5" fill="#EAEAEA"/>
<rect x="139" y="320" width="112" height="11" rx="5.5" fill="#EAEAEA"/>
<rect x="139" y="371" width="112" height="34" rx="3" fill="#EAEAEA"/>
<line x1="426.5" y1="147" x2="426.5" y2="457" stroke="#AAAAAA"/>
<path d="M160.953 236H155.891V226.875H146.609V236H141.562V213.594H146.609V222.531H155.891V213.594H160.953V236ZM179.984 229.406H169.547C169.714 231.729 171.177 232.891 173.938 232.891C175.698 232.891 177.245 232.474 178.578 231.641V235.203C177.099 235.995 175.177 236.391 172.812 236.391C170.229 236.391 168.224 235.677 166.797 234.25C165.37 232.812 164.656 230.812 164.656 228.25C164.656 225.594 165.427 223.49 166.969 221.938C168.51 220.385 170.406 219.609 172.656 219.609C174.99 219.609 176.792 220.302 178.062 221.688C179.344 223.073 179.984 224.953 179.984 227.328V229.406ZM175.406 226.375C175.406 224.083 174.479 222.938 172.625 222.938C171.833 222.938 171.146 223.266 170.562 223.922C169.99 224.578 169.641 225.396 169.516 226.375H175.406ZM196.234 236H191.562V233.703H191.5C190.427 235.495 188.839 236.391 186.734 236.391C185.182 236.391 183.958 235.953 183.062 235.078C182.177 234.193 181.734 233.016 181.734 231.547C181.734 228.443 183.573 226.651 187.25 226.172L191.594 225.594C191.594 223.844 190.646 222.969 188.75 222.969C186.844 222.969 185.031 223.536 183.312 224.672V220.953C184 220.599 184.938 220.286 186.125 220.016C187.323 219.745 188.411 219.609 189.391 219.609C193.953 219.609 196.234 221.885 196.234 226.438V236ZM191.594 229.5V228.422L188.688 228.797C187.083 229.005 186.281 229.729 186.281 230.969C186.281 231.531 186.474 231.995 186.859 232.359C187.255 232.714 187.786 232.891 188.453 232.891C189.38 232.891 190.135 232.573 190.719 231.938C191.302 231.292 191.594 230.479 191.594 229.5ZM215.797 236H210.859V233.797H210.797C209.672 235.526 208.021 236.391 205.844 236.391C203.844 236.391 202.234 235.688 201.016 234.281C199.797 232.865 199.188 230.891 199.188 228.359C199.188 225.714 199.859 223.594 201.203 222C202.547 220.406 204.307 219.609 206.484 219.609C208.547 219.609 209.984 220.349 210.797 221.828H210.859V212.312H215.797V236ZM210.953 228.219V227.016C210.953 225.974 210.651 225.109 210.047 224.422C209.443 223.734 208.656 223.391 207.688 223.391C206.594 223.391 205.74 223.823 205.125 224.688C204.51 225.542 204.203 226.719 204.203 228.219C204.203 229.625 204.5 230.708 205.094 231.469C205.688 232.229 206.51 232.609 207.562 232.609C208.562 232.609 209.375 232.208 210 231.406C210.635 230.604 210.953 229.542 210.953 228.219ZM222.453 217.469C221.62 217.469 220.938 217.224 220.406 216.734C219.875 216.234 219.609 215.625 219.609 214.906C219.609 214.167 219.875 213.562 220.406 213.094C220.938 212.625 221.62 212.391 222.453 212.391C223.297 212.391 223.979 212.625 224.5 213.094C225.031 213.562 225.297 214.167 225.297 214.906C225.297 215.656 225.031 216.271 224.5 216.75C223.979 217.229 223.297 217.469 222.453 217.469ZM224.891 236H219.953V220H224.891V236ZM244.5 236H239.578V227.109C239.578 224.63 238.693 223.391 236.922 223.391C236.068 223.391 235.365 223.719 234.812 224.375C234.26 225.031 233.984 225.865 233.984 226.875V236H229.047V220H233.984V222.531H234.047C235.224 220.583 236.938 219.609 239.188 219.609C242.729 219.609 244.5 221.807 244.5 226.203V236ZM264.109 234.172C264.109 237.141 263.25 239.438 261.531 241.062C259.812 242.698 257.323 243.516 254.062 243.516C251.906 243.516 250.198 243.208 248.938 242.594V238.438C250.583 239.396 252.245 239.875 253.922 239.875C255.589 239.875 256.88 239.432 257.797 238.547C258.714 237.672 259.172 236.479 259.172 234.969V233.703H259.109C257.984 235.495 256.323 236.391 254.125 236.391C252.083 236.391 250.464 235.672 249.266 234.234C248.068 232.797 247.469 230.87 247.469 228.453C247.469 225.745 248.135 223.594 249.469 222C250.802 220.406 252.557 219.609 254.734 219.609C256.682 219.609 258.141 220.359 259.109 221.859H259.172V220H264.109V234.172ZM259.234 228.312V227.047C259.234 226.036 258.932 225.177 258.328 224.469C257.734 223.75 256.958 223.391 256 223.391C254.906 223.391 254.047 223.818 253.422 224.672C252.797 225.526 252.484 226.729 252.484 228.281C252.484 229.615 252.781 230.672 253.375 231.453C253.969 232.224 254.781 232.609 255.812 232.609C256.833 232.609 257.656 232.219 258.281 231.438C258.917 230.646 259.234 229.604 259.234 228.312Z" fill="#333333"/>
<rect x="166" y="384" width="58" height="8" rx="4" fill="white"/>
<defs>
<filter id="filter0_d_24_229" x="79" y="144" width="694" height="318" filterUnits="userSpaceOnUse" color-interpolation-filters="sRGB">
<feFlood flood-opacity="0" result="BackgroundImageFix"/>
<feColorMatrix in="SourceAlpha" type="matrix" values="0 0 0 0 0 0 0 0 0 0 0 0 0 0 0 0 0 0 127 0" result="hardAlpha"/>
<feOffset/>
<feGaussianBlur stdDeviation="2"/>
<feComposite in2="hardAlpha" operator="out"/>
<feColorMatrix type="matrix" values="0 0 0 0 0 0 0 0 0 0 0 0 0 0 0 0 0 0 0.25 0"/>
<feBlend mode="normal" in2="BackgroundImageFix" result="effect1_dropShadow_24_229"/>
<feBlend mode="normal" in="SourceGraphic" in2="effect1_dropShadow_24_229" result="shape"/>
</filter>
</defs>
</svg>
