<svg width="852" height="615" viewBox="0 0 852 615" fill="none" xmlns="http://www.w3.org/2000/svg">
<path d="M351.5 121.703H345.109V140H340.047V121.703H333.688V117.594H351.5V121.703ZM365.531 133.406H355.094C355.26 135.729 356.724 136.891 359.484 136.891C361.245 136.891 362.792 136.474 364.125 135.641V139.203C362.646 139.995 360.724 140.391 358.359 140.391C355.776 140.391 353.771 139.677 352.344 138.25C350.917 136.812 350.203 134.812 350.203 132.25C350.203 129.594 350.974 127.49 352.516 125.938C354.057 124.385 355.953 123.609 358.203 123.609C360.536 123.609 362.339 124.302 363.609 125.688C364.891 127.073 365.531 128.953 365.531 131.328V133.406ZM360.953 130.375C360.953 128.083 360.026 126.938 358.172 126.938C357.38 126.938 356.693 127.266 356.109 127.922C355.536 128.578 355.188 129.396 355.062 130.375H360.953ZM367.422 139.578V135.578C368.234 136.068 369.042 136.432 369.844 136.672C370.656 136.911 371.422 137.031 372.141 137.031C373.016 137.031 373.703 136.911 374.203 136.672C374.714 136.432 374.969 136.068 374.969 135.578C374.969 135.266 374.854 135.005 374.625 134.797C374.396 134.589 374.099 134.406 373.734 134.25C373.38 134.094 372.99 133.953 372.562 133.828C372.135 133.703 371.724 133.562 371.328 133.406C370.693 133.167 370.13 132.911 369.641 132.641C369.161 132.359 368.755 132.036 368.422 131.672C368.099 131.307 367.849 130.885 367.672 130.406C367.505 129.927 367.422 129.359 367.422 128.703C367.422 127.807 367.615 127.036 368 126.391C368.396 125.745 368.917 125.219 369.562 124.812C370.219 124.396 370.964 124.094 371.797 123.906C372.641 123.708 373.516 123.609 374.422 123.609C375.13 123.609 375.849 123.667 376.578 123.781C377.307 123.885 378.026 124.042 378.734 124.25V128.062C378.109 127.698 377.438 127.427 376.719 127.25C376.01 127.062 375.312 126.969 374.625 126.969C374.302 126.969 373.995 127 373.703 127.062C373.422 127.115 373.172 127.198 372.953 127.312C372.734 127.417 372.562 127.557 372.438 127.734C372.312 127.901 372.25 128.094 372.25 128.312C372.25 128.604 372.344 128.854 372.531 129.062C372.719 129.271 372.964 129.453 373.266 129.609C373.568 129.755 373.901 129.891 374.266 130.016C374.641 130.13 375.01 130.25 375.375 130.375C376.031 130.604 376.625 130.854 377.156 131.125C377.688 131.396 378.141 131.714 378.516 132.078C378.901 132.443 379.193 132.87 379.391 133.359C379.599 133.849 379.703 134.432 379.703 135.109C379.703 136.057 379.495 136.87 379.078 137.547C378.672 138.214 378.125 138.76 377.438 139.188C376.76 139.604 375.974 139.906 375.078 140.094C374.193 140.292 373.271 140.391 372.312 140.391C370.552 140.391 368.922 140.12 367.422 139.578ZM392.234 139.812C391.505 140.198 390.406 140.391 388.938 140.391C385.458 140.391 383.719 138.583 383.719 134.969V127.641H381.125V124H383.719V120.547L388.641 119.141V124H392.234V127.641H388.641V134.109C388.641 135.776 389.302 136.609 390.625 136.609C391.146 136.609 391.682 136.458 392.234 136.156V139.812ZM397.531 121.469C396.698 121.469 396.016 121.224 395.484 120.734C394.953 120.234 394.688 119.625 394.688 118.906C394.688 118.167 394.953 117.562 395.484 117.094C396.016 116.625 396.698 116.391 397.531 116.391C398.375 116.391 399.057 116.625 399.578 117.094C400.109 117.562 400.375 118.167 400.375 118.906C400.375 119.656 400.109 120.271 399.578 120.75C399.057 121.229 398.375 121.469 397.531 121.469ZM399.969 140H395.031V124H399.969V140ZM429.531 140H424.609V130.875C424.609 128.552 423.755 127.391 422.047 127.391C421.234 127.391 420.573 127.74 420.062 128.438C419.552 129.135 419.297 130.005 419.297 131.047V140H414.359V130.781C414.359 128.521 413.521 127.391 411.844 127.391C411 127.391 410.323 127.724 409.812 128.391C409.312 129.057 409.062 129.964 409.062 131.109V140H404.125V124H409.062V126.5H409.125C409.635 125.646 410.349 124.953 411.266 124.422C412.193 123.88 413.203 123.609 414.297 123.609C416.557 123.609 418.104 124.604 418.938 126.594C420.156 124.604 421.948 123.609 424.312 123.609C427.792 123.609 429.531 125.755 429.531 130.047V140ZM441.062 140.391C438.396 140.391 436.297 139.646 434.766 138.156C433.245 136.656 432.484 134.625 432.484 132.062C432.484 129.417 433.276 127.349 434.859 125.859C436.443 124.359 438.583 123.609 441.281 123.609C443.938 123.609 446.021 124.359 447.531 125.859C449.042 127.349 449.797 129.323 449.797 131.781C449.797 134.438 449.016 136.536 447.453 138.078C445.901 139.62 443.771 140.391 441.062 140.391ZM441.188 127.391C440.021 127.391 439.115 127.792 438.469 128.594C437.823 129.396 437.5 130.531 437.5 132C437.5 135.073 438.74 136.609 441.219 136.609C443.583 136.609 444.766 135.031 444.766 131.875C444.766 128.885 443.573 127.391 441.188 127.391ZM468.453 140H463.531V131.109C463.531 128.63 462.646 127.391 460.875 127.391C460.021 127.391 459.318 127.719 458.766 128.375C458.214 129.031 457.938 129.865 457.938 130.875V140H453V124H457.938V126.531H458C459.177 124.583 460.891 123.609 463.141 123.609C466.682 123.609 468.453 125.807 468.453 130.203V140ZM474.875 121.469C474.042 121.469 473.359 121.224 472.828 120.734C472.297 120.234 472.031 119.625 472.031 118.906C472.031 118.167 472.297 117.562 472.828 117.094C473.359 116.625 474.042 116.391 474.875 116.391C475.719 116.391 476.401 116.625 476.922 117.094C477.453 117.562 477.719 118.167 477.719 118.906C477.719 119.656 477.453 120.271 476.922 120.75C476.401 121.229 475.719 121.469 474.875 121.469ZM477.312 140H472.375V124H477.312V140ZM494.781 140H490.109V137.703H490.047C488.974 139.495 487.385 140.391 485.281 140.391C483.729 140.391 482.505 139.953 481.609 139.078C480.724 138.193 480.281 137.016 480.281 135.547C480.281 132.443 482.12 130.651 485.797 130.172L490.141 129.594C490.141 127.844 489.193 126.969 487.297 126.969C485.391 126.969 483.578 127.536 481.859 128.672V124.953C482.547 124.599 483.484 124.286 484.672 124.016C485.87 123.745 486.958 123.609 487.938 123.609C492.5 123.609 494.781 125.885 494.781 130.438V140ZM490.141 133.5V132.422L487.234 132.797C485.63 133.005 484.828 133.729 484.828 134.969C484.828 135.531 485.021 135.995 485.406 136.359C485.802 136.714 486.333 136.891 487 136.891C487.927 136.891 488.682 136.573 489.266 135.938C489.849 135.292 490.141 134.479 490.141 133.5ZM503.625 140H498.688V116.312H503.625V140ZM506.734 139.578V135.578C507.547 136.068 508.354 136.432 509.156 136.672C509.969 136.911 510.734 137.031 511.453 137.031C512.328 137.031 513.016 136.911 513.516 136.672C514.026 136.432 514.281 136.068 514.281 135.578C514.281 135.266 514.167 135.005 513.938 134.797C513.708 134.589 513.411 134.406 513.047 134.25C512.693 134.094 512.302 133.953 511.875 133.828C511.448 133.703 511.036 133.562 510.641 133.406C510.005 133.167 509.443 132.911 508.953 132.641C508.474 132.359 508.068 132.036 507.734 131.672C507.411 131.307 507.161 130.885 506.984 130.406C506.818 129.927 506.734 129.359 506.734 128.703C506.734 127.807 506.927 127.036 507.312 126.391C507.708 125.745 508.229 125.219 508.875 124.812C509.531 124.396 510.276 124.094 511.109 123.906C511.953 123.708 512.828 123.609 513.734 123.609C514.443 123.609 515.161 123.667 515.891 123.781C516.62 123.885 517.339 124.042 518.047 124.25V128.062C517.422 127.698 516.75 127.427 516.031 127.25C515.323 127.062 514.625 126.969 513.938 126.969C513.615 126.969 513.307 127 513.016 127.062C512.734 127.115 512.484 127.198 512.266 127.312C512.047 127.417 511.875 127.557 511.75 127.734C511.625 127.901 511.562 128.094 511.562 128.312C511.562 128.604 511.656 128.854 511.844 129.062C512.031 129.271 512.276 129.453 512.578 129.609C512.88 129.755 513.214 129.891 513.578 130.016C513.953 130.13 514.323 130.25 514.688 130.375C515.344 130.604 515.938 130.854 516.469 131.125C517 131.396 517.453 131.714 517.828 132.078C518.214 132.443 518.505 132.87 518.703 133.359C518.911 133.849 519.016 134.432 519.016 135.109C519.016 136.057 518.807 136.87 518.391 137.547C517.984 138.214 517.438 138.76 516.75 139.188C516.073 139.604 515.286 139.906 514.391 140.094C513.505 140.292 512.583 140.391 511.625 140.391C509.865 140.391 508.234 140.12 506.734 139.578Z" fill="#333333"/>
<g filter="url(#filter0_d_24_211)">
<rect x="113" y="200" width="627" height="264" rx="17" fill="white"/>
</g>
<g filter="url(#filter1_d_24_211)">
<circle cx="417.5" cy="373.5" r="34.5" fill="white"/>
<path d="M417.497 372.948C421.704 372.948 425.127 369.525 425.127 365.318C425.127 361.11 421.704 357.688 417.497 357.688C413.289 357.688 409.867 361.11 409.867 365.318C409.867 369.525 413.289 372.948 417.497 372.948Z" fill="#C6C6C6"/>
<path d="M406.801 388.848H428.196C428.853 388.848 429.475 388.563 429.905 388.06C430.325 387.569 430.511 386.922 430.411 386.289C429.407 379.901 423.978 375.263 417.5 375.263C411.022 375.263 405.594 379.9 404.589 386.289C404.489 386.922 404.672 387.569 405.095 388.06C405.521 388.563 406.144 388.848 406.805 388.848H406.801Z" fill="#C6C6C6"/>
</g>
<rect x="353" y="426" width="128" height="11" rx="5.5" fill="#D9D9D9"/>
<path d="M224.098 259.867L222.785 265.082H220.406L222.316 259.867H224.098ZM219.949 259.867L218.672 265.082H216.246L218.156 259.867H219.949ZM240.949 277H238.148V269.711H230.238V277H227.449V260.195H230.238V267.262H238.148V260.195H240.949V277ZM246.164 262.48C245.719 262.48 245.336 262.336 245.016 262.047C244.703 261.758 244.547 261.391 244.547 260.945C244.547 260.5 244.703 260.129 245.016 259.832C245.336 259.535 245.719 259.387 246.164 259.387C246.625 259.387 247.016 259.535 247.336 259.832C247.656 260.129 247.816 260.5 247.816 260.945C247.816 261.367 247.656 261.73 247.336 262.035C247.016 262.332 246.625 262.48 246.164 262.48ZM247.512 277H244.793V265H247.512V277ZM261.996 276.039C261.996 280.445 259.781 282.648 255.352 282.648C253.789 282.648 252.426 282.387 251.262 281.863V279.379C252.574 280.129 253.82 280.504 255 280.504C257.852 280.504 259.277 279.102 259.277 276.297V274.984H259.23C258.332 276.516 256.98 277.281 255.176 277.281C253.715 277.281 252.535 276.75 251.637 275.688C250.746 274.617 250.301 273.184 250.301 271.387C250.301 269.348 250.781 267.727 251.742 266.523C252.703 265.32 254.023 264.719 255.703 264.719C257.289 264.719 258.465 265.367 259.23 266.664H259.277V265H261.996V276.039ZM259.301 271.504V269.945C259.301 269.102 259.02 268.383 258.457 267.789C257.902 267.188 257.207 266.887 256.371 266.887C255.34 266.887 254.531 267.27 253.945 268.035C253.367 268.793 253.078 269.855 253.078 271.223C253.078 272.402 253.355 273.348 253.91 274.059C254.473 274.762 255.215 275.113 256.137 275.113C257.074 275.113 257.836 274.777 258.422 274.105C259.008 273.426 259.301 272.559 259.301 271.504ZM276.199 277H273.48V270.438C273.48 268.062 272.688 266.875 271.102 266.875C270.305 266.875 269.633 267.219 269.086 267.906C268.539 268.594 268.266 269.473 268.266 270.543V277H265.535V259.234H268.266V266.992H268.312C269.219 265.477 270.516 264.719 272.203 264.719C274.867 264.719 276.199 266.348 276.199 269.605V277ZM282.234 277H279.504V259.234H282.234V277ZM296.18 265L290.766 278.922C289.641 281.406 288.062 282.648 286.031 282.648C285.461 282.648 284.984 282.598 284.602 282.496V280.234C285.031 280.375 285.422 280.445 285.773 280.445C286.789 280.445 287.547 279.945 288.047 278.945L288.855 276.977L284.086 265H287.098L289.957 273.719C289.988 273.828 290.059 274.117 290.168 274.586H290.227C290.266 274.406 290.336 274.125 290.438 273.742L293.438 265H296.18ZM311.566 267.59C311.238 267.332 310.766 267.203 310.148 267.203C309.344 267.203 308.672 267.566 308.133 268.293C307.594 269.02 307.324 270.008 307.324 271.258V277H304.605V265H307.324V267.473H307.371C307.637 266.629 308.043 265.973 308.59 265.504C309.145 265.027 309.762 264.789 310.441 264.789C310.934 264.789 311.309 264.863 311.566 265.012V267.59ZM323.438 271.738H315.258C315.289 272.848 315.629 273.703 316.277 274.305C316.934 274.906 317.832 275.207 318.973 275.207C320.254 275.207 321.43 274.824 322.5 274.059V276.25C321.406 276.938 319.961 277.281 318.164 277.281C316.398 277.281 315.012 276.738 314.004 275.652C313.004 274.559 312.504 273.023 312.504 271.047C312.504 269.18 313.055 267.66 314.156 266.488C315.266 265.309 316.641 264.719 318.281 264.719C319.922 264.719 321.191 265.246 322.09 266.301C322.988 267.355 323.438 268.82 323.438 270.695V271.738ZM320.812 269.816C320.805 268.84 320.574 268.082 320.121 267.543C319.668 266.996 319.043 266.723 318.246 266.723C317.465 266.723 316.801 267.008 316.254 267.578C315.715 268.148 315.383 268.895 315.258 269.816H320.812ZM334.617 276.449C333.656 277.004 332.52 277.281 331.207 277.281C329.426 277.281 327.988 276.727 326.895 275.617C325.801 274.5 325.254 273.055 325.254 271.281C325.254 269.305 325.84 267.719 327.012 266.523C328.191 265.32 329.766 264.719 331.734 264.719C332.828 264.719 333.793 264.91 334.629 265.293V267.824C333.793 267.199 332.902 266.887 331.957 266.887C330.809 266.887 329.867 267.277 329.133 268.059C328.398 268.832 328.031 269.848 328.031 271.105C328.031 272.348 328.375 273.328 329.062 274.047C329.758 274.766 330.688 275.125 331.852 275.125C332.828 275.125 333.75 274.777 334.617 274.082V276.449ZM342.645 277.281C340.793 277.281 339.312 276.723 338.203 275.605C337.102 274.48 336.551 272.992 336.551 271.141C336.551 269.125 337.125 267.551 338.273 266.418C339.43 265.285 340.984 264.719 342.938 264.719C344.812 264.719 346.273 265.27 347.32 266.371C348.367 267.473 348.891 269 348.891 270.953C348.891 272.867 348.324 274.402 347.191 275.559C346.066 276.707 344.551 277.281 342.645 277.281ZM342.773 266.887C341.711 266.887 340.871 267.258 340.254 268C339.637 268.742 339.328 269.766 339.328 271.07C339.328 272.328 339.641 273.32 340.266 274.047C340.891 274.766 341.727 275.125 342.773 275.125C343.844 275.125 344.664 274.77 345.234 274.059C345.812 273.348 346.102 272.336 346.102 271.023C346.102 269.703 345.812 268.684 345.234 267.965C344.664 267.246 343.844 266.887 342.773 266.887ZM369.609 277H366.891V270.461C366.891 269.203 366.711 268.293 366.352 267.73C366 267.168 365.402 266.887 364.559 266.887C363.848 266.887 363.242 267.242 362.742 267.953C362.25 268.664 362.004 269.516 362.004 270.508V277H359.273V270.238C359.273 268.004 358.484 266.887 356.906 266.887C356.172 266.887 355.566 267.223 355.09 267.895C354.621 268.566 354.387 269.438 354.387 270.508V277H351.668V265H354.387V266.898H354.434C355.301 265.445 356.562 264.719 358.219 264.719C359.047 264.719 359.77 264.949 360.387 265.41C361.012 265.863 361.438 266.461 361.664 267.203C362.555 265.547 363.883 264.719 365.648 264.719C368.289 264.719 369.609 266.348 369.609 269.605V277ZM390.867 277H388.148V270.461C388.148 269.203 387.969 268.293 387.609 267.73C387.258 267.168 386.66 266.887 385.816 266.887C385.105 266.887 384.5 267.242 384 267.953C383.508 268.664 383.262 269.516 383.262 270.508V277H380.531V270.238C380.531 268.004 379.742 266.887 378.164 266.887C377.43 266.887 376.824 267.223 376.348 267.895C375.879 268.566 375.645 269.438 375.645 270.508V277H372.926V265H375.645V266.898H375.691C376.559 265.445 377.82 264.719 379.477 264.719C380.305 264.719 381.027 264.949 381.645 265.41C382.27 265.863 382.695 266.461 382.922 267.203C383.812 265.547 385.141 264.719 386.906 264.719C389.547 264.719 390.867 266.348 390.867 269.605V277ZM404.344 271.738H396.164C396.195 272.848 396.535 273.703 397.184 274.305C397.84 274.906 398.738 275.207 399.879 275.207C401.16 275.207 402.336 274.824 403.406 274.059V276.25C402.312 276.938 400.867 277.281 399.07 277.281C397.305 277.281 395.918 276.738 394.91 275.652C393.91 274.559 393.41 273.023 393.41 271.047C393.41 269.18 393.961 267.66 395.062 266.488C396.172 265.309 397.547 264.719 399.188 264.719C400.828 264.719 402.098 265.246 402.996 266.301C403.895 267.355 404.344 268.82 404.344 270.695V271.738ZM401.719 269.816C401.711 268.84 401.48 268.082 401.027 267.543C400.574 266.996 399.949 266.723 399.152 266.723C398.371 266.723 397.707 267.008 397.16 267.578C396.621 268.148 396.289 268.895 396.164 269.816H401.719ZM417.621 277H414.902V270.238C414.902 267.996 414.109 266.875 412.523 266.875C411.695 266.875 411.012 267.188 410.473 267.812C409.934 268.43 409.664 269.211 409.664 270.156V277H406.934V265H409.664V266.992H409.711C410.609 265.477 411.906 264.719 413.602 264.719C414.906 264.719 415.902 265.145 416.59 265.996C417.277 266.84 417.621 268.062 417.621 269.664V277ZM431.859 277H429.141V274.961H429.094C428.219 276.508 426.871 277.281 425.051 277.281C423.574 277.281 422.391 276.746 421.5 275.676C420.617 274.598 420.176 273.133 420.176 271.281C420.176 269.297 420.664 267.707 421.641 266.512C422.625 265.316 423.934 264.719 425.566 264.719C427.184 264.719 428.359 265.367 429.094 266.664H429.141V259.234H431.859V277ZM429.176 271.516V269.945C429.176 269.094 428.898 268.371 428.344 267.777C427.789 267.184 427.082 266.887 426.223 266.887C425.207 266.887 424.406 267.266 423.82 268.023C423.242 268.781 422.953 269.832 422.953 271.176C422.953 272.395 423.23 273.359 423.785 274.07C424.348 274.773 425.102 275.125 426.047 275.125C426.977 275.125 427.73 274.785 428.309 274.105C428.887 273.418 429.176 272.555 429.176 271.516ZM445.57 271.738H437.391C437.422 272.848 437.762 273.703 438.41 274.305C439.066 274.906 439.965 275.207 441.105 275.207C442.387 275.207 443.562 274.824 444.633 274.059V276.25C443.539 276.938 442.094 277.281 440.297 277.281C438.531 277.281 437.145 276.738 436.137 275.652C435.137 274.559 434.637 273.023 434.637 271.047C434.637 269.18 435.188 267.66 436.289 266.488C437.398 265.309 438.773 264.719 440.414 264.719C442.055 264.719 443.324 265.246 444.223 266.301C445.121 267.355 445.57 268.82 445.57 270.695V271.738ZM442.945 269.816C442.938 268.84 442.707 268.082 442.254 267.543C441.801 266.996 441.176 266.723 440.379 266.723C439.598 266.723 438.934 267.008 438.387 267.578C437.848 268.148 437.516 268.895 437.391 269.816H442.945ZM459.07 277H456.352V274.961H456.305C455.43 276.508 454.082 277.281 452.262 277.281C450.785 277.281 449.602 276.746 448.711 275.676C447.828 274.598 447.387 273.133 447.387 271.281C447.387 269.297 447.875 267.707 448.852 266.512C449.836 265.316 451.145 264.719 452.777 264.719C454.395 264.719 455.57 265.367 456.305 266.664H456.352V259.234H459.07V277ZM456.387 271.516V269.945C456.387 269.094 456.109 268.371 455.555 267.777C455 267.184 454.293 266.887 453.434 266.887C452.418 266.887 451.617 267.266 451.031 268.023C450.453 268.781 450.164 269.832 450.164 271.176C450.164 272.395 450.441 273.359 450.996 274.07C451.559 274.773 452.312 275.125 453.258 275.125C454.188 275.125 454.941 274.785 455.52 274.105C456.098 273.418 456.387 272.555 456.387 271.516ZM478.441 277H475.805V275.125H475.758C474.93 276.562 473.715 277.281 472.113 277.281C470.934 277.281 470.008 276.961 469.336 276.32C468.672 275.68 468.34 274.832 468.34 273.777C468.34 271.512 469.645 270.191 472.254 269.816L475.816 269.312C475.816 267.602 475.004 266.746 473.379 266.746C471.949 266.746 470.66 267.238 469.512 268.223V265.844C470.777 265.094 472.238 264.719 473.895 264.719C476.926 264.719 478.441 266.211 478.441 269.195V277ZM475.816 271.105L473.297 271.457C472.516 271.559 471.926 271.75 471.527 272.031C471.137 272.305 470.941 272.789 470.941 273.484C470.941 273.992 471.121 274.41 471.48 274.738C471.848 275.059 472.336 275.219 472.945 275.219C473.773 275.219 474.457 274.93 474.996 274.352C475.543 273.766 475.816 273.031 475.816 272.148V271.105ZM492.457 277H489.738V270.238C489.738 267.996 488.945 266.875 487.359 266.875C486.531 266.875 485.848 267.188 485.309 267.812C484.77 268.43 484.5 269.211 484.5 270.156V277H481.77V265H484.5V266.992H484.547C485.445 265.477 486.742 264.719 488.438 264.719C489.742 264.719 490.738 265.145 491.426 265.996C492.113 266.84 492.457 268.062 492.457 269.664V277ZM506.695 277H503.977V274.961H503.93C503.055 276.508 501.707 277.281 499.887 277.281C498.41 277.281 497.227 276.746 496.336 275.676C495.453 274.598 495.012 273.133 495.012 271.281C495.012 269.297 495.5 267.707 496.477 266.512C497.461 265.316 498.77 264.719 500.402 264.719C502.02 264.719 503.195 265.367 503.93 266.664H503.977V259.234H506.695V277ZM504.012 271.516V269.945C504.012 269.094 503.734 268.371 503.18 267.777C502.625 267.184 501.918 266.887 501.059 266.887C500.043 266.887 499.242 267.266 498.656 268.023C498.078 268.781 497.789 269.832 497.789 271.176C497.789 272.395 498.066 273.359 498.621 274.07C499.184 274.773 499.938 275.125 500.883 275.125C501.812 275.125 502.566 274.785 503.145 274.105C503.723 273.418 504.012 272.555 504.012 271.516ZM519.621 275.266H519.574V277H516.855V259.234H519.574V267.109H519.621C520.551 265.516 521.91 264.719 523.699 264.719C525.215 264.719 526.398 265.258 527.25 266.336C528.109 267.406 528.539 268.844 528.539 270.648C528.539 272.656 528.059 274.266 527.098 275.477C526.137 276.68 524.824 277.281 523.16 277.281C521.598 277.281 520.418 276.609 519.621 275.266ZM519.551 270.496V271.984C519.551 272.859 519.828 273.602 520.383 274.211C520.945 274.82 521.656 275.125 522.516 275.125C523.523 275.125 524.312 274.734 524.883 273.953C525.461 273.164 525.75 272.066 525.75 270.66C525.75 269.48 525.48 268.559 524.941 267.895C524.41 267.223 523.688 266.887 522.773 266.887C521.805 266.887 521.023 267.23 520.43 267.918C519.844 268.605 519.551 269.465 519.551 270.496ZM541.477 271.738H533.297C533.328 272.848 533.668 273.703 534.316 274.305C534.973 274.906 535.871 275.207 537.012 275.207C538.293 275.207 539.469 274.824 540.539 274.059V276.25C539.445 276.938 538 277.281 536.203 277.281C534.438 277.281 533.051 276.738 532.043 275.652C531.043 274.559 530.543 273.023 530.543 271.047C530.543 269.18 531.094 267.66 532.195 266.488C533.305 265.309 534.68 264.719 536.32 264.719C537.961 264.719 539.23 265.246 540.129 266.301C541.027 267.355 541.477 268.82 541.477 270.695V271.738ZM538.852 269.816C538.844 268.84 538.613 268.082 538.16 267.543C537.707 266.996 537.082 266.723 536.285 266.723C535.504 266.723 534.84 267.008 534.293 267.578C533.754 268.148 533.422 268.895 533.297 269.816H538.852ZM550.395 276.871C549.863 277.137 549.164 277.27 548.297 277.27C545.969 277.27 544.805 276.152 544.805 273.918V267.133H542.801V265H544.805V262.223L547.523 261.449V265H550.395V267.133H547.523V273.133C547.523 273.844 547.652 274.352 547.91 274.656C548.168 274.961 548.598 275.113 549.199 275.113C549.66 275.113 550.059 274.98 550.395 274.715V276.871ZM559.066 276.871C558.535 277.137 557.836 277.27 556.969 277.27C554.641 277.27 553.477 276.152 553.477 273.918V267.133H551.473V265H553.477V262.223L556.195 261.449V265H559.066V267.133H556.195V273.133C556.195 273.844 556.324 274.352 556.582 274.656C556.84 274.961 557.27 275.113 557.871 275.113C558.332 275.113 558.73 274.98 559.066 274.715V276.871ZM571.43 271.738H563.25C563.281 272.848 563.621 273.703 564.27 274.305C564.926 274.906 565.824 275.207 566.965 275.207C568.246 275.207 569.422 274.824 570.492 274.059V276.25C569.398 276.938 567.953 277.281 566.156 277.281C564.391 277.281 563.004 276.738 561.996 275.652C560.996 274.559 560.496 273.023 560.496 271.047C560.496 269.18 561.047 267.66 562.148 266.488C563.258 265.309 564.633 264.719 566.273 264.719C567.914 264.719 569.184 265.246 570.082 266.301C570.98 267.355 571.43 268.82 571.43 270.695V271.738ZM568.805 269.816C568.797 268.84 568.566 268.082 568.113 267.543C567.66 266.996 567.035 266.723 566.238 266.723C565.457 266.723 564.793 267.008 564.246 267.578C563.707 268.148 563.375 268.895 563.25 269.816H568.805ZM580.98 267.59C580.652 267.332 580.18 267.203 579.562 267.203C578.758 267.203 578.086 267.566 577.547 268.293C577.008 269.02 576.738 270.008 576.738 271.258V277H574.02V265H576.738V267.473H576.785C577.051 266.629 577.457 265.973 578.004 265.504C578.559 265.027 579.176 264.789 579.855 264.789C580.348 264.789 580.723 264.863 580.98 265.012V267.59ZM595.84 276.871C595.309 277.137 594.609 277.27 593.742 277.27C591.414 277.27 590.25 276.152 590.25 273.918V267.133H588.246V265H590.25V262.223L592.969 261.449V265H595.84V267.133H592.969V273.133C592.969 273.844 593.098 274.352 593.355 274.656C593.613 274.961 594.043 275.113 594.645 275.113C595.105 275.113 595.504 274.98 595.84 274.715V276.871ZM608.848 277H606.129V270.438C606.129 268.062 605.336 266.875 603.75 266.875C602.953 266.875 602.281 267.219 601.734 267.906C601.188 268.594 600.914 269.473 600.914 270.543V277H598.184V259.234H600.914V266.992H600.961C601.867 265.477 603.164 264.719 604.852 264.719C607.516 264.719 608.848 266.348 608.848 269.605V277ZM621.363 277H618.727V275.125H618.68C617.852 276.562 616.637 277.281 615.035 277.281C613.855 277.281 612.93 276.961 612.258 276.32C611.594 275.68 611.262 274.832 611.262 273.777C611.262 271.512 612.566 270.191 615.176 269.816L618.738 269.312C618.738 267.602 617.926 266.746 616.301 266.746C614.871 266.746 613.582 267.238 612.434 268.223V265.844C613.699 265.094 615.16 264.719 616.816 264.719C619.848 264.719 621.363 266.211 621.363 269.195V277ZM618.738 271.105L616.219 271.457C615.438 271.559 614.848 271.75 614.449 272.031C614.059 272.305 613.863 272.789 613.863 273.484C613.863 273.992 614.043 274.41 614.402 274.738C614.77 275.059 615.258 275.219 615.867 275.219C616.695 275.219 617.379 274.93 617.918 274.352C618.465 273.766 618.738 273.031 618.738 272.148V271.105ZM635.379 277H632.66V270.238C632.66 267.996 631.867 266.875 630.281 266.875C629.453 266.875 628.77 267.188 628.23 267.812C627.691 268.43 627.422 269.211 627.422 270.156V277H624.691V265H627.422V266.992H627.469C628.367 265.477 629.664 264.719 631.359 264.719C632.664 264.719 633.66 265.145 634.348 265.996C635.035 266.84 635.379 268.062 635.379 269.664V277ZM387.164 316.281C385.312 316.281 383.832 315.723 382.723 314.605C381.621 313.48 381.07 311.992 381.07 310.141C381.07 308.125 381.645 306.551 382.793 305.418C383.949 304.285 385.504 303.719 387.457 303.719C389.332 303.719 390.793 304.27 391.84 305.371C392.887 306.473 393.41 308 393.41 309.953C393.41 311.867 392.844 313.402 391.711 314.559C390.586 315.707 389.07 316.281 387.164 316.281ZM387.293 305.887C386.23 305.887 385.391 306.258 384.773 307C384.156 307.742 383.848 308.766 383.848 310.07C383.848 311.328 384.16 312.32 384.785 313.047C385.41 313.766 386.246 314.125 387.293 314.125C388.363 314.125 389.184 313.77 389.754 313.059C390.332 312.348 390.621 311.336 390.621 310.023C390.621 308.703 390.332 307.684 389.754 306.965C389.184 306.246 388.363 305.887 387.293 305.887ZM402.516 315.871C401.984 316.137 401.285 316.27 400.418 316.27C398.09 316.27 396.926 315.152 396.926 312.918V306.133H394.922V304H396.926V301.223L399.645 300.449V304H402.516V306.133H399.645V312.133C399.645 312.844 399.773 313.352 400.031 313.656C400.289 313.961 400.719 314.113 401.32 314.113C401.781 314.113 402.18 313.98 402.516 313.715V315.871ZM415.523 316H412.805V309.438C412.805 307.062 412.012 305.875 410.426 305.875C409.629 305.875 408.957 306.219 408.41 306.906C407.863 307.594 407.59 308.473 407.59 309.543V316H404.859V298.234H407.59V305.992H407.637C408.543 304.477 409.84 303.719 411.527 303.719C414.191 303.719 415.523 305.348 415.523 308.605V316ZM428.988 310.738H420.809C420.84 311.848 421.18 312.703 421.828 313.305C422.484 313.906 423.383 314.207 424.523 314.207C425.805 314.207 426.98 313.824 428.051 313.059V315.25C426.957 315.938 425.512 316.281 423.715 316.281C421.949 316.281 420.562 315.738 419.555 314.652C418.555 313.559 418.055 312.023 418.055 310.047C418.055 308.18 418.605 306.66 419.707 305.488C420.816 304.309 422.191 303.719 423.832 303.719C425.473 303.719 426.742 304.246 427.641 305.301C428.539 306.355 428.988 307.82 428.988 309.695V310.738ZM426.363 308.816C426.355 307.84 426.125 307.082 425.672 306.543C425.219 305.996 424.594 305.723 423.797 305.723C423.016 305.723 422.352 306.008 421.805 306.578C421.266 307.148 420.934 307.895 420.809 308.816H426.363ZM438.539 306.59C438.211 306.332 437.738 306.203 437.121 306.203C436.316 306.203 435.645 306.566 435.105 307.293C434.566 308.02 434.297 309.008 434.297 310.258V316H431.578V304H434.297V306.473H434.344C434.609 305.629 435.016 304.973 435.562 304.504C436.117 304.027 436.734 303.789 437.414 303.789C437.906 303.789 438.281 303.863 438.539 304.012V306.59ZM439.875 315.625V313.105C440.891 313.879 442.012 314.266 443.238 314.266C444.879 314.266 445.699 313.781 445.699 312.812C445.699 312.539 445.629 312.309 445.488 312.121C445.348 311.926 445.156 311.754 444.914 311.605C444.68 311.457 444.398 311.324 444.07 311.207C443.75 311.09 443.391 310.957 442.992 310.809C442.5 310.613 442.055 310.406 441.656 310.188C441.266 309.969 440.938 309.723 440.672 309.449C440.414 309.168 440.219 308.852 440.086 308.5C439.953 308.148 439.887 307.738 439.887 307.27C439.887 306.691 440.023 306.184 440.297 305.746C440.57 305.301 440.938 304.93 441.398 304.633C441.859 304.328 442.383 304.102 442.969 303.953C443.555 303.797 444.16 303.719 444.785 303.719C445.895 303.719 446.887 303.887 447.762 304.223V306.602C446.918 306.023 445.949 305.734 444.855 305.734C444.512 305.734 444.199 305.77 443.918 305.84C443.645 305.91 443.41 306.008 443.215 306.133C443.02 306.258 442.867 306.41 442.758 306.59C442.648 306.762 442.594 306.953 442.594 307.164C442.594 307.422 442.648 307.641 442.758 307.82C442.867 308 443.027 308.16 443.238 308.301C443.457 308.434 443.715 308.559 444.012 308.676C444.316 308.785 444.664 308.906 445.055 309.039C445.57 309.25 446.031 309.465 446.438 309.684C446.852 309.902 447.203 310.152 447.492 310.434C447.781 310.707 448.004 311.027 448.16 311.395C448.316 311.754 448.395 312.184 448.395 312.684C448.395 313.293 448.254 313.824 447.973 314.277C447.691 314.73 447.316 315.105 446.848 315.402C446.379 315.699 445.836 315.918 445.219 316.059C444.609 316.207 443.965 316.281 443.285 316.281C441.973 316.281 440.836 316.062 439.875 315.625ZM452.109 316.258C451.641 316.258 451.242 316.105 450.914 315.801C450.586 315.488 450.422 315.117 450.422 314.688C450.422 314.25 450.586 313.875 450.914 313.562C451.242 313.25 451.641 313.094 452.109 313.094C452.586 313.094 452.988 313.25 453.316 313.562C453.652 313.875 453.82 314.25 453.82 314.688C453.82 315.117 453.652 315.488 453.316 315.801C452.988 316.105 452.586 316.258 452.109 316.258ZM470.766 298.867L468.867 304.082H467.062L468.363 298.867H470.766ZM466.617 298.867L464.707 304.082H462.914L464.238 298.867H466.617Z" fill="#333333"/>
<defs>
<filter id="filter0_d_24_211" x="109" y="196" width="635" height="272" filterUnits="userSpaceOnUse" color-interpolation-filters="sRGB">
<feFlood flood-opacity="0" result="BackgroundImageFix"/>
<feColorMatrix in="SourceAlpha" type="matrix" values="0 0 0 0 0 0 0 0 0 0 0 0 0 0 0 0 0 0 127 0" result="hardAlpha"/>
<feOffset/>
<feGaussianBlur stdDeviation="2"/>
<feComposite in2="hardAlpha" operator="out"/>
<feColorMatrix type="matrix" values="0 0 0 0 0 0 0 0 0 0 0 0 0 0 0 0 0 0 0.25 0"/>
<feBlend mode="normal" in2="BackgroundImageFix" result="effect1_dropShadow_24_211"/>
<feBlend mode="normal" in="SourceGraphic" in2="effect1_dropShadow_24_211" result="shape"/>
</filter>
<filter id="filter1_d_24_211" x="380" y="336" width="75" height="75" filterUnits="userSpaceOnUse" color-interpolation-filters="sRGB">
<feFlood flood-opacity="0" result="BackgroundImageFix"/>
<feColorMatrix in="SourceAlpha" type="matrix" values="0 0 0 0 0 0 0 0 0 0 0 0 0 0 0 0 0 0 127 0" result="hardAlpha"/>
<feOffset/>
<feGaussianBlur stdDeviation="1.5"/>
<feComposite in2="hardAlpha" operator="out"/>
<feColorMatrix type="matrix" values="0 0 0 0 0 0 0 0 0 0 0 0 0 0 0 0 0 0 0.15 0"/>
<feBlend mode="normal" in2="BackgroundImageFix" result="effect1_dropShadow_24_211"/>
<feBlend mode="normal" in="SourceGraphic" in2="effect1_dropShadow_24_211" result="shape"/>
</filter>
</defs>
</svg>
