<svg width="566" height="408" viewBox="0 0 566 408" fill="none" xmlns="http://www.w3.org/2000/svg">
<rect x="29" y="61" width="508" height="77" rx="10" fill="#FAFAFA"/>
<rect x="226" y="93" width="94" height="16" rx="4" fill="#D9D9D9"/>
<rect x="391" y="93" width="94" height="16" rx="4" fill="#D9D9D9"/>
<g clip-path="url(#clip0_10_93)">
<path d="M84.03 95.7L91.53 89.8667L99.03 95.7V104.867C99.03 105.309 98.8544 105.733 98.5419 106.045C98.2293 106.358 97.8054 106.533 97.3634 106.533H85.6967C85.2547 106.533 84.8307 106.358 84.5182 106.045C84.2056 105.733 84.03 105.309 84.03 104.867V95.7Z" stroke="#18181B" stroke-width="1.66667" stroke-linecap="round" stroke-linejoin="round"/>
<path d="M89.03 106.534V98.2002H94.03V106.534" stroke="#18181B" stroke-width="1.66667" stroke-linecap="round" stroke-linejoin="round"/>
</g>
<path d="M119.421 105H118.108V99.8906H112.311V105H110.999V93.7969H112.311V98.7109H118.108V93.7969H119.421V105ZM125.53 105.188C124.348 105.188 123.402 104.815 122.694 104.07C121.991 103.32 121.639 102.328 121.639 101.094C121.639 99.75 122.007 98.7005 122.741 97.9453C123.475 97.1901 124.468 96.8125 125.718 96.8125C126.91 96.8125 127.84 97.1797 128.507 97.9141C129.178 98.6484 129.514 99.6667 129.514 100.969C129.514 102.245 129.152 103.268 128.428 104.039C127.71 104.805 126.744 105.188 125.53 105.188ZM125.624 97.8906C124.801 97.8906 124.15 98.1719 123.671 98.7344C123.191 99.2917 122.952 100.062 122.952 101.047C122.952 101.995 123.194 102.742 123.678 103.289C124.163 103.836 124.811 104.109 125.624 104.109C126.452 104.109 127.087 103.841 127.53 103.305C127.978 102.768 128.202 102.005 128.202 101.016C128.202 100.016 127.978 99.2448 127.53 98.7031C127.087 98.1615 126.452 97.8906 125.624 97.8906ZM142.921 105H141.639V100.406C141.639 99.5208 141.501 98.8802 141.225 98.4844C140.955 98.0885 140.496 97.8906 139.85 97.8906C139.303 97.8906 138.837 98.1406 138.452 98.6406C138.072 99.1406 137.882 99.7396 137.882 100.438V105H136.6V100.25C136.6 98.6771 135.994 97.8906 134.78 97.8906C134.218 97.8906 133.754 98.1276 133.389 98.6016C133.025 99.0703 132.843 99.6823 132.843 100.438V105H131.561V97H132.843V98.2656H132.874C133.441 97.2969 134.27 96.8125 135.358 96.8125C135.905 96.8125 136.382 96.9661 136.788 97.2734C137.194 97.5755 137.473 97.974 137.624 98.4688C138.218 97.3646 139.103 96.8125 140.28 96.8125C142.04 96.8125 142.921 97.8984 142.921 100.07V105ZM151.772 101.32H146.124C146.145 102.211 146.384 102.898 146.843 103.383C147.301 103.867 147.931 104.109 148.733 104.109C149.634 104.109 150.462 103.812 151.218 103.219V104.422C150.514 104.932 149.585 105.188 148.428 105.188C147.298 105.188 146.41 104.826 145.764 104.102C145.119 103.372 144.796 102.349 144.796 101.031C144.796 99.7865 145.147 98.7734 145.85 97.9922C146.559 97.2057 147.436 96.8125 148.483 96.8125C149.53 96.8125 150.34 97.151 150.913 97.8281C151.486 98.5052 151.772 99.4453 151.772 100.648V101.32ZM150.46 100.234C150.455 99.4948 150.275 98.9193 149.921 98.5078C149.572 98.0964 149.085 97.8906 148.46 97.8906C147.856 97.8906 147.343 98.1068 146.921 98.5391C146.499 98.9714 146.238 99.5365 146.139 100.234H150.46Z" fill="#18181B"/>
<path d="M181.465 102.636L174.488 105.987V104.511L179.598 102.237V102.19L174.488 99.6592V98.1748L181.465 101.808V102.636Z" fill="#18181B"/>
<g clip-path="url(#clip1_10_93)">
<path d="M217.53 95.5V104.5L213.53 106.75L209.53 109L205.53 106.75L201.53 104.5V95.5L205.53 93.25L209.53 91L213.53 93.25L217.53 95.5Z" stroke="#18181B" stroke-width="1.5" stroke-linecap="round" stroke-linejoin="round"/>
<path d="M209.53 100L213.53 97.75L217.53 95.5" stroke="#18181B" stroke-width="1.5" stroke-linecap="round" stroke-linejoin="round"/>
<path d="M209.53 100V109" stroke="#18181B" stroke-width="1.5" stroke-linecap="round" stroke-linejoin="round"/>
<path d="M209.53 100L205.53 97.75L201.53 95.5" stroke="#18181B" stroke-width="1.5" stroke-linecap="round" stroke-linejoin="round"/>
<path d="M217.53 100L213.53 102V106.75" stroke="#18181B" stroke-width="1.5" stroke-linecap="round" stroke-linejoin="round"/>
<path d="M201.53 100L205.53 102V106.75" stroke="#18181B" stroke-width="1.5" stroke-linecap="round" stroke-linejoin="round"/>
<path d="M205.53 93.25L209.53 95.5L213.53 93.25" stroke="#18181B" stroke-width="1.5" stroke-linecap="round" stroke-linejoin="round"/>
</g>
<path d="M347.115 102.636L340.138 105.987V104.511L345.248 102.237V102.19L340.138 99.6592V98.1748L347.115 101.808V102.636Z" fill="#18181B"/>
<g clip-path="url(#clip2_10_93)">
<path d="M381.18 92H369.18C368.075 92 367.18 92.8954 367.18 94V106C367.18 107.105 368.075 108 369.18 108H381.18C382.285 108 383.18 107.105 383.18 106V94C383.18 92.8954 382.285 92 381.18 92Z" stroke="#18181B" stroke-width="1.5" stroke-linecap="round" stroke-linejoin="round"/>
<path d="M367.18 97H383.18" stroke="#18181B" stroke-width="1.5" stroke-linecap="round" stroke-linejoin="round"/>
</g>
<defs>
<clipPath id="clip0_10_93">
<rect width="20" height="20" fill="white" transform="translate(81.53 88.2002)"/>
</clipPath>
<clipPath id="clip1_10_93">
<rect width="24" height="44" fill="white" transform="translate(197.53 78)"/>
</clipPath>
<clipPath id="clip2_10_93">
<rect width="24" height="44" fill="white" transform="translate(363.18 78)"/>
</clipPath>
</defs>
</svg>
