<svg width="1080" height="777" viewBox="0 0 1080 777" fill="none" xmlns="http://www.w3.org/2000/svg">
<g clip-path="url(#clip0_10_36)">
<g filter="url(#filter0_d_10_36)">
<mask id="path-1-inside-1_10_36" fill="white">
<path d="M6.10705 61H1073.31V139.4H6.10705V61Z"/>
</mask>
<path d="M6.10705 61H1073.31V139.4H6.10705V61Z" fill="white" shape-rendering="crispEdges"/>
<g clip-path="url(#clip1_10_36)">
<path d="M39.8035 111.835C38.0178 111.835 36.6011 111.252 35.5535 110.085C34.5297 108.895 34.0178 107.204 34.0178 105.014V96.2996H30.8035V93.5139H34.0892L34.7678 87.6567H37.232V93.5139H42.3749V96.2996H37.232V105.264C37.232 106.645 37.5178 107.609 38.0892 108.157C38.6844 108.704 39.3868 108.978 40.1963 108.978C40.7916 108.978 41.3511 108.883 41.8749 108.692C42.4225 108.502 42.9225 108.276 43.3749 108.014L44.2678 110.585C43.7916 110.871 43.1487 111.145 42.3392 111.407C41.5296 111.692 40.6845 111.835 39.8035 111.835ZM53.9081 111.835C52.3605 111.835 50.9557 111.442 49.6938 110.657C48.432 109.871 47.42 108.764 46.6581 107.335C45.92 105.883 45.551 104.181 45.551 102.228C45.551 100.371 45.92 98.7043 46.6581 97.2282C47.42 95.752 48.4557 94.5853 49.7653 93.7282C51.0986 92.8472 52.6224 92.4067 54.3367 92.4067C55.4081 92.4067 56.3724 92.5972 57.2295 92.9782C58.1105 93.3353 58.8724 93.7877 59.5153 94.3353V92.8353H62.4438V106.907C62.4438 107.811 62.6581 108.407 63.0867 108.692C63.5391 108.954 64.0271 109.085 64.551 109.085L63.8724 111.585C61.5867 111.585 60.2057 110.657 59.7295 108.8C59.182 109.561 58.432 110.264 57.4795 110.907C56.551 111.526 55.3605 111.835 53.9081 111.835ZM54.6224 108.978C55.5271 108.978 56.3843 108.764 57.1938 108.335C58.0034 107.883 58.682 107.323 59.2295 106.657V96.6925C58.5867 96.24 57.8724 95.8829 57.0867 95.621C56.3248 95.3353 55.5153 95.1925 54.6581 95.1925C53.5153 95.1925 52.5034 95.4901 51.6224 96.0853C50.7653 96.6567 50.0867 97.4663 49.5867 98.5139C49.0867 99.5377 48.8367 100.74 48.8367 102.121C48.8367 103.454 49.0867 104.645 49.5867 105.692C50.0867 106.716 50.7771 107.526 51.6581 108.121C52.5391 108.692 53.5271 108.978 54.6224 108.978Z" fill="#020617"/>
<path d="M76.3434 111.835C74.5815 111.835 73.0338 111.431 71.7005 110.621C70.391 109.788 69.3791 108.645 68.6648 107.192C67.9505 105.716 67.5934 104.026 67.5934 102.121C67.5934 100.335 67.9505 98.7043 68.6648 97.2282C69.4029 95.752 70.4505 94.5853 71.8077 93.7282C73.1648 92.8472 74.7601 92.4067 76.5934 92.4067C77.641 92.4067 78.5577 92.502 79.3434 92.6925C80.1529 92.8829 80.9267 93.1567 81.6648 93.5139L80.7005 96.2282C80.0338 95.8948 79.391 95.6567 78.772 95.5139C78.1767 95.3472 77.5101 95.2639 76.772 95.2639C75.1053 95.2639 73.7005 95.871 72.5577 97.0853C71.4387 98.2758 70.8791 99.9306 70.8791 102.05C70.8791 103.335 71.1172 104.502 71.5934 105.55C72.0695 106.597 72.7244 107.431 73.5577 108.05C74.4148 108.669 75.4148 108.978 76.5577 108.978C77.4624 108.978 78.2362 108.883 78.8791 108.692C79.522 108.478 80.2124 108.181 80.9505 107.8L81.9505 110.514C81.2124 110.919 80.3791 111.24 79.4505 111.478C78.5458 111.716 77.5101 111.835 76.3434 111.835ZM93.1618 111.835C91.3998 111.835 89.8165 111.431 88.4118 110.621C87.007 109.788 85.8998 108.645 85.0904 107.192C84.3046 105.716 83.9118 104.026 83.9118 102.121C83.9118 100.121 84.3165 98.3949 85.1261 96.9425C85.9355 95.4901 87.0427 94.371 88.4475 93.5853C89.8522 92.7996 91.4237 92.4067 93.1618 92.4067C94.8998 92.4067 96.4594 92.7996 97.8403 93.5853C99.2451 94.371 100.352 95.4901 101.162 96.9425C101.995 98.371 102.412 100.073 102.412 102.05C102.412 104.026 102.007 105.752 101.197 107.228C100.388 108.681 99.2808 109.811 97.8761 110.621C96.4951 111.431 94.9237 111.835 93.1618 111.835ZM93.1618 108.978C95.0427 108.978 96.507 108.347 97.5546 107.085C98.6022 105.8 99.1261 104.145 99.1261 102.121C99.1261 100.883 98.8641 99.752 98.3403 98.7282C97.8165 97.6806 97.1022 96.8472 96.1975 96.2282C95.3165 95.5853 94.3046 95.2639 93.1618 95.2639C91.2808 95.2639 89.8165 95.8829 88.7689 97.121C87.7212 98.3591 87.1974 100.002 87.1974 102.05C87.1974 103.288 87.4594 104.442 87.9832 105.514C88.507 106.561 89.2094 107.407 90.0903 108.05C90.9951 108.669 92.0189 108.978 93.1618 108.978Z" fill="#020617"/>
</g>
<rect x="879.227" y="81.5" width="73.14" height="36.6" rx="3.5" stroke="black" stroke-opacity="0.8"/>
<rect x="968.857" y="81" width="84.45" height="37.6" rx="4" fill="black"/>
<rect x="969.357" y="81.5" width="83.45" height="36.6" rx="3.5" stroke="black" stroke-opacity="0.8"/>
<path d="M1073.31 138.6H6.10705V140.2H1073.31V138.6Z" fill="#E5E7EB" mask="url(#path-1-inside-1_10_36)"/>
</g>
</g>
<path d="M324.94 96C324.94 94.8954 325.835 94 326.94 94H354.016H381.091C382.196 94 383.091 94.8954 383.091 96V105C383.091 106.105 382.196 107 381.091 107H326.94C325.835 107 324.94 106.105 324.94 105V96Z" fill="#D9D9D9" fill-opacity="0.93"/>
<path d="M407.655 96C407.655 94.8954 408.551 94 409.655 94H463.807C464.911 94 465.807 94.8954 465.807 96V105C465.807 106.105 464.911 107 463.807 107H409.655C408.551 107 407.655 106.105 407.655 105V96Z" fill="#D9D9D9" fill-opacity="0.93"/>
<path d="M497.389 96C497.389 94.8954 498.284 94 499.389 94H553.54C554.645 94 555.54 94.8954 555.54 96V105C555.54 106.105 554.645 107 553.54 107H499.389C498.284 107 497.389 106.105 497.389 105V96Z" fill="#D9D9D9" fill-opacity="0.93"/>
<path d="M594.642 96C594.642 94.8954 595.538 94 596.642 94H650.794C651.898 94 652.794 94.8954 652.794 96V105C652.794 106.105 651.898 107 650.794 107H596.642C595.538 107 594.642 106.105 594.642 105V96Z" fill="#D9D9D9" fill-opacity="0.93"/>
<path d="M888.909 96.5C888.909 95.3954 889.804 94.5 890.909 94.5H945.06C946.165 94.5 947.06 95.3954 947.06 96.5V105.5C947.06 106.605 946.165 107.5 945.06 107.5H917.984H890.909C889.804 107.5 888.909 106.605 888.909 105.5V96.5Z" fill="#E8E0E0" fill-opacity="0.93"/>
<path d="M985.661 95.5C985.661 94.3954 986.556 93.5 987.661 93.5H1041.81C1042.92 93.5 1043.81 94.3954 1043.81 95.5V104.5C1043.81 105.605 1042.92 106.5 1041.81 106.5H987.661C986.556 106.5 985.661 105.605 985.661 104.5V95.5Z" fill="#FFFAFA" fill-opacity="0.93"/>
<defs>
<filter id="filter0_d_10_36" x="-8.89295" y="50" width="1097.2" height="108.4" filterUnits="userSpaceOnUse" color-interpolation-filters="sRGB">
<feFlood flood-opacity="0" result="BackgroundImageFix"/>
<feColorMatrix in="SourceAlpha" type="matrix" values="0 0 0 0 0 0 0 0 0 0 0 0 0 0 0 0 0 0 127 0" result="hardAlpha"/>
<feOffset dy="4"/>
<feGaussianBlur stdDeviation="7.5"/>
<feComposite in2="hardAlpha" operator="out"/>
<feColorMatrix type="matrix" values="0 0 0 0 0 0 0 0 0 0 0 0 0 0 0 0 0 0 0.15 0"/>
<feBlend mode="normal" in2="BackgroundImageFix" result="effect1_dropShadow_10_36"/>
<feBlend mode="normal" in="SourceGraphic" in2="effect1_dropShadow_10_36" result="shape"/>
</filter>
<clipPath id="clip0_10_36">
<rect width="1070" height="78" fill="white" transform="translate(5 61)"/>
</clipPath>
<clipPath id="clip1_10_36">
<rect width="81" height="25" fill="white" transform="translate(26.107 87.2998)"/>
</clipPath>
</defs>
</svg>
