<svg width="568" height="410" viewBox="0 0 568 410" fill="none" xmlns="http://www.w3.org/2000/svg">
<g filter="url(#filter0_d_24_228)">
<rect x="82" y="183" width="378" height="49" rx="7" fill="white"/>
</g>
<path d="M92.1074 168H83.46V152.596H91.7637V154.766H86.0166V159.127H91.3125V161.286H86.0166V165.841H92.1074V168ZM111.014 168H108.521V162.006C108.521 160.853 108.357 160.019 108.027 159.503C107.705 158.987 107.157 158.729 106.384 158.729C105.732 158.729 105.177 159.055 104.719 159.707C104.268 160.359 104.042 161.139 104.042 162.049V168H101.539V161.802C101.539 159.754 100.816 158.729 99.3691 158.729C98.696 158.729 98.141 159.037 97.7041 159.653C97.2744 160.269 97.0596 161.068 97.0596 162.049V168H94.5674V157H97.0596V158.74H97.1025C97.8975 157.408 99.054 156.742 100.572 156.742C101.331 156.742 101.994 156.953 102.56 157.376C103.132 157.791 103.523 158.339 103.73 159.02C104.547 157.501 105.764 156.742 107.383 156.742C109.803 156.742 111.014 158.235 111.014 161.222V168ZM122.497 168H120.08V166.281H120.037C119.278 167.599 118.164 168.258 116.696 168.258C115.615 168.258 114.766 167.964 114.15 167.377C113.542 166.79 113.237 166.013 113.237 165.046C113.237 162.969 114.433 161.759 116.825 161.415L120.091 160.953C120.091 159.385 119.346 158.601 117.856 158.601C116.546 158.601 115.364 159.052 114.312 159.954V157.773C115.472 157.086 116.811 156.742 118.329 156.742C121.108 156.742 122.497 158.11 122.497 160.846V168ZM120.091 162.597L117.781 162.919C117.065 163.012 116.524 163.188 116.159 163.445C115.801 163.696 115.622 164.14 115.622 164.777C115.622 165.243 115.787 165.626 116.116 165.927C116.453 166.22 116.9 166.367 117.459 166.367C118.218 166.367 118.845 166.102 119.339 165.572C119.84 165.035 120.091 164.362 120.091 163.553V162.597ZM126.805 154.69C126.396 154.69 126.046 154.558 125.752 154.293C125.465 154.028 125.322 153.691 125.322 153.283C125.322 152.875 125.465 152.535 125.752 152.263C126.046 151.991 126.396 151.854 126.805 151.854C127.227 151.854 127.585 151.991 127.879 152.263C128.173 152.535 128.319 152.875 128.319 153.283C128.319 153.67 128.173 154.003 127.879 154.282C127.585 154.554 127.227 154.69 126.805 154.69ZM128.04 168H125.548V157H128.04V168ZM133.809 168H131.306V151.715H133.809V168Z" fill="#333333"/>
<defs>
<filter id="filter0_d_24_228" x="78" y="179" width="386" height="57" filterUnits="userSpaceOnUse" color-interpolation-filters="sRGB">
<feFlood flood-opacity="0" result="BackgroundImageFix"/>
<feColorMatrix in="SourceAlpha" type="matrix" values="0 0 0 0 0 0 0 0 0 0 0 0 0 0 0 0 0 0 127 0" result="hardAlpha"/>
<feOffset/>
<feGaussianBlur stdDeviation="2"/>
<feComposite in2="hardAlpha" operator="out"/>
<feColorMatrix type="matrix" values="0 0 0 0 0 0 0 0 0 0 0 0 0 0 0 0 0 0 0.25 0"/>
<feBlend mode="normal" in2="BackgroundImageFix" result="effect1_dropShadow_24_228"/>
<feBlend mode="normal" in="SourceGraphic" in2="effect1_dropShadow_24_228" result="shape"/>
</filter>
</defs>
</svg>
